<svg id="Слой_2" data-name="Слой 2" xmlns="http://www.w3.org/2000/svg" width="296.469" height="323.656" viewBox="0 0 296.469 323.656">
  <g id="Слой_1" data-name="Слой 1">
    <g id="monitor" transform="translate(134.253 45.365)">
      <path id="Path_978" data-name="Path 978" d="M292.836,366.848l-30.954-17.9c-2.233-1.295-1.942-3.541.647-5.03L282.6,332.34l39.033,22.572-20.067,11.58C298.973,367.975,295.089,368.136,292.836,366.848Z" transform="translate(-226.085 -162.577)" fill="#d6d8e5" opacity="0.4"/>
      <path id="Path_979" data-name="Path 979" d="M297.151,364.332,266.183,346.46c-2.227-1.295-1.942-3.541.647-5.03L286.9,329.85,325.943,352.4l-20.067,11.58C303.281,365.459,299.384,365.621,297.151,364.332Z" transform="translate(-227.603 -161.699)" fill="#b1b4c4"/>
      <path id="Path_980" data-name="Path 980" d="M358.3,364.035V362.85l-1.806,1.042Z" transform="translate(-259.982 -173.337)" fill="#b1b4c4"/>
      <path id="Path_981" data-name="Path 981" d="M264.69,351.564v-1.2l1.851.77Z" transform="translate(-227.605 -168.932)" fill="#b1b4c4"/>
      <path id="Path_982" data-name="Path 982" d="M297.151,362.5l-30.967-17.879c-2.227-1.295-1.942-3.534.647-5.023L286.9,328l39.046,22.539-20.067,11.58C303.281,363.6,299.384,363.79,297.151,362.5Z" transform="translate(-227.603 -161.046)" fill="#d6d8e5"/>
      <path id="Path_983" data-name="Path 983" d="M296.5,319.377,291.66,303.35l39.467,22.637,4.3,15.879Z" transform="translate(-237.117 -152.352)" fill="#9ea1af"/>
      <path id="Path_984" data-name="Path 984" d="M357.207,362.777l1.146-.647-1.7-1.359Z" transform="translate(-260.039 -172.604)" fill="#9ea1af"/>
      <path id="Path_985" data-name="Path 985" d="M294.569,320.307,289.74,304.28l39.467,22.637,4.4,15.937Z" transform="translate(-236.44 -152.68)" fill="#b1b4c4"/>
      <path id="Path_986" data-name="Path 986" d="M366.65,287.273l-152.766-88.2c-2.143-1.236-3.884-4.531-3.884-7.418V73.479c0-2.855,1.735-4.169,3.884-2.932l152.766,88.2c2.143,1.236,3.884,4.531,3.884,7.412v118.18C370.534,287.2,368.779,288.51,366.65,287.273Z" transform="translate(-208.317 -70.082)" fill="#b1b4c4"/>
      <path id="Path_987" data-name="Path 987" d="M453.19,404.224l1.7-.977-.731-5.017Z" transform="translate(-294.087 -185.815)" fill="#b1b4c4"/>
      <path id="Path_988" data-name="Path 988" d="M209.55,71.4l1.67-.964,2.4,1.366s-2.55.388-2.589.375S209.55,71.4,209.55,71.4Z" transform="translate(-208.158 -70.208)" fill="#b1b4c4"/>
      <path id="Path_989" data-name="Path 989" d="M364.47,288.523,211.7,200.321c-2.143-1.236-3.884-4.531-3.884-7.418V74.729c0-2.855,1.741-4.169,3.884-2.932L364.47,160c2.143,1.236,3.884,4.531,3.884,7.412v118.18C368.347,288.446,366.612,289.76,364.47,288.523Z" transform="translate(-207.548 -70.522)" fill="#e4e7f2"/>
      <path id="Path_990" data-name="Path 990" d="M364.05,288.757l-152.766-88.2c-2.143-1.236-3.884-4.531-3.884-7.412V74.969c0-2.855,1.735-4.169,3.884-2.932l152.766,88.2c2.143,1.236,3.884,4.531,3.884,7.412V285.825C367.934,288.7,366.192,289.993,364.05,288.757Z" transform="translate(-207.4 -70.607)" fill="#d6d8e5"/>
      <path id="Path_991" data-name="Path 991" d="M366.884,282.964,210.39,192.612l.084-115.785c0-1.185.835-1.664,1.858-1.075l152.766,88.2a4.11,4.11,0,0,1,1.858,3.237Z" transform="translate(-208.455 -71.993)" fill="#fff"/>
      <path id="Path_992" data-name="Path 992" d="M360.739,189.014,222.019,108.928a3.787,3.787,0,0,1-1.579-3.016V95.9c0-1.159.706-1.7,1.579-1.191l138.719,80.086a3.787,3.787,0,0,1,1.579,3.023v10.007C362.318,188.988,361.612,189.518,360.739,189.014Z" transform="translate(-211.999 -78.7)" fill="#e9eaf2"/>
      <path id="Path_993" data-name="Path 993" d="M407.375,257.792l-32.605-18.824a3.787,3.787,0,0,1-1.579-3.016V214.907c0-1.165.706-1.7,1.579-1.191l32.605,18.824a3.774,3.774,0,0,1,1.579,3.016V256.6C408.928,257.759,408.223,258.3,407.375,257.792Z" transform="translate(-265.872 -120.672)" fill="#e9eaf2"/>
      <path id="Path_994" data-name="Path 994" d="M314.614,263.551,232.82,216.3a1.877,1.877,0,0,1-.79-1.508v-3.618c0-.583.35-.854.79-.6l81.794,47.254a1.9,1.9,0,0,1,.79,1.508v3.625C315.4,263.532,315.048,263.8,314.614,263.551Z" transform="translate(-216.087 -119.596)" fill="#e9eaf2"/>
      <path id="Path_995" data-name="Path 995" d="M306.689,273.236,233.18,230.818a1.9,1.9,0,0,1-.79-1.508V227.5c0-.583.356-.848.79-.6l73.509,42.438a1.9,1.9,0,0,1,.79,1.508v1.8C307.478,273.217,307.122,273.489,306.689,273.236Z" transform="translate(-216.214 -125.359)" fill="#e9eaf2"/>
      <path id="Path_996" data-name="Path 996" d="M306.689,283.786,233.18,241.348a1.9,1.9,0,0,1-.79-1.508v-1.806c0-.576.356-.848.79-.6l73.509,42.438a1.9,1.9,0,0,1,.79,1.508v1.806C307.478,283.773,307.122,284.039,306.689,283.786Z" transform="translate(-216.214 -129.073)" fill="#e9eaf2"/>
      <path id="Path_997" data-name="Path 997" d="M287.9,283.506,233.18,251.917a1.9,1.9,0,0,1-.79-1.508v-1.787c0-.583.356-.848.79-.6L287.9,279.609a1.942,1.942,0,0,1,.79,1.515v1.806C288.687,283.493,288.331,283.758,287.9,283.506Z" transform="translate(-216.214 -132.806)" fill="#e9eaf2"/>
      <path id="Path_998" data-name="Path 998" d="M408.124,282.494,373.94,262.758a1.877,1.877,0,0,1-.79-1.508v-1.806c0-.583.35-.848.79-.6l34.185,19.737a1.9,1.9,0,0,1,.79,1.508V281.9C408.914,282.481,408.558,282.747,408.124,282.494Z" transform="translate(-265.858 -136.623)" fill="#e9eaf2"/>
      <path id="Path_999" data-name="Path 999" d="M408.124,293.061,373.94,273.318a1.877,1.877,0,0,1-.79-1.508v-1.8c0-.583.35-.854.79-.6l34.185,19.769a1.884,1.884,0,0,1,.79,1.508v1.8C408.914,293.061,408.558,293.307,408.124,293.061Z" transform="translate(-265.858 -140.348)" fill="#e9eaf2"/>
      <path id="Path_1000" data-name="Path 1000" d="M399.165,298.47,373.92,283.9a1.877,1.877,0,0,1-.79-1.508v-1.767c0-.583.35-.848.79-.6l25.245,14.565a1.89,1.89,0,0,1,.79,1.508v1.806C399.955,298.457,399.586,298.748,399.165,298.47Z" transform="translate(-265.851 -144.093)" fill="#e9eaf2"/>
      <path id="Path_1001" data-name="Path 1001" d="M407.375,339.192l-32.605-18.824a3.787,3.787,0,0,1-1.579-3.017V296.308c0-1.159.706-1.7,1.579-1.191l32.605,18.824a3.787,3.787,0,0,1,1.554,3.042v21.044C408.928,339.16,408.223,339.7,407.375,339.192Z" transform="translate(-265.872 -149.382)" fill="#e9eaf2"/>
      <path id="Path_1002" data-name="Path 1002" d="M408.124,363.895,373.94,344.158a1.877,1.877,0,0,1-.79-1.508v-1.8c0-.583.35-.854.79-.6l34.185,19.737a1.942,1.942,0,0,1,.79,1.515v1.8C408.914,363.882,408.558,364.147,408.124,363.895Z" transform="translate(-265.858 -165.333)" fill="#e9eaf2"/>
      <ellipse id="Ellipse_34" data-name="Ellipse 34" cx="2.479" cy="4.298" rx="2.479" ry="4.298" transform="translate(10.503 23.348) rotate(-30)" fill="#dadce5"/>
      <path id="Path_1003" data-name="Path 1003" d="M334.926,171.1l-12-6.926a.951.951,0,0,1-.395-.757v-1.605c0-.291.175-.427.395-.3l12,6.926a.926.926,0,0,1,.395.751v1.592C335.321,171.093,335.133,171.229,334.926,171.1Z" transform="translate(-248.005 -102.311)" fill="#dadce5"/>
      <path id="Path_1004" data-name="Path 1004" d="M364.926,188.448l-12-6.913a.945.945,0,0,1-.395-.751v-1.592c0-.291.181-.427.395-.3l12,6.926a.952.952,0,0,1,.395.757v1.592C365.321,188.435,365.133,188.571,364.926,188.448Z" transform="translate(-258.586 -108.441)" fill="#dadce5"/>
      <path id="Path_1005" data-name="Path 1005" d="M394.446,205.475l-12-6.939a.926.926,0,0,1-.395-.751v-1.592c0-.291.175-.421.395-.3l12,6.926a.952.952,0,0,1,.395.757v1.592C394.841,205.469,394.666,205.6,394.446,205.475Z" transform="translate(-268.997 -114.438)" fill="#dadce5"/>
      <path id="Path_1006" data-name="Path 1006" d="M424.45,222.758l-11.995-6.926a.952.952,0,0,1-.395-.757v-1.592c0-.291.175-.421.395-.3l11.995,6.984a.926.926,0,0,1,.395.751v1.592C424.844,222.758,424.67,222.914,424.45,222.758Z" transform="translate(-279.581 -120.536)" fill="#dadce5"/>
      <path id="Path_1007" data-name="Path 1007" d="M386.764,243.662l-2.292-5.9-4.162,5.929,4.57,2.641,3.761,2.168,8.383,4.842L390.952,237.7Z" transform="translate(-268.383 -129.198)" fill="#61c1ef"/>
      <ellipse id="Ellipse_35" data-name="Ellipse 35" cx="2.241" cy="3.878" rx="2.241" ry="3.878" transform="translate(132.466 113.132) rotate(-29.887)" fill="#61c1ef"/>
      <path id="Path_1008" data-name="Path 1008" d="M387.124,326.262l-2.285-5.9-4.169,5.929,4.576,2.641,3.761,2.168,8.383,4.842L391.318,320.3Z" transform="translate(-268.51 -158.33)" fill="#61c1ef"/>
      <ellipse id="Ellipse_36" data-name="Ellipse 36" cx="2.233" cy="3.864" rx="2.233" ry="3.864" transform="translate(131.645 165.986) rotate(-30)" fill="#61c1ef"/>
    </g>
    <path id="Path_1009" data-name="Path 1009" d="M270.029,205.33,267,217.461V207.078Z" transform="translate(-94.167 -72.417)" fill="#232733"/>
    <path id="Path_1010" data-name="Path 1010" d="M215.519,173.56,212.49,185.7V175.314Z" transform="translate(-74.943 -61.212)" fill="#232733"/>
    <path id="Path_1011" data-name="Path 1011" d="M254.075,244.889l-72.124-41.642a3.385,3.385,0,0,1-1.411-2.706v-36.9c0-1.042.647-1.521,1.411-1.068l72.124,41.642a3.372,3.372,0,0,1,1.418,2.7v36.929C255.492,244.863,254.858,245.342,254.075,244.889Z" transform="translate(-63.674 -57.279)" fill="#e9eaf2"/>
    <path id="Path_1012" data-name="Path 1012" d="M207.72,217.445l-3.91-10.079-7.12,10.13,7.82,4.518,6.421,3.709L225.269,234,214.886,207.25Z" transform="translate(-69.37 -73.094)" fill="#61c1ef"/>
    <ellipse id="Ellipse_37" data-name="Ellipse 37" cx="3.813" cy="6.609" rx="3.813" ry="6.609" transform="translate(168.718 145.678) rotate(-30)" fill="#61c1ef"/>
    <path id="Path_1013" data-name="Path 1013" d="M260.432,192.295l-.006-13.84L256.5,175.51v16.785l-4.363,2.518,6.324,3.651,6.324-3.651Z" transform="translate(-88.927 -61.9)" fill="#353c4c"/>
    <path id="Path_1014" data-name="Path 1014" d="M261.91,209.933l3.295,8.48V208.03Z" transform="translate(-92.372 -73.37)" fill="#232733"/>
    <path id="Path_1015" data-name="Path 1015" d="M252.14,205.33l2.8,8.143,6.816,3.987-3.295-8.48Z" transform="translate(-88.927 -72.417)" fill="#2b303f"/>
    <path id="Path_1016" data-name="Path 1016" d="M205.916,160.531V143.74h-3.923v16.785l-4.363,2.518,6.324,3.657,6.324-3.657Z" transform="translate(-69.702 -50.695)" fill="#353c4c"/>
    <path id="Path_1017" data-name="Path 1017" d="M207.4,178.173l3.295,8.48V176.27Z" transform="translate(-73.147 -62.168)" fill="#232733"/>
    <path id="Path_1018" data-name="Path 1018" d="M197.63,173.56l2.8,8.143,6.816,3.994-3.295-8.48Z" transform="translate(-69.702 -61.212)" fill="#2b303f"/>
    <path id="Path_1019" data-name="Path 1019" d="M96.831,278.389,57.759,255.72,10.68,282.9,52.8,307.33,99.886,280.15v-3.521Z" transform="translate(-3.767 -90.189)" fill="#d6d8e5" opacity="0.4"/>
    <path id="Path_1020" data-name="Path 1020" d="M101.789,272.17l-44.03-25.42-44.03,25.42-3.049-1.761v3.521l47.079,27.187,47.079-27.187v-3.521Z" transform="translate(-3.767 -87.026)" fill="#b1b4c4"/>
    <path id="Path_1021" data-name="Path 1021" d="M57.759,295.671,10.68,268.491,57.759,241.31l47.079,27.181Z" transform="translate(-3.767 -85.107)" fill="#e7e9f2"/>
    <path id="Path_1022" data-name="Path 1022" d="M83.18,195.255l3.075-1.774V62.2L83.18,63.974Z" transform="translate(-29.337 -21.937)" fill="#b1b4c4"/>
    <path id="Path_1023" data-name="Path 1023" d="M83.56,146.822l21.5,34.023,3.075-1.256L86.389,145.23Z" transform="translate(-29.471 -51.221)" fill="#b1b4c4"/>
    <path id="Path_1024" data-name="Path 1024" d="M83.36,153.622l21.51,34.191v-6.4L83.36,147.35Z" transform="translate(-29.4 -51.968)" fill="#d6d8e5"/>
    <path id="Path_1025" data-name="Path 1025" d="M78.61,193.482l3.075,1.774V63.974L78.61,62.2Z" transform="translate(-27.725 -21.937)" fill="#d6d8e5"/>
    <path id="Path_1026" data-name="Path 1026" d="M116.59,215.412l3.075,1.774V85.9L116.59,84.13Z" transform="translate(-41.12 -29.672)" fill="#d6d8e5"/>
    <path id="Path_1027" data-name="Path 1027" d="M121.16,217.185l3.075-1.774V84.13L121.16,85.9Z" transform="translate(-42.732 -29.672)" fill="#b1b4c4"/>
    <path id="Path_1028" data-name="Path 1028" d="M83.36,235.732l21.51-25.757V203.8L83.36,229.6Z" transform="translate(-29.4 -71.878)" fill="#d6d8e5"/>
    <path id="Path_1029" data-name="Path 1029" d="M83.36,238.836l2.958-1.618,18.552-22.365V212.6Z" transform="translate(-29.4 -74.981)" fill="#b1b4c4"/>
    <path id="Path_1030" data-name="Path 1030" d="M83.36,130.292l21.51-25.757V98.36l-21.51,25.8Z" transform="translate(-29.4 -34.69)" fill="#d6d8e5"/>
    <path id="Path_1031" data-name="Path 1031" d="M83.36,133.4l2.958-1.625,18.552-22.358V107.16Z" transform="translate(-29.4 -37.794)" fill="#b1b4c4"/>
    <path id="Path_1032" data-name="Path 1032" d="M45.48,217.155l3.075-1.774V84.1L45.48,85.874Z" transform="translate(-16.04 -29.661)" fill="#b1b4c4"/>
    <path id="Path_1033" data-name="Path 1033" d="M45.86,168.722l21.5,34.016,3.075-1.249L48.689,167.13Z" transform="translate(-16.174 -58.945)" fill="#b1b4c4"/>
    <path id="Path_1034" data-name="Path 1034" d="M45.66,175.519,67.17,209.7v-6.389L45.66,169.24Z" transform="translate(-16.104 -59.689)" fill="#d6d8e5"/>
    <path id="Path_1035" data-name="Path 1035" d="M40.92,215.382l3.068,1.774V85.874L40.92,84.1Z" transform="translate(-14.432 -29.661)" fill="#d6d8e5"/>
    <path id="Path_1036" data-name="Path 1036" d="M78.89,237.3l3.075,1.774V107.8l-3.075-1.78Z" transform="translate(-27.823 -37.392)" fill="#d6d8e5"/>
    <path id="Path_1037" data-name="Path 1037" d="M83.46,239.075l3.075-1.774V106.02L83.46,107.8Z" transform="translate(-29.435 -37.392)" fill="#b1b4c4"/>
    <path id="Path_1038" data-name="Path 1038" d="M45.66,257.628l21.51-25.757V225.69l-21.51,25.8Z" transform="translate(-16.104 -79.598)" fill="#d6d8e5"/>
    <path id="Path_1039" data-name="Path 1039" d="M45.66,260.732l2.958-1.625L67.17,236.749V234.49Z" transform="translate(-16.104 -82.702)" fill="#b1b4c4"/>
    <path id="Path_1040" data-name="Path 1040" d="M45.66,152.188l21.51-25.757V120.25l-21.51,25.8Z" transform="translate(-16.104 -42.411)" fill="#d6d8e5"/>
    <path id="Path_1041" data-name="Path 1041" d="M45.66,155.292l2.958-1.625L67.17,131.3V129.05Z" transform="translate(-16.104 -45.514)" fill="#b1b4c4"/>
    <path id="Path_1042" data-name="Path 1042" d="M66.348,99.074,34.61,80.749,66.348,62.43,98.085,80.749Z" transform="translate(-12.207 -22.018)" fill="#f7dc6b"/>
    <path id="Path_1043" data-name="Path 1043" d="M53.62,34.521,15.991,56.244,5.22,50.024,42.848,28.3Z" transform="translate(-1.841 -9.981)" fill="#353c4c"/>
    <path id="Path_1044" data-name="Path 1044" d="M5.22,70.573V61.86l10.771,6.221v8.713Z" transform="translate(-1.841 -21.817)" fill="#2b303f"/>
    <path id="Path_1045" data-name="Path 1045" d="M21.86,68.347,59.488,46.623V37.91L21.86,59.634V67.5" transform="translate(-7.71 -13.37)" fill="#232733"/>
    <path id="Path_1046" data-name="Path 1046" d="M53.62,19.421,15.991,41.144,5.22,34.924,42.848,13.2Z" transform="translate(-1.841 -4.655)" fill="#353c4c"/>
    <path id="Path_1047" data-name="Path 1047" d="M5.22,55.479V46.76l10.771,6.221V61.7Z" transform="translate(-1.841 -16.492)" fill="#2b303f"/>
    <path id="Path_1048" data-name="Path 1048" d="M21.86,53.253,59.488,31.529V22.81L21.86,44.534v7.871" transform="translate(-7.71 -8.045)" fill="#232733"/>
    <path id="Path_1049" data-name="Path 1049" d="M23.336,54.6,0,41.211V36.33l23.336,13.3Z" transform="translate(0 -12.813)" fill="#d6d8e5"/>
    <path id="Path_1050" data-name="Path 1050" d="M57.1,67.683,0,35l4.227-2.44,57.1,32.683Z" transform="translate(0 -11.483)" fill="#e7e9f2"/>
    <path id="Path_1051" data-name="Path 1051" d="M59.737,40.727,30.42,23.767V18.88L59.737,34.59Z" transform="translate(-10.729 -6.659)" fill="#d6d8e5"/>
    <path id="Path_1052" data-name="Path 1052" d="M81.972,46.819,30.42,17.56l4.227-2.44L86.2,44.379Z" transform="translate(-10.729 -5.333)" fill="#e7e9f2"/>
    <path id="Path_1053" data-name="Path 1053" d="M54.55,32.8v4.881l2.007,14.053,2.978,1.851Z" transform="translate(-19.239 -11.568)" fill="#d6d8e5"/>
    <path id="Path_1054" data-name="Path 1054" d="M63.373,55.67l-3.858-20L54.55,32.8l3.01,19.711Z" transform="translate(-19.239 -11.568)" fill="#e7e9f2"/>
    <path id="Path_1055" data-name="Path 1055" d="M41.85,37.462l-15.4,4.059-7.91-4.57L41.177,32.18l.673.4Z" transform="translate(-6.539 -11.349)" fill="#b1b4c4"/>
    <path id="Path_1056" data-name="Path 1056" d="M40.354,31.312l-21.445,5.45L14.3,34.1,35.914,28.58Z" transform="translate(-5.043 -10.08)" fill="#e7e9f2"/>
    <path id="Path_1057" data-name="Path 1057" d="M66.348,36.651,34.61,18.325,66.348,0,98.085,18.325Z" transform="translate(-12.207)" fill="#e7e9f2"/>
    <path id="Path_1058" data-name="Path 1058" d="M34.61,84.9V28.31L66.348,46.635v56.588Z" transform="translate(-12.207 -9.985)" fill="#d6d8e5"/>
    <path id="Path_1059" data-name="Path 1059" d="M115.378,28.31V84.9L83.64,103.224V46.629Z" transform="translate(-29.499 -9.985)" fill="#b1b4c4"/>
    <path id="Path_1060" data-name="Path 1060" d="M70.52,71.181,52.3,60.663,46.44,42.02l24.08,13.9Z" transform="translate(-16.379 -14.82)" fill="#61c1ef"/>
    <path id="Path_1061" data-name="Path 1061" d="M115.378,35.19V50.447L83.64,68.779V53.522Z" transform="translate(-29.499 -12.411)" fill="#61c1ef"/>
    <path id="Path_1062" data-name="Path 1062" d="M227.447,173.41,90.12,94.121V89.24l137.327,79.289Z" transform="translate(-31.784 -31.474)" fill="#d6d8e5"/>
    <path id="Path_1063" data-name="Path 1063" d="M227.447,167.2,90.12,87.92l4.227-2.44,137.327,79.283Z" transform="translate(-31.784 -30.148)" fill="#e7e9f2"/>
    <path id="Path_1064" data-name="Path 1064" d="M257.867,155.97,120.54,76.681V71.8l137.327,79.289Z" transform="translate(-42.513 -25.323)" fill="#d6d8e5"/>
    <path id="Path_1065" data-name="Path 1065" d="M257.867,149.76,120.54,70.47l4.227-2.44,137.327,79.289Z" transform="translate(-42.513 -23.993)" fill="#e7e9f2"/>
    <path id="Path_1066" data-name="Path 1066" d="M326.188,195.421,302.27,209.137V204.25l23.918-13.71Z" transform="translate(-106.607 -67.201)" fill="#b1b4c4"/>
    <path id="Path_1067" data-name="Path 1067" d="M324.245,189.415,300.34,203.132l-3.58-2.065,23.905-13.717Z" transform="translate(-104.663 -66.076)" fill="#e7e9f2"/>
    <path id="Path_1068" data-name="Path 1068" d="M293.4,183.582l-15.406,4.059-7.91-4.57,22.637-4.771.68.4Z" transform="translate(-95.254 -62.884)" fill="#b1b4c4"/>
    <path id="Path_1069" data-name="Path 1069" d="M291.9,177.432l-21.445,5.45-4.609-2.667,21.607-5.515Z" transform="translate(-93.762 -61.614)" fill="#e7e9f2"/>
    <path id="Path_1070" data-name="Path 1070" d="M252.41,147.96v4.881l2.007,14.053,2.978,1.845Z" transform="translate(-89.022 -52.184)" fill="#d6d8e5"/>
    <path id="Path_1071" data-name="Path 1071" d="M261.233,170.83l-3.858-20-4.965-2.868,3.016,19.711Z" transform="translate(-89.022 -52.184)" fill="#e7e9f2"/>
    <path id="Path_1072" data-name="Path 1072" d="M239.71,152.622l-15.4,4.059-7.91-4.57,22.637-4.771.673.4Z" transform="translate(-76.322 -51.965)" fill="#b1b4c4"/>
    <path id="Path_1073" data-name="Path 1073" d="M238.218,146.472l-21.439,5.45-4.609-2.66,21.607-5.522Z" transform="translate(-74.83 -50.695)" fill="#e7e9f2"/>
    <path id="Path_1074" data-name="Path 1074" d="M198.54,116.83v4.881l2,14.053,2.984,1.851Z" transform="translate(-70.022 -41.204)" fill="#d6d8e5"/>
    <path id="Path_1075" data-name="Path 1075" d="M207.363,139.7l-3.858-20-4.965-2.868,3.01,19.711Z" transform="translate(-70.022 -41.204)" fill="#e7e9f2"/>
    <path id="Path_1076" data-name="Path 1076" d="M185.84,121.492l-15.4,4.059-7.91-4.57,22.637-4.771.673.4Z" transform="translate(-57.322 -40.986)" fill="#b1b4c4"/>
    <path id="Path_1077" data-name="Path 1077" d="M184.344,115.342l-21.445,5.45-4.609-2.66L179.9,112.61Z" transform="translate(-55.827 -39.716)" fill="#e7e9f2"/>
    <path id="Path_1078" data-name="Path 1078" d="M144.67,85.72V90.6l2,14.053,2.984,1.845Z" transform="translate(-51.023 -30.232)" fill="#d6d8e5"/>
    <path id="Path_1079" data-name="Path 1079" d="M153.486,108.59l-3.852-20L144.67,85.72l3.01,19.711Z" transform="translate(-51.023 -30.232)" fill="#e7e9f2"/>
    <path id="Path_1080" data-name="Path 1080" d="M131.97,90.382l-15.4,4.059-7.91-4.57L131.3,85.1l.673.4Z" transform="translate(-38.323 -30.014)" fill="#b1b4c4"/>
    <path id="Path_1081" data-name="Path 1081" d="M130.474,84.232l-21.445,5.45-4.609-2.66L126.027,81.5Z" transform="translate(-36.828 -28.744)" fill="#e7e9f2"/>
    <path id="Path_1082" data-name="Path 1082" d="M84.358,485.981,66.35,475.675,93.3,460.25l18.008,10.3Z" transform="translate(-23.401 -162.324)" fill="#d6d8e5" opacity="0.4"/>
    <path id="Path_1083" data-name="Path 1083" d="M86.624,458.525,71.71,449.909,86.624,441.3l14.914,8.616Z" transform="translate(-25.291 -155.641)" fill="#d6d8e5"/>
    <path id="Path_1084" data-name="Path 1084" d="M86.624,480.441,71.71,471.825V454.6l14.914,8.616Z" transform="translate(-25.291 -160.332)" fill="#b1b6c4"/>
    <path id="Path_1085" data-name="Path 1085" d="M109.664,471.825,94.75,480.441V463.216l14.914-8.616Z" transform="translate(-33.417 -160.332)" fill="#c4c7d6"/>
    <g id="Men_5" transform="translate(47.571 247.88)">
      <path id="Path_1086" data-name="Path 1086" d="M125.412,472.017a5.069,5.069,0,0,0,3.839-.466c.926,0,5.949-2.123,6.635-.317.6,1.586-1.579,3.049-2.745,3.327-2.537.647-4.415,1.884-5.431,2.1a2.579,2.579,0,0,1-2.35-.33C124.635,475.609,124.7,472.962,125.412,472.017Z" transform="translate(-91.603 -413.821)" fill="#2a2d79"/>
      <path id="Path_1087" data-name="Path 1087" d="M127.81,476.78c1.016-.214,2.893-1.476,5.431-2.091.977-.24,2.654-1.295,2.822-2.589.227,1.456-1.735,2.751-2.822,3.01-2.537.647-4.415,1.884-5.431,2.1a2.579,2.579,0,0,1-2.35-.33,1.585,1.585,0,0,1-.33-.608A3.036,3.036,0,0,0,127.81,476.78Z" transform="translate(-91.703 -414.383)" fill="#619fef"/>
      <path id="Path_1088" data-name="Path 1088" d="M111.414,464.567a5.082,5.082,0,0,0,3.845-.466c.926,0,5.949-2.123,6.628-.317.6,1.586-1.573,3.049-2.738,3.327-2.537.615-4.415,1.884-5.437,2.1a2.563,2.563,0,0,1-2.343-.33C110.643,468.159,110.7,465.512,111.414,464.567Z" transform="translate(-86.667 -411.193)" fill="#2a2d79"/>
      <path id="Path_1089" data-name="Path 1089" d="M113.81,469.33c1.023-.214,2.9-1.476,5.437-2.091.971-.24,2.654-1.295,2.822-2.589.227,1.456-1.741,2.751-2.822,3.01-2.537.615-4.415,1.884-5.437,2.1a2.563,2.563,0,0,1-2.343-.33,1.515,1.515,0,0,1-.337-.609,3.042,3.042,0,0,0,2.68.511Z" transform="translate(-86.765 -411.756)" fill="#619fef"/>
      <path id="Path_1090" data-name="Path 1090" d="M86.115,445.329c3.884,1.722,7.612,1.994,10.635.369l3.12-1.8c.188,4.026.362,7.9.362,7.9s2.4,1.813,4.259.194c0,0,.388-5.651.783-11.211l3.275-1.89a3.884,3.884,0,0,0-.129.906c0,1.062.757,16.765.757,16.765s2.414,1.437,4.279-.181c0,0,1.256-18.2,1.541-21.109.324-3.269-3.308-4.881-5.6-4.039-.537.188-1.851.68-3.515,1.295.071-.913.129-1.618.168-2.02.33-3.275-3.3-4.887-5.6-4.046-2.1.764-16.235,6.1-16.235,6.1a35.309,35.309,0,0,0,.5,4.046l-5.58-.466C78.8,441.361,82.206,443.607,86.115,445.329Zm9.755-9.062,3.735-2.155a4.342,4.342,0,0,0-.123.8Z" transform="translate(-75.474 -398.209)" fill="#61c1ef"/>
      <path id="Path_1091" data-name="Path 1091" d="M74.42,416.87s.46,6.946,1.372,7.949,3.994,1.683,3.994,1.683l2.369,3.884s-2.181-12.4-2.635-12.694A39.941,39.941,0,0,0,74.42,416.87Z" transform="translate(-73.818 -394.904)" fill="#ffcea9"/>
      <path id="_Контур_" data-name="&lt;Контур&gt;" d="M78.656,404.868a2.589,2.589,0,0,0-3.3,1c-.874,1.45-1.78,6.408-1.864,7.256a3.488,3.488,0,0,0,3.062,1.411Z" transform="translate(-73.49 -390.586)" fill="#ededed"/>
      <path id="_Контур_2" data-name="&lt;Контур&gt;" d="M82.393,397.734c1.2.058,2.1.369,2.246,0a15.444,15.444,0,0,0,.272-1.871c-.136-.35-.259-.725-.259-.725-1.5-.926-1.981-2.589-2.181-4.453-.337-3.237,1.418-6.085,4.661-6.421,3.049-.317,5.289,1.825,5.891,4.764.317,1.456.964,4.2.1,6.59-.485,1.333-1.113,2.4-1.735,2.589a15.036,15.036,0,0,1-1.806-.162h0s-.162.9-.272,1.476-.065.887,1.081,1.592-1.741,2.168-3.625,2.026-4.013-1.295-4.6-2.505C81.513,399.3,81.571,397.675,82.393,397.734Z" transform="translate(-76.393 -383.393)" fill="#ffcea9"/>
      <g id="_Группа_" data-name="&lt;Группа&gt;" transform="translate(12.487 16.072)">
        <g id="_Группа_2" data-name="&lt;Группа&gt;">
          <g id="_Группа_3" data-name="&lt;Группа&gt;" transform="translate(0 11.441)">
            <path id="_Контур_3" data-name="&lt;Контур&gt;" d="M116.7,436.714h0a.971.971,0,0,1-.485.848l-9.147,5.282a.977.977,0,0,1-.977,0l-12.83-7.405a.971.971,0,0,1-.485-.842v-.078Z" transform="translate(-92.78 -428.642)" fill="#e5e5e5"/>
            <path id="_Контур_4" data-name="&lt;Контур&gt;" d="M123.748,438.758,114.6,444.04a.965.965,0,0,1-.492.129V437.91h10.124a.971.971,0,0,1-.485.848Z" transform="translate(-100.303 -429.838)" fill="#e5e5e5"/>
            <g id="_Группа_4" data-name="&lt;Группа&gt;" transform="translate(0.011)">
              <path id="_Контур_5" data-name="&lt;Контур&gt;" d="M106.93,439.163a.686.686,0,0,1-.686,0l-13.315-7.7c-.175-.1-.175-.259,0-.356l9.813-5.67,13.982,8.072Z" transform="translate(-92.797 -425.44)" fill="#61c1ef"/>
            </g>
            <g id="_Группа_5" data-name="&lt;Группа&gt;" transform="translate(5.606 6.68)">
              <path id="_Контур_6" data-name="&lt;Контур&gt;" d="M101.44,437.152l.065.039,4.272,2.466,2.343-1.353.071-.039-4.343-2.505Z" transform="translate(-101.44 -435.76)" fill="#bfbfbf"/>
              <path id="_Контур_7" data-name="&lt;Контур&gt;" d="M101.54,437.233l4.272,2.466,2.343-1.353-4.272-2.466Z" transform="translate(-101.475 -435.802)" fill="#e5e5e5"/>
            </g>
            <path id="Path_1092" data-name="Path 1092" d="M124.123,438.27l.647.356a.226.226,0,0,0,.194,0l.589-.343c.058-.032.065-.084,0-.11l-.647-.356a.207.207,0,0,0-.194,0l-.589.337C124.084,438.192,124.077,438.238,124.123,438.27Z" transform="translate(-103.823 -429.797)" fill="#2a2d79"/>
            <path id="Path_1093" data-name="Path 1093" d="M122.78,437.49l.647.356a.207.207,0,0,0,.194,0l.589-.343c.058-.032.065-.084,0-.11l-.647-.356a.207.207,0,0,0-.194,0l-.589.343C122.735,437.412,122.728,437.464,122.78,437.49Z" transform="translate(-103.348 -429.522)" fill="#2a2d79"/>
            <path id="Path_1094" data-name="Path 1094" d="M121.432,436.741l.647.356a.207.207,0,0,0,.194,0l.589-.337c.058-.039.065-.084,0-.116l-.615-.356a.226.226,0,0,0-.194,0l-.589.343C121.386,436.644,121.38,436.7,121.432,436.741Z" transform="translate(-102.873 -429.258)" fill="#2a2d79"/>
            <path id="Path_1095" data-name="Path 1095" d="M120.074,435.94l.647.356a.246.246,0,0,0,.2,0l.589-.337c.058,0,.065-.084,0-.116l-.647-.356a.22.22,0,0,0-.2,0l-.589.337C120.009,435.856,120.009,435.908,120.074,435.94Z" transform="translate(-102.389 -428.975)" fill="#2a2d79"/>
            <path id="Path_1096" data-name="Path 1096" d="M118.733,435.163l.647.356a.207.207,0,0,0,.194,0l.589-.337c.058-.032.065-.084,0-.11l-.647-.356a.22.22,0,0,0-.2,0l-.583.337A.064.064,0,0,0,118.733,435.163Z" transform="translate(-101.922 -428.703)" fill="#3a2c6d"/>
            <path id="Path_1097" data-name="Path 1097" d="M117.39,434.38l.647.356a.226.226,0,0,0,.194,0l.589-.343c.058,0,.065-.084,0-.11l-.647-.356a.207.207,0,0,0-.194,0l-.589.337C117.345,434.3,117.338,434.348,117.39,434.38Z" transform="translate(-101.447 -428.425)" fill="#3a2c6d"/>
            <path id="Path_1098" data-name="Path 1098" d="M116.046,433.6l.647.356a.207.207,0,0,0,.194,0l.589-.343c.058-.032.065-.084,0-.11l-.615-.356a.207.207,0,0,0-.194,0l-.589.343C116.007,433.522,116.007,433.574,116.046,433.6Z" transform="translate(-100.976 -428.15)" fill="#3a2c6d"/>
            <path id="Path_1099" data-name="Path 1099" d="M114.69,432.821l.647.356a.22.22,0,0,0,.2,0l.589-.337c.058-.039.058-.084,0-.116l-.647-.356a.24.24,0,0,0-.2,0l-.589.343C114.645,432.769,114.638,432.769,114.69,432.821Z" transform="translate(-100.495 -427.876)" fill="#2a2d79"/>
            <path id="Path_1100" data-name="Path 1100" d="M113.343,432.05l.647.356a.233.233,0,0,0,.194,0l.589-.337c.058-.032.065-.084,0-.116l-.647-.356a.22.22,0,0,0-.2,0l-.583.337A.069.069,0,0,0,113.343,432.05Z" transform="translate(-100.021 -427.603)" fill="#2a2d79"/>
            <path id="Path_1101" data-name="Path 1101" d="M111.991,431.273l.647.356a.207.207,0,0,0,.194,0l.589-.337c.058-.032.065-.084,0-.11l-.647-.356a.207.207,0,0,0-.194,0l-.589.337C111.991,431.189,111.952,431.241,111.991,431.273Z" transform="translate(-99.549 -427.331)" fill="#2a2d79"/>
            <path id="Path_1102" data-name="Path 1102" d="M110.652,430.49l.647.356a.227.227,0,0,0,.194,0l.589-.343c.058-.032.065-.084,0-.11l-.615-.356a.207.207,0,0,0-.194,0l-.589.337C110.606,430.412,110.6,430.458,110.652,430.49Z" transform="translate(-99.071 -427.053)" fill="#2a2d79"/>
            <path id="Path_1103" data-name="Path 1103" d="M109.3,429.74l.647.356a.22.22,0,0,0,.2,0l.589-.343c.058-.032.058-.084,0-.11l-.647-.356a.22.22,0,0,0-.2,0l-.589.343C109.255,429.643,109.248,429.695,109.3,429.74Z" transform="translate(-98.594 -426.788)" fill="#2a2d79"/>
            <path id="Path_1104" data-name="Path 1104" d="M107.975,428.931l.647.356a.207.207,0,0,0,.194,0l.589-.337c.058-.039.065-.084,0-.116l-.647-.356a.239.239,0,0,0-.2,0l-.583.343C107.917,428.853,107.91,428.905,107.975,428.931Z" transform="translate(-98.123 -426.504)" fill="#2a2d79"/>
            <path id="Path_1105" data-name="Path 1105" d="M105.975,427.743l1.036.6a.227.227,0,0,0,.194,0l.589-.337c.058-.032.065-.084,0-.117l-1.036-.6a.207.207,0,0,0-.194,0l-.589.343C105.917,427.692,105.91,427.743,105.975,427.743Z" transform="translate(-97.417 -426.086)" fill="#2a2d79"/>
            <path id="Path_1106" data-name="Path 1106" d="M120.82,437.87l.647.356a.227.227,0,0,0,.194,0l.589-.343c.058-.032.065-.084,0-.11l-.647-.356a.207.207,0,0,0-.194,0l-.589.337A.065.065,0,0,0,120.82,437.87Z" transform="translate(-102.657 -429.656)" fill="#2a2d79"/>
            <path id="Path_1107" data-name="Path 1107" d="M119.47,437.09l.647.356a.239.239,0,0,0,.2,0l.583-.343c.058-.032.065-.084,0-.11l-.647-.356a.207.207,0,0,0-.194,0l-.589.343C119.425,437.012,119.418,437.064,119.47,437.09Z" transform="translate(-102.18 -429.38)" fill="#2a2d79"/>
            <path id="Path_1108" data-name="Path 1108" d="M118.12,436.31l.647.356a.22.22,0,0,0,.2,0l.583-.343c.058-.032.065-.084,0-.11l-.647-.356a.207.207,0,0,0-.194,0l-.589.343C118.075,436.232,118.068,436.284,118.12,436.31Z" transform="translate(-101.704 -429.105)" fill="#3a2c6d"/>
            <path id="Path_1109" data-name="Path 1109" d="M116.767,435.53l.615.356a.22.22,0,0,0,.2,0l.583-.343c.058-.032.065-.084,0-.11l-.647-.356a.207.207,0,0,0-.194,0l-.589.343A.08.08,0,0,0,116.767,435.53Z" transform="translate(-101.225 -428.83)" fill="#3a2c6d"/>
            <path id="Path_1110" data-name="Path 1110" d="M115.43,434.74l.647.356a.239.239,0,0,0,.2,0l.583-.343c.058,0,.065-.084,0-.11l-.647-.356a.207.207,0,0,0-.194,0l-.589.337C115.385,434.675,115.378,434.74,115.43,434.74Z" transform="translate(-100.756 -428.552)" fill="#3a2c6d"/>
            <path id="Path_1111" data-name="Path 1111" d="M114.074,433.98l.647.356a.239.239,0,0,0,.2,0l.583-.343c.058-.032.065-.084,0-.11l-.647-.356a.207.207,0,0,0-.194,0l-.589.337C114.009,433.9,114.009,433.948,114.074,433.98Z" transform="translate(-100.273 -428.284)" fill="#3a2c6d"/>
            <path id="Path_1112" data-name="Path 1112" d="M112.73,433.2l.647.356a.239.239,0,0,0,.2,0l.583-.343c.058-.032.065-.084,0-.11l-.647-.356a.207.207,0,0,0-.194,0l-.589.337C112.685,433.122,112.678,433.168,112.73,433.2Z" transform="translate(-99.803 -428.008)" fill="#2a2d79"/>
            <path id="Path_1113" data-name="Path 1113" d="M111.378,432.42l.615.356a.24.24,0,0,0,.2,0l.589-.343c.052-.032.058-.084,0-.11l-.647-.356a.207.207,0,0,0-.194,0l-.589.343A.073.073,0,0,0,111.378,432.42Z" transform="translate(-99.325 -427.733)" fill="#2a2d79"/>
            <path id="Path_1114" data-name="Path 1114" d="M110.038,431.64l.647.356a.22.22,0,0,0,.2,0l.589-.343c.052-.032.058-.084,0-.11l-.615-.356a.22.22,0,0,0-.2,0l-.589.343C110.006,431.562,110.006,431.614,110.038,431.64Z" transform="translate(-98.859 -427.458)" fill="#2a2d79"/>
            <path id="Path_1115" data-name="Path 1115" d="M108.68,430.861l.647.356a.22.22,0,0,0,.2,0l.589-.343c.058-.032.058-.084,0-.11l-.647-.356a.239.239,0,0,0-.2,0l-.589.343C108.635,430.783,108.628,430.835,108.68,430.861Z" transform="translate(-98.375 -427.184)" fill="#2a2d79"/>
            <path id="Path_1116" data-name="Path 1116" d="M107.33,430.081l.647.356a.22.22,0,0,0,.2,0l.589-.337c.058-.039.058-.091,0-.117l-.647-.356a.24.24,0,0,0-.2,0l-.589.343C107.285,430,107.278,430.055,107.33,430.081Z" transform="translate(-97.899 -426.909)" fill="#2a2d79"/>
            <path id="Path_1117" data-name="Path 1117" d="M105.98,429.3l.647.356a.22.22,0,0,0,.2,0l.589-.337c.058-.039.065-.084,0-.117l-.647-.356a.239.239,0,0,0-.2,0l-.589.343C105.935,429.223,105.928,429.275,105.98,429.3Z" transform="translate(-97.423 -426.634)" fill="#2a2d79"/>
            <path id="Path_1118" data-name="Path 1118" d="M122.17,438.65l1.036.6a.207.207,0,0,0,.194,0l.589-.337c.058-.039.065-.084,0-.116l-1.036-.6a.207.207,0,0,0-.194,0l-.589.337C122.125,438.572,122.118,438.618,122.17,438.65Z" transform="translate(-103.133 -429.931)" fill="#2a2d79"/>
            <path id="Path_1119" data-name="Path 1119" d="M104.984,428.073l.647.356a.052.052,0,0,1,0,.1l-.647.362a.22.22,0,0,1-.181,0l-.052-.032a.194.194,0,0,0-.168,0l-.647.382a.22.22,0,0,1-.181,0l-.395-.227c-.052-.032-.052-.078,0-.1l.647-.356.129-.071.091-.058.091-.052.531-.3A.181.181,0,0,1,104.984,428.073Z" transform="translate(-96.497 -426.364)" fill="#2a2d79"/>
            <path id="Path_1120" data-name="Path 1120" d="M118.9,441.281l.647.356a.207.207,0,0,0,.194,0l.589-.337c.058-.039.065-.084,0-.117l-.615-.356a.227.227,0,0,0-.194,0l-.589.343C118.856,441.2,118.85,441.255,118.9,441.281Z" transform="translate(-101.981 -430.859)" fill="#2a2d79"/>
            <path id="Path_1121" data-name="Path 1121" d="M117.55,440.513l.647.356a.22.22,0,0,0,.2,0l.583-.337c.058,0,.065-.084,0-.116l-.647-.35a.207.207,0,0,0-.194,0l-.589.337A.06.06,0,0,0,117.55,440.513Z" transform="translate(-101.503 -430.59)" fill="#2a2d79"/>
            <path id="Path_1122" data-name="Path 1122" d="M116.21,439.74l.647.356a.207.207,0,0,0,.194,0l.589-.343c.058-.032.065-.084,0-.11l-.647-.356a.207.207,0,0,0-.194,0l-.589.343C116.165,439.656,116.158,439.74,116.21,439.74Z" transform="translate(-101.031 -430.315)" fill="#2a2d79"/>
            <path id="Path_1123" data-name="Path 1123" d="M104.763,433.12l.647.356a.207.207,0,0,0,.194,0l.589-.337c.058,0,.065-.084,0-.117l-.647-.356a.22.22,0,0,0-.2,0l-.583.337C104.724,433.042,104.717,433.094,104.763,433.12Z" transform="translate(-96.995 -427.98)" fill="#3a2c6d"/>
            <path id="Path_1124" data-name="Path 1124" d="M103.42,432.35l.647.356a.239.239,0,0,0,.2,0l.583-.343c.058-.032.065-.084,0-.11l-.647-.356a.207.207,0,0,0-.194,0l-.589.337C103.375,432.272,103.368,432.318,103.42,432.35Z" transform="translate(-96.52 -427.709)" fill="#3a2c6d"/>
            <path id="Path_1125" data-name="Path 1125" d="M102.074,431.571l.647.356a.207.207,0,0,0,.194,0l.589-.337c.058-.039.065-.084,0-.117l-.647-.356a.227.227,0,0,0-.194,0l-.589.343C102.009,431.494,102.009,431.545,102.074,431.571Z" transform="translate(-96.041 -427.435)" fill="#3a2c6d"/>
            <path id="Path_1126" data-name="Path 1126" d="M100.733,430.8l.647.356a.207.207,0,0,0,.194,0l.589-.337c.058-.032.065-.084,0-.116l-.647-.35a.22.22,0,0,0-.2,0l-.583.337A.064.064,0,0,0,100.733,430.8Z" transform="translate(-95.574 -427.166)" fill="#3a2c6d"/>
            <path id="Path_1127" data-name="Path 1127" d="M114.52,438.736l.842.479a.207.207,0,0,0,.194,0l.589-.337c.058-.032.065-.084,0-.117l-.842-.485a.207.207,0,0,0-.194,0l-.589.337C114.475,438.665,114.468,438.736,114.52,438.736Z" transform="translate(-100.435 -429.959)" fill="#2a2d79"/>
            <path id="Path_1128" data-name="Path 1128" d="M106.11,433.9l.842.485a.226.226,0,0,0,.194,0l.589-.343c.058-.032.065-.084,0-.11l-.842-.486a.207.207,0,0,0-.194,0l-.589.343C106.065,433.8,106.058,433.874,106.11,433.9Z" transform="translate(-97.469 -428.255)" fill="#3a2c6d"/>
            <path id="Path_1129" data-name="Path 1129" d="M107.8,434.876l4.1,2.363a.227.227,0,0,0,.194,0l.589-.343c.058-.032.065-.084,0-.11l-4.1-2.369a.207.207,0,0,0-.194,0l-.589.337A.07.07,0,0,0,107.8,434.876Z" transform="translate(-98.065 -428.597)" fill="#3a2c6d"/>
            <path id="Path_1130" data-name="Path 1130" d="M119.152,438.411l.647.356a.207.207,0,0,0,.194,0l.589-.343c.058-.032.065-.084,0-.11l-.615-.356a.227.227,0,0,0-.194,0l-.589.343C119.106,438.334,119.1,438.385,119.152,438.411Z" transform="translate(-102.069 -429.847)" fill="#2a2d79"/>
            <path id="Path_1131" data-name="Path 1131" d="M117.8,437.63l.647.356a.22.22,0,0,0,.2,0l.583-.337c.058-.032.065-.084,0-.116l-.647-.356a.207.207,0,0,0-.194,0l-.589.337C117.755,437.552,117.748,437.6,117.8,437.63Z" transform="translate(-101.591 -429.571)" fill="#2a2d79"/>
            <path id="Path_1132" data-name="Path 1132" d="M116.46,436.863l.647.356a.207.207,0,0,0,.194,0l.589-.337c.058-.032.065-.084,0-.11l-.647-.356a.207.207,0,0,0-.194,0l-.589.337C116.415,436.786,116.408,436.831,116.46,436.863Z" transform="translate(-101.119 -429.303)" fill="#3a2c6d"/>
            <path id="Path_1133" data-name="Path 1133" d="M115.11,436.08l.647.356a.207.207,0,0,0,.194,0l.589-.343c.058-.032.065-.084,0-.11l-.647-.356a.207.207,0,0,0-.194,0l-.589.343C115.065,436,115.058,436.054,115.11,436.08Z" transform="translate(-100.643 -429.024)" fill="#3a2c6d"/>
            <path id="Path_1134" data-name="Path 1134" d="M113.762,435.3l.647.356a.207.207,0,0,0,.194,0l.589-.337c.058-.039.065-.084,0-.116l-.647-.356a.24.24,0,0,0-.2,0l-.589.343A.067.067,0,0,0,113.762,435.3Z" transform="translate(-100.169 -428.75)" fill="#3a2c6d"/>
            <path id="Path_1135" data-name="Path 1135" d="M112.42,434.531l.647.356a.207.207,0,0,0,.194,0l.589-.337c.058-.032.065-.084,0-.116l-.647-.356a.226.226,0,0,0-.194,0l-.589.337A.065.065,0,0,0,112.42,434.531Z" transform="translate(-99.694 -428.479)" fill="#3a2c6d"/>
            <path id="Path_1136" data-name="Path 1136" d="M111.066,433.74l.647.356a.239.239,0,0,0,.2,0l.583-.343c.058,0,.065-.084,0-.11l-.647-.356a.207.207,0,0,0-.194,0l-.589.337C111.008,433.669,111.008,433.74,111.066,433.74Z" transform="translate(-99.214 -428.199)" fill="#2a2d79"/>
            <path id="Path_1137" data-name="Path 1137" d="M109.73,432.971l.647.356a.207.207,0,0,0,.194,0l.589-.343c.058-.032.065-.084,0-.11l-.647-.356a.227.227,0,0,0-.194,0l-.589.343C109.685,432.894,109.678,432.945,109.73,432.971Z" transform="translate(-98.745 -427.929)" fill="#2a2d79"/>
            <path id="Path_1138" data-name="Path 1138" d="M108.377,432.19l.615.356a.207.207,0,0,0,.194,0l.589-.337c.058-.032.065-.084,0-.116l-.647-.356a.207.207,0,0,0-.194,0l-.589.337C108.332,432.112,108.326,432.164,108.377,432.19Z" transform="translate(-98.266 -427.652)" fill="#2a2d79"/>
            <path id="Path_1139" data-name="Path 1139" d="M107.038,431.423l.647.356a.22.22,0,0,0,.2,0l.589-.337c.058-.032.065-.084,0-.11l-.615-.356a.22.22,0,0,0-.2,0l-.589.337C107.006,431.339,107.006,431.391,107.038,431.423Z" transform="translate(-97.801 -427.384)" fill="#2a2d79"/>
            <path id="Path_1140" data-name="Path 1140" d="M105.69,430.64l.647.356a.207.207,0,0,0,.194,0l.589-.343c.058-.032.065-.084,0-.11l-.647-.356a.207.207,0,0,0-.194,0l-.589.343C105.645,430.562,105.638,430.614,105.69,430.64Z" transform="translate(-97.32 -427.106)" fill="#2a2d79"/>
            <path id="Path_1141" data-name="Path 1141" d="M104.34,429.861l.647.356a.22.22,0,0,0,.2,0l.583-.337c.058-.039.065-.084,0-.117l-.647-.356a.227.227,0,0,0-.194,0l-.589.343C104.295,429.784,104.288,429.835,104.34,429.861Z" transform="translate(-96.844 -426.832)" fill="#2a2d79"/>
            <path id="Path_1142" data-name="Path 1142" d="M120.493,439.193l1.295.738a.226.226,0,0,0,.194,0l.589-.337c.058-.032.065-.084,0-.116l-1.295-.731a.22.22,0,0,0-.2,0l-.583.337A.064.064,0,0,0,120.493,439.193Z" transform="translate(-102.543 -430.125)" fill="#2a2d79"/>
            <path id="Path_1143" data-name="Path 1143" d="M118.512,439.551l.647.356a.207.207,0,0,0,.194,0l.589-.343c.058-.032.065-.084,0-.11l-.615-.356a.226.226,0,0,0-.194,0l-.589.343C118.466,439.474,118.46,439.525,118.512,439.551Z" transform="translate(-101.843 -430.249)" fill="#2a2d79"/>
            <path id="Path_1144" data-name="Path 1144" d="M117.163,438.74l.647.356a.207.207,0,0,0,.194,0l.589-.337c.058-.032.065-.084,0-.116l-.647-.356a.22.22,0,0,0-.2,0l-.583.337C117.124,438.682,117.117,438.74,117.163,438.74Z" transform="translate(-101.368 -429.962)" fill="#2a2d79"/>
            <path id="Path_1145" data-name="Path 1145" d="M115.82,438l.647.356a.207.207,0,0,0,.194,0l.589-.337c.058,0,.065-.084,0-.11l-.647-.356a.207.207,0,0,0-.194,0l-.589.337A.06.06,0,0,0,115.82,438Z" transform="translate(-100.893 -429.705)" fill="#2a2d79"/>
            <path id="Path_1146" data-name="Path 1146" d="M114.47,437.22l.647.356a.22.22,0,0,0,.2,0l.589-.343c.052-.032.058-.084,0-.11l-.647-.356a.22.22,0,0,0-.2,0l-.589.343C114.425,437.142,114.418,437.194,114.47,437.22Z" transform="translate(-100.417 -429.426)" fill="#3a2c6d"/>
            <path id="Path_1147" data-name="Path 1147" d="M113.127,436.441l.615.356a.207.207,0,0,0,.194,0l.589-.337c.058-.039.065-.084,0-.117l-.647-.356a.226.226,0,0,0-.194,0l-.589.343A.08.08,0,0,0,113.127,436.441Z" transform="translate(-99.942 -429.152)" fill="#3a2c6d"/>
            <path id="Path_1148" data-name="Path 1148" d="M111.78,435.672l.647.356a.22.22,0,0,0,.2,0l.583-.337c.058-.032.065-.084,0-.116l-.647-.356a.233.233,0,0,0-.194,0l-.589.337A.065.065,0,0,0,111.78,435.672Z" transform="translate(-99.468 -428.881)" fill="#3a2c6d"/>
            <path id="Path_1149" data-name="Path 1149" d="M110.433,434.89l.647.356a.226.226,0,0,0,.194,0l.589-.343c.058-.032.065-.084,0-.11l-.647-.356a.22.22,0,0,0-.2,0l-.583.337A.069.069,0,0,0,110.433,434.89Z" transform="translate(-98.995 -428.605)" fill="#3a2c6d"/>
            <path id="Path_1150" data-name="Path 1150" d="M109.081,434.111l.647.356a.207.207,0,0,0,.194,0l.589-.337c.058-.039.065-.084,0-.117l-.647-.356a.227.227,0,0,0-.194,0l-.589.343C109.01,434.034,109.01,434.085,109.081,434.111Z" transform="translate(-98.51 -428.331)" fill="#2a2d79"/>
            <path id="Path_1151" data-name="Path 1151" d="M107.74,433.34l.615.356a.246.246,0,0,0,.2,0l.589-.337c.058-.032.065-.084,0-.117l-.647-.356a.22.22,0,0,0-.2,0l-.589.337A.106.106,0,0,0,107.74,433.34Z" transform="translate(-98.043 -428.058)" fill="#2a2d79"/>
            <path id="Path_1152" data-name="Path 1152" d="M106.4,432.56l.647.356a.226.226,0,0,0,.194,0l.589-.343c.058-.032.065-.084,0-.11l-.615-.356a.207.207,0,0,0-.194,0l-.589.337C106.356,432.482,106.35,432.528,106.4,432.56Z" transform="translate(-97.572 -427.783)" fill="#2a2d79"/>
            <path id="Path_1153" data-name="Path 1153" d="M105.051,431.741l.647.356a.22.22,0,0,0,.2,0l.583-.343c.058-.032.065-.084,0-.11l-.647-.356a.227.227,0,0,0-.194,0l-.589.343C105.006,431.689,105.006,431.741,105.051,431.741Z" transform="translate(-97.096 -427.495)" fill="#2a2d79"/>
            <path id="Path_1154" data-name="Path 1154" d="M102.044,430.041l1.7.977a.207.207,0,0,0,.194,0l.589-.337c.058,0,.065-.084,0-.117l-1.7-.977a.226.226,0,0,0-.194,0l-.589.343A.066.066,0,0,0,102.044,430.041Z" transform="translate(-96.037 -426.895)" fill="#3a2c6d"/>
            <path id="Path_1155" data-name="Path 1155" d="M119.86,440.33l.835.486a.239.239,0,0,0,.2,0l.583-.343c.058-.032.065-.084,0-.11l-.842-.486a.207.207,0,0,0-.194,0l-.589.337C119.814,440.252,119.808,440.3,119.86,440.33Z" transform="translate(-102.318 -430.523)" fill="#2a2d79"/>
          </g>
          <g id="_Группа_6" data-name="&lt;Группа&gt;" transform="translate(9.943)">
            <g id="_Группа_7" data-name="&lt;Группа&gt;">
              <g id="_Группа_8" data-name="&lt;Группа&gt;">
                <path id="_Контур_8" data-name="&lt;Контур&gt;" d="M122.122,427.282h0L108.14,419.21v-11l.11-.246.117-.058h0a.984.984,0,0,1,.964,0l12.791,7.392a.958.958,0,0,1,.485.835V426.44C122.517,426.984,122.42,427.113,122.122,427.282Z" transform="translate(-108.14 -407.768)" fill="#2a2d79"/>
                <path id="_Контур_9" data-name="&lt;Контур&gt;" d="M120.84,416.623l-12.7-8.059V408.2l.11-.246.117-.058a.984.984,0,0,1,.964,0l12.791,7.392a.932.932,0,0,1,.369.375Z" transform="translate(-108.14 -407.765)" fill="#2a2d79"/>
                <path id="_Контур_10" data-name="&lt;Контур&gt;" d="M108.464,408.053l13.425,7.768a.46.46,0,0,1,.233.4v11.16L108.14,419.31V408.241a.214.214,0,0,1,.324-.188Z" transform="translate(-108.14 -407.856)" fill="#2a2d79"/>
                <path id="_Контур_11" data-name="&lt;Контур&gt;" d="M108.464,408.053l13.425,7.768a.46.46,0,0,1,.233.4v11.16L108.14,419.31V408.241a.214.214,0,0,1,.324-.188Z" transform="translate(-108.14 -407.856)" fill="#2a2d79"/>
                <path id="_Контур_12" data-name="&lt;Контур&gt;" d="M122.122,433.293V432.9L108.14,424.82v.4Z" transform="translate(-108.14 -413.78)" fill="#2a2d79"/>
              </g>
              <path id="_Контур_13" data-name="&lt;Контур&gt;" d="M108.7,419.045V408.96l.175.1v9.9Z" transform="translate(-108.337 -408.186)" fill="#2a2d79"/>
              <path id="_Контур_14" data-name="&lt;Контур&gt;" d="M108.97,409.11v9.9l13,7.489v-9.878Z" transform="translate(-108.433 -408.239)" fill="#2a2d79"/>
              <path id="_Контур_15" data-name="&lt;Контур&gt;" d="M108.7,424.491l13.173,7.6v-.2l-13-7.489Z" transform="translate(-108.337 -413.632)" fill="#2a2d79"/>
            </g>
          </g>
        </g>
      </g>
      <path id="_Контур_16" data-name="&lt;Контур&gt;" d="M82.023,405.217c-.33.829.518,1.838,2.77,2.55s2.46-.2,2.46-.2a44.805,44.805,0,0,1,4.382,2.253c1.353.952,1.942,3.683,2.13,8.305.214,5.347.233,13.283.052,14.649a8.16,8.16,0,0,1-5.761,2.259c-3.237-.265-8.68-3.133-10-5.34,0-4.693.583-5.457-.175-8.156-1.741-6.182-2.654-8.713-1.812-12.823.7-3.385,1.677-3.806,3.01-3.774a27.527,27.527,0,0,1,2.945.278Z" transform="translate(-74.287 -390.696)" fill="#f4f4f4"/>
      <path id="_Контур_17" data-name="&lt;Контур&gt;" d="M106.249,426.623c-2.66.647-3.282-1-3.631-2.4-.842-3.353-1.295-6.389-1.942-8.292-.744-2.246-1.521-2.589-2.589-3.042-1.295-.511-2.389.57-1.942,3.431a57.014,57.014,0,0,0,2.434,9.761,8.646,8.646,0,0,0,2.181,3.8c1.372,1.107,3.431,1.062,6.557.285a37.094,37.094,0,0,0,5.308-2.3c.647-.311,1.2-.524,2.5-1.126a8.772,8.772,0,0,0,3.334-2.589c.68-.984.77-1.443.647-1.67s-.479-.22-.842.194a7.12,7.12,0,0,1-1.942,1.767s.842-.861,1.295-1.424a6.8,6.8,0,0,0,1-1.644c.246-.576-.252-1.353-.647-.945s-.557.829-1.243,1.651a6.863,6.863,0,0,1-1.23,1.172,13.251,13.251,0,0,0,1.133-1.825,2.952,2.952,0,0,0,.414-1.644c0-.3-.44-.647-.842-.091a10.712,10.712,0,0,1-1.424,2.181c-.608.647-1.12.99-1.139.816s.369-.518.583-1.249,0-1.515-.4-1.6-.33-.058-.647.647a19.346,19.346,0,0,0-1.2,2.194,4.531,4.531,0,0,1-1.094,1.877A10.412,10.412,0,0,1,106.249,426.623Z" transform="translate(-81.444 -393.459)" fill="#ffcea9"/>
      <path id="_Контур_18" data-name="&lt;Контур&gt;" d="M96.642,412.225c1.774-.259,3.023.537,3.806,3.237s1.333,4.894,1.333,4.894a4.842,4.842,0,0,1-2.971,1.942c-2.123.511-2.887-.5-2.887-.5s-.589-2.822-.952-4.738S94.448,412.548,96.642,412.225Z" transform="translate(-80.99 -393.25)" fill="#ededed"/>
      <path id="Path_1156" data-name="Path 1156" d="M93.119,388.156s2.8-4.259-3.237-5.127c-4.382-.647-7.192,2.188-7.522,5.237a9.584,9.584,0,0,0,2.783,7.153,5.341,5.341,0,0,0,3.787-.46,21.358,21.358,0,0,0,.084-2.389S86.86,388.078,93.119,388.156Z" transform="translate(-76.606 -382.936)" fill="#2a2d79"/>
    </g>
    <path id="Path_1157" data-name="Path 1157" d="M112.256,467.291V454.5L102.1,460.429l3.91,8.091Z" transform="translate(-36.009 -160.296)" fill="#c4c7d6"/>
    <path id="Path_1158" data-name="Path 1158" d="M107.51,454.406l3.9-2.266,2.758,1.6-4.039,2.292Z" transform="translate(-37.917 -159.464)" fill="#d6d8e5"/>
    <path id="Path_1159" data-name="Path 1159" d="M21.6,334.236,4.282,324.079c-1.942-1.152-1.722-3.165.55-4.492l8.8-5.179c2.272-1.295,5.7-1.469,7.671-.317l17.342,10.156c1.942,1.146,1.715,3.159-.55,4.492l-8.8,5.178C27,335.246,23.559,335.388,21.6,334.236Z" transform="translate(-1.045 -110.505)" fill="#d6d8e5" opacity="0.4"/>
    <path id="Path_1160" data-name="Path 1160" d="M44.819,314.479V289.927L7.78,285.7v24.708h0a2.272,2.272,0,0,0,1.295,2.013l17.361,10.156c1.942,1.152,5.405,1.01,7.671-.324l8.8-5.178c1.295-.751,1.942-1.715,1.877-2.589Z" transform="translate(-2.744 -100.763)" fill="#d6d8e5"/>
    <path id="Path_1161" data-name="Path 1161" d="M44.78,289.436v-2.68H41.932l-15.807-9.27c-1.942-1.152-5.405-1-7.671.324l-8.8,5.178a4.682,4.682,0,0,0-.46.3L7.78,282.53v2.926h0a2.285,2.285,0,0,0,1.295,2.007l17.361,10.15c1.942,1.152,5.405,1,7.671-.324l8.8-5.178c1.295-.77,1.942-1.767,1.871-2.7Z" transform="translate(-2.744 -97.592)" fill="#edf0f9"/>
    <path id="Path_1162" data-name="Path 1162" d="M26.437,293.1,9.1,282.947c-1.942-1.152-1.722-3.165.55-4.492l8.8-5.178c2.266-1.295,5.7-1.476,7.671-.324l17.342,10.156c1.942,1.152,1.715,3.165-.557,4.492l-8.8,5.179C31.874,294.107,28.4,294.256,26.437,293.1Z" transform="translate(-2.745 -95.997)" fill="#e2e5f2"/>
    <path id="Path_1163" data-name="Path 1163" d="M27.685,282.235v-.977H27.1l-.188-.116a4.078,4.078,0,0,0-3.748,0,1.9,1.9,0,0,0-.311.22l-.46-.1v.977a1.3,1.3,0,0,0,.77,1.1,4.117,4.117,0,0,0,3.748,0A1.346,1.346,0,0,0,27.685,282.235Z" transform="translate(-7.897 -98.994)" fill="#619fef"/>
    <ellipse id="Ellipse_38" data-name="Ellipse 38" cx="2.648" cy="1.554" rx="2.648" ry="1.554" transform="translate(14.493 180.71)" fill="#61c1ef"/>
    <path id="Path_1164" data-name="Path 1164" d="M37.565,287.925v-.977h-.589l-.181-.116a4.078,4.078,0,0,0-3.748,0,1.708,1.708,0,0,0-.317.22l-.46-.1v.977a1.346,1.346,0,0,0,.777,1.1,4.117,4.117,0,0,0,3.748,0A1.3,1.3,0,0,0,37.565,287.925Z" transform="translate(-11.381 -101.001)" fill="#619fef"/>
    <ellipse id="Ellipse_39" data-name="Ellipse 39" cx="2.648" cy="1.554" rx="2.648" ry="1.554" transform="translate(20.889 184.394)" fill="#61c1ef"/>
    <path id="Path_1165" data-name="Path 1165" d="M47.461,294.005v-.977h-.6l-.181-.116a4.078,4.078,0,0,0-3.748,0,2.089,2.089,0,0,0-.317.22l-.46-.1v.977a1.333,1.333,0,0,0,.777,1.1,4.078,4.078,0,0,0,3.748,0A1.333,1.333,0,0,0,47.461,294.005Z" transform="translate(-14.869 -103.145)" fill="#619fef"/>
    <ellipse id="Ellipse_40" data-name="Ellipse 40" cx="2.648" cy="1.554" rx="2.648" ry="1.554" transform="translate(27.291 188.329)" fill="#61c1ef"/>
  </g>
</svg>
