<svg xmlns="http://www.w3.org/2000/svg" xmlns:xlink="http://www.w3.org/1999/xlink" width="312" height="318.857" viewBox="0 0 312 318.857">
  <defs>
    <linearGradient id="linear-gradient" x1="0.5" x2="0.5" y2="1" gradientUnits="objectBoundingBox">
      <stop offset="0" stop-color="#f8def0"/>
      <stop offset="1" stop-color="#cf83c8"/>
    </linearGradient>
  </defs>
  <g id="Слой_2" data-name="Слой 2" transform="translate(0 0.004)">
    <g id="Слой_1" data-name="Слой 1" transform="translate(0 -0.004)">
      <ellipse id="Ellipse_59" data-name="Ellipse 59" cx="45.869" cy="26.483" rx="45.869" ry="26.483" transform="translate(0 178.866)" fill="#d6d8e5" opacity="0.15"/>
      <ellipse id="Ellipse_60" data-name="Ellipse 60" cx="25.584" cy="14.769" rx="25.584" ry="14.769" transform="translate(19.755 187.749)" fill="#edeff9" opacity="0.5"/>
      <ellipse id="Ellipse_61" data-name="Ellipse 61" cx="7.295" cy="4.215" rx="7.295" ry="4.215" transform="translate(37.802 193.061)" fill="#edeff9"/>
      <rect id="Rectangle_62" data-name="Rectangle 62" width="14.029" height="55.134" transform="translate(38.325 141.396)" fill="#edeff9"/>
      <path id="Path_1580" data-name="Path 1580" d="M59.05,216.654s.383,11.338,8.449,31.674c0,0,7.512-16.376,8.29-32.018S59.05,216.654,59.05,216.654Z" transform="translate(-21.395 -75.883)" fill="url(#linear-gradient)"/>
      <path id="Path_1581" data-name="Path 1581" d="M31.734,153.81,13.069,171.971,10.85,195.687l22.574-11.319,4.107-28.925Z" transform="translate(-3.931 -55.725)" fill="#61c1ef"/>
      <path id="Path_1582" data-name="Path 1582" d="M97.707,153.81l18.659,18.161,2.226,23.715-22.657-12.1L91.91,155.442Z" transform="translate(-33.3 -55.725)" fill="#61c1ef"/>
      <ellipse id="Ellipse_62" data-name="Ellipse 62" cx="9.278" cy="5.357" rx="9.278" ry="5.357" transform="translate(36.59 132.921)" fill="#424956"/>
      <path id="Path_1583" data-name="Path 1583" d="M49.87,205.7V200.88h28.1v5Z" transform="translate(-18.069 -72.78)" fill="#494949"/>
      <ellipse id="Ellipse_63" data-name="Ellipse 63" cx="14.067" cy="8.124" rx="14.067" ry="8.124" transform="translate(31.801 124.791)" fill="#2b303f"/>
      <ellipse id="Ellipse_64" data-name="Ellipse 64" cx="17.166" cy="9.91" rx="17.166" ry="9.91" transform="translate(28.658 115.691)" fill="#edeff9"/>
      <path id="Path_1584" data-name="Path 1584" d="M80.026,123.672h0v4.253c0,.861-.045,1.683-.077,2.487,0,1-.07,1.951-.121,2.863s-.1,1.8-.159,2.627c-.261,3.6-.255,6.256-.7,7.3-2.43,5.682-10.649,2.551-14.705.51-1.5-.752-2.487-1.371-2.487-1.371h-.37a29.558,29.558,0,0,1-2.908,1.326c-4.253,1.722-11.835,4.776-13.94-.485a38.094,38.094,0,0,1-.982-7.327c-.057-.816-.108-1.69-.159-2.621s-.077-1.856-.115-2.857c0-.8-.045-1.62-.064-2.474v-1.913h0v-2.34h0c-.115-22.249,2.245-57.825,10.037-73.009,2.251-4.394,4.955-7.078,8.188-7.238h.37c3.188.166,5.924,2.838,8.181,7.212C77.7,65.738,80.166,101.174,80.026,123.672Z" transform="translate(-15.664 -15.722)" fill="#edeff9"/>
      <circle id="Ellipse_65" data-name="Ellipse 65" cx="6.485" cy="6.485" r="6.485" transform="translate(39.428 73.999)" fill="#2b303f"/>
      <path id="Path_1585" data-name="Path 1585" d="M67.775,129.421a7.435,7.435,0,1,1,7.435-7.435A7.435,7.435,0,0,1,67.775,129.421Zm0-12.971a5.535,5.535,0,1,0,5.529,5.535A5.535,5.535,0,0,0,67.775,116.45Z" transform="translate(-21.862 -41.501)" fill="#424956"/>
      <circle id="Ellipse_66" data-name="Ellipse 66" cx="6.485" cy="6.485" r="6.485" transform="translate(39.428 54.932)" fill="#2b303f"/>
      <path id="Path_1586" data-name="Path 1586" d="M67.768,99.544A7.442,7.442,0,1,1,75.2,92.089,7.442,7.442,0,0,1,67.768,99.544Zm0-12.971a5.535,5.535,0,1,0,0-.013Z" transform="translate(-21.855 -30.671)" fill="#424956"/>
      <path id="Path_1587" data-name="Path 1587" d="M79.992,189.39v2.347c-.638,2.1-2.372,4.119-5.191,5.739-7.308,4.215-19.131,4.215-26.47,0-2.819-1.632-4.547-3.654-5.191-5.739h0V189.4c.638,2.143,2.359,4.183,5.216,5.835,7.314,4.215,19.162,4.215,26.47,0C77.626,193.56,79.4,191.526,79.992,189.39Z" transform="translate(-15.63 -68.617)" fill="#61c1ef"/>
      <path id="Path_1588" data-name="Path 1588" d="M79.924,195.2c0,.855-.045,1.684-.077,2.481a10.811,10.811,0,0,1-5.1,5.427c-7.308,4.221-19.131,4.221-26.47,0a10.927,10.927,0,0,1-5.1-5.465c0-.8-.045-1.62-.064-2.468.638,2.079,2.379,4.056,5.159,5.663,7.314,4.221,19.162,4.221,26.47,0C77.532,199.232,79.254,197.262,79.924,195.2Z" transform="translate(-15.619 -70.711)" fill="#61c1ef"/>
      <path id="Path_1589" data-name="Path 1589" d="M79.842,184.851a11.077,11.077,0,0,1-4.961,5.1c-7.308,4.215-19.131,4.215-26.47,0a11.144,11.144,0,0,1-4.98-5.152c.051.931.1,1.8.159,2.621a11.4,11.4,0,0,0,4.821,4.8,25.36,25.36,0,0,0,10.1,3.01,32.228,32.228,0,0,0,5.739.045,25.6,25.6,0,0,0,10.6-3.054,11.44,11.44,0,0,0,4.8-4.751Z" transform="translate(-15.735 -66.954)" fill="#61c1ef"/>
      <path id="Path_1590" data-name="Path 1590" d="M75.539,50.618a28.524,28.524,0,0,1-16.739,0c2.251-4.394,4.955-7.078,8.188-7.238h.37C70.578,43.571,73.282,46.243,75.539,50.618Z" transform="translate(-21.304 -15.715)" fill="#61c1ef"/>
      <rect id="Rectangle_63" data-name="Rectangle 63" width="3.182" height="41.775" transform="translate(44.51 98.136)" fill="#61c1ef"/>
      <g id="monitor" transform="translate(118.169)">
        <path id="Path_1591" data-name="Path 1591" d="M289.361,358.771l-36.986-21.356c-2.672-1.543-2.334-4.234.746-6.013l23.964-13.831L323.732,344.5l-23.964,13.838C296.682,360.116,292.027,360.308,289.361,358.771Z" transform="translate(-208.956 -115.058)" fill="#d6d8e5" opacity="0.4"/>
        <path id="Path_1592" data-name="Path 1592" d="M293.593,356.281l-36.986-21.362c-2.666-1.537-2.334-4.228.746-6.007l23.971-13.831,46.647,26.929-23.939,13.831C300.92,357.626,296.258,357.818,293.593,356.281Z" transform="translate(-210.49 -114.156)" fill="#b1b4c4"/>
        <path id="Path_1593" data-name="Path 1593" d="M368.305,356.509V355.1l-2.155,1.243Z" transform="translate(-250.831 -128.656)" fill="#b1b4c4"/>
        <path id="Path_1594" data-name="Path 1594" d="M254.8,341.385V339.95l2.213.918Z" transform="translate(-210.487 -123.167)" fill="#b1b4c4"/>
        <path id="Path_1595" data-name="Path 1595" d="M293.593,354.061,256.607,332.7c-2.666-1.543-2.334-4.228.746-6.007l23.971-13.838L327.97,339.8l-23.939,13.831C300.92,355.406,296.258,355.6,293.593,354.061Z" transform="translate(-210.49 -113.352)" fill="#d6d8e5"/>
        <path id="Path_1596" data-name="Path 1596" d="M293.291,302.076,287.52,282.92l47.157,27.051,5.14,18.977Z" transform="translate(-222.342 -102.504)" fill="#9ea1af"/>
        <path id="Path_1597" data-name="Path 1597" d="M367.01,354.96l1.365-.784-2.034-1.626Z" transform="translate(-250.9 -127.732)" fill="#9ea1af"/>
        <path id="Path_1598" data-name="Path 1598" d="M290.961,303.206,285.19,284.05,332.347,311.1l5.255,19.041Z" transform="translate(-221.498 -102.913)" fill="#b1b4c4"/>
        <path id="Path_1599" data-name="Path 1599" d="M375.639,259.536,193.076,154.121c-2.551-1.479-4.636-5.446-4.636-8.857V4.061c0-3.418,2.079-4.987,4.636-3.507l182.563,105.39c2.551,1.479,4.636,5.446,4.636,8.857V256C380.256,259.415,378.189,260.984,375.639,259.536Z" transform="translate(-186.444 0.004)" fill="#c4c7d6"/>
        <path id="Path_1600" data-name="Path 1600" d="M483.44,405.171,485.461,404l-.874-5.994Z" transform="translate(-293.327 -144.203)" fill="#c4c7d6"/>
        <path id="Path_1601" data-name="Path 1601" d="M187.93,1.584,189.92.43l2.863,1.639s-3.048.466-3.125.446S187.93,1.584,187.93,1.584Z" transform="translate(-186.259 -0.154)" fill="#b1b4c4"/>
        <path id="Path_1602" data-name="Path 1602" d="M372.993,261.024,190.456,155.634c-2.551-1.479-4.636-5.439-4.636-8.857V5.574c0-3.412,2.072-4.98,4.636-3.5l182.537,105.39c2.551,1.479,4.636,5.446,4.636,8.857V257.536C377.629,260.935,375.557,262.5,372.993,261.024Z" transform="translate(-185.495 -0.547)" fill="#e4e7f2"/>
        <path id="Path_1603" data-name="Path 1603" d="M372.49,261.314,189.946,155.924c-2.551-1.479-4.636-5.446-4.636-8.857V5.864c0-3.412,2.079-4.98,4.636-3.5L372.49,107.785c2.551,1.473,4.636,5.439,4.636,8.857V257.807C377.126,261.225,375.047,262.794,372.49,261.314Z" transform="translate(-185.31 -0.652)" fill="#d6d8e5"/>
        <path id="Path_1604" data-name="Path 1604" d="M375.95,254.454,189,146.5l.064-138.339c0-1.416.995-1.99,2.219-1.275L373.827,112.269a4.91,4.91,0,0,1,2.219,3.826Z" transform="translate(-186.647 -2.381)" fill="#fff"/>
        <path id="Path_1605" data-name="Path 1605" d="M270.177,78.623,210.286,44.048a2.181,2.181,0,0,1-.906-1.741V38.13c0-.638.4-.976.906-.689l59.891,34.575a2.2,2.2,0,0,1,.906,1.741v4.177C271.082,78.6,270.674,78.916,270.177,78.623Z" transform="translate(-194.031 -13.526)" fill="#e9eaf2"/>
        <path id="Path_1606" data-name="Path 1606" d="M254.948,86.521,210.712,60.982a2.168,2.168,0,0,1-.912-1.735V57.169c0-.638.408-.982.912-.689l44.236,25.539a2.175,2.175,0,0,1,.893,1.735v2.079C255.841,86.5,255.445,86.815,254.948,86.521Z" transform="translate(-194.183 -20.423)" fill="#e9eaf2"/>
        <path id="Path_1607" data-name="Path 1607" d="M254.948,98.882,210.712,73.375a2.168,2.168,0,0,1-.912-1.735V69.549c0-.638.408-.982.912-.689l44.236,25.558a2.174,2.174,0,0,1,.906,1.735v2.079C255.841,98.882,255.445,99.182,254.948,98.882Z" transform="translate(-194.183 -24.908)" fill="#e9eaf2"/>
        <path id="Path_1608" data-name="Path 1608" d="M246.6,106.427,210.712,85.7a2.168,2.168,0,0,1-.912-1.734V81.889c0-.638.408-.982.912-.689L246.6,101.918a2.187,2.187,0,0,1,.912,1.741v2.079C247.513,106.408,247.1,106.714,246.6,106.427Z" transform="translate(-194.183 -29.379)" fill="#61c1ef"/>
        <path id="Path_1609" data-name="Path 1609" d="M270.177,208.381l-59.891-34.575a2.181,2.181,0,0,1-.906-1.741v-4.177c0-.67.4-.976.906-.689l59.891,34.575a2.2,2.2,0,0,1,.906,1.741v4.177C271.082,208.361,270.674,208.667,270.177,208.381Z" transform="translate(-194.031 -60.537)" fill="#e9eaf2"/>
        <path id="Path_1610" data-name="Path 1610" d="M254.948,216.3l-44.236-25.507a2.187,2.187,0,0,1-.912-1.741v-2.079c0-.67.408-.976.912-.682l44.236,25.507a2.2,2.2,0,0,1,.906,1.741v2.079C255.841,216.277,255.445,216.583,254.948,216.3Z" transform="translate(-194.183 -67.452)" fill="#e9eaf2"/>
        <path id="Path_1611" data-name="Path 1611" d="M254.948,228.644,210.712,203.1a2.181,2.181,0,0,1-.912-1.735v-2.079c0-.638.408-.976.912-.682l44.236,25.507a2.2,2.2,0,0,1,.906,1.741v2.079C255.841,228.625,255.445,228.931,254.948,228.644Z" transform="translate(-194.183 -71.918)" fill="#e9eaf2"/>
        <path id="Path_1612" data-name="Path 1612" d="M246.6,236.177l-35.889-20.718a2.181,2.181,0,0,1-.912-1.741v-2.079c0-.67.408-.976.912-.682L246.6,231.675a2.187,2.187,0,0,1,.912,1.741v2.079C247.513,236.164,247.1,236.451,246.6,236.177Z" transform="translate(-194.183 -76.39)" fill="#61c1ef"/>
        <path id="Path_1613" data-name="Path 1613" d="M329.48,245s6.606,5.548,16.146-2.028c6.81-5.586,12.9-2.4,16.293-.485s8.29,3.086,17.619,19.934a25.055,25.055,0,0,0,8.048,8.175c5.012,2.9,7.423,1.479,11.364-4.464s6.523-12.524,13.768-8.226v59.745L328.83,269.274V244.615Z" transform="translate(-237.309 -86.894)" fill="#f5f6ff"/>
        <path id="Path_1614" data-name="Path 1614" d="M268.134,169.126l-57.392-33.16a2.187,2.187,0,0,1-.912-1.741V101.11c0-.638.408-.976.912-.689l57.392,33.16a2.187,2.187,0,0,1,.912,1.741V168.45C269.045,169.106,268.637,169.412,268.134,169.126Z" transform="translate(-194.194 -36.345)" fill="#e9eaf2"/>
        <path id="Path_1615" data-name="Path 1615" d="M328.83,245.76v25.648l83.887,48.426V260.089" transform="translate(-237.309 -89.04)" fill="none" stroke="#e9eaf2" stroke-miterlimit="10" stroke-width="0.31"/>
        <line id="Line_27" data-name="Line 27" y2="45.441" transform="translate(124.489 155.897)" fill="none" stroke="#e9eaf2" stroke-miterlimit="10" stroke-width="0.31"/>
        <line id="Line_28" data-name="Line 28" y2="31.514" transform="translate(150.156 184.637)" fill="none" stroke="#e9eaf2" stroke-miterlimit="10" stroke-width="0.31"/>
        <path id="Path_1616" data-name="Path 1616" d="M328.83,244.633c14.884,9.227,16.988-11.631,33.2-2.27s13.978,21.56,25.947,28.473,12.25-20.087,24.736-12.875" transform="translate(-237.309 -86.912)" fill="none" stroke="#e9eaf2" stroke-miterlimit="10" stroke-width="1.53"/>
        <ellipse id="Ellipse_67" data-name="Ellipse 67" cx="1.613" cy="2.799" rx="1.613" ry="2.799" transform="translate(121.689 154.288) rotate(-30)" fill="#61c1ef"/>
        <ellipse id="Ellipse_68" data-name="Ellipse 68" cx="1.619" cy="2.809" rx="1.619" ry="2.809" transform="translate(173.775 170.108) rotate(-29.887)" fill="#61c1ef"/>
        <ellipse id="Ellipse_69" data-name="Ellipse 69" cx="1.619" cy="2.809" rx="1.619" ry="2.809" transform="translate(148.416 183.19) rotate(-29.887)" fill="#61c1ef"/>
        <ellipse id="Ellipse_70" data-name="Ellipse 70" cx="1.613" cy="2.799" rx="1.613" ry="2.799" transform="translate(88.725 156.11) rotate(-30)" fill="#61c1ef"/>
        <path id="Path_1617" data-name="Path 1617" d="M330.069,166.241l-3.437-1.983a2.187,2.187,0,0,1-.912-1.741v-16.58c0-.67.408-.976.912-.689l3.437,1.99a2.168,2.168,0,0,1,.931,1.7v16.612C331,166.222,330.573,166.528,330.069,166.241Z" transform="translate(-236.183 -52.585)" fill="#e9eaf2"/>
        <path id="Path_1618" data-name="Path 1618" d="M342.529,163.63l-3.437-1.99a2.168,2.168,0,0,1-.912-1.734v-33.8c0-.638.408-.982.912-.689l3.437,1.99a2.187,2.187,0,0,1,.912,1.741v33.8C343.415,163.611,343.007,163.917,342.529,163.63Z" transform="translate(-240.697 -45.401)" fill="#61c1ef"/>
        <path id="Path_1619" data-name="Path 1619" d="M367.319,179.828l-3.437-1.983a2.168,2.168,0,0,1-.912-1.741V145.6c0-.67.408-.976.912-.689l3.437,1.983a2.187,2.187,0,0,1,.912,1.741v30.513C368.231,179.816,367.823,180.122,367.319,179.828Z" transform="translate(-249.679 -52.461)" fill="#e9eaf2"/>
        <path id="Path_1620" data-name="Path 1620" d="M379.739,189.972l-3.437-1.983a2.187,2.187,0,0,1-.912-1.741V160.97c0-.638.408-.976.912-.689l3.437,1.99a2.168,2.168,0,0,1,.912,1.734v25.278C380.651,189.959,380.243,190.265,379.739,189.972Z" transform="translate(-254.179 -58.033)" fill="#61c1ef"/>
        <path id="Path_1621" data-name="Path 1621" d="M404.469,211.512l-3.444-1.983a2.181,2.181,0,0,1-.906-1.741V195.3c0-.676.4-.982.906-.689l3.444,1.983a2.2,2.2,0,0,1,.906,1.741v12.492C405.375,211.493,404.966,211.8,404.469,211.512Z" transform="translate(-263.139 -70.466)" fill="#e9eaf2"/>
        <path id="Path_1622" data-name="Path 1622" d="M416.893,201.638l-3.412-1.99a2.168,2.168,0,0,1-.912-1.734V155.425c0-.676.408-.982.912-.689l3.437,1.983a2.181,2.181,0,0,1,.912,1.741V200.95C417.805,201.619,417.4,201.925,416.893,201.638Z" transform="translate(-267.65 -56.021)" fill="#61c1ef"/>
        <path id="Path_1623" data-name="Path 1623" d="M447.169,236.17l-3.437-1.99a2.168,2.168,0,0,1-.912-1.734v-12.5c0-.67.408-.976.912-.689l3.437,1.99a2.168,2.168,0,0,1,.912,1.741v12.492C448.081,236.151,447.673,236.457,447.169,236.17Z" transform="translate(-278.61 -79.4)" fill="#e9eaf2"/>
        <path id="Path_1624" data-name="Path 1624" d="M459.589,241.008l-3.437-1.99a2.168,2.168,0,0,1-.912-1.741V220.7c0-.67.408-.976.912-.689l3.437,1.983a2.187,2.187,0,0,1,.912,1.741v16.612C460.5,241.008,460.093,241.3,459.589,241.008Z" transform="translate(-283.11 -79.671)" fill="#61c1ef"/>
      </g>
      <path id="Path_1625" data-name="Path 1625" d="M87.5,478.789,59.032,462.375c-3.227-1.868-2.825-5.1.906-7.27l14.45-8.347c3.724-2.149,9.342-2.4,12.588-.491l28.466,16.44c3.227,1.862,2.825,5.1-.906,7.263l-14.45,8.347C96.362,480.434,90.744,480.7,87.5,478.789Z" transform="translate(-20.599 -161.219)" fill="#d6d8e5" opacity="0.4"/>
      <path id="Path_1626" data-name="Path 1626" d="M137.463,439.406V399.672L76.679,392.83v39.983h0a3.643,3.643,0,0,0,2.168,3.259l28.466,16.44c3.227,1.862,8.864,1.626,12.588-.523l14.45-8.347c2.1-1.212,3.144-2.774,3.08-4.234Z" transform="translate(-27.781 -142.326)" fill="#d6d8e5"/>
      <path id="Path_1627" data-name="Path 1627" d="M137.425,398.661v-4.336h-4.674l-25.96-14.992c-3.227-1.868-8.864-1.632-12.588.516l-14.45,8.379a8.344,8.344,0,0,0-.746.478l-2.328-1.192v4.738h0a3.64,3.64,0,0,0,2.168,3.246l28.466,16.433c3.227,1.862,8.864,1.626,12.588-.523l14.45-8.341c2.162-1.275,3.188-2.87,3.067-4.374Z" transform="translate(-27.781 -136.979)" fill="#edf0f9"/>
      <path id="Path_1628" data-name="Path 1628" d="M107.308,404.492,78.842,388.059c-3.227-1.862-2.825-5.1.906-7.27l14.45-8.341c3.724-2.155,9.361-2.385,12.588-.523l28.466,16.433c3.227,1.862,2.825,5.1-.906,7.27l-14.45,8.341C116.172,406.124,110.535,406.354,107.308,404.492Z" transform="translate(-27.776 -134.296)" fill="#e2e5f2"/>
      <path id="Path_1629" data-name="Path 1629" d="M109.718,387.1v-1.581h-.969l-.3-.191a6.8,6.8,0,0,0-6.154,0,3.683,3.683,0,0,0-.517.364l-.759-.172V387.1a2.168,2.168,0,0,0,1.275,1.779,6.8,6.8,0,0,0,6.154,0,2.149,2.149,0,0,0,1.269-1.779Z" transform="translate(-36.601 -139.343)" fill="#619fef"/>
      <ellipse id="Ellipse_71" data-name="Ellipse 71" cx="4.349" cy="2.512" rx="4.349" ry="2.512" transform="translate(64.419 243.668)" fill="#61c1ef"/>
      <path id="Path_1630" data-name="Path 1630" d="M126.7,397.262a2.551,2.551,0,0,1-1.167,1.231,6.823,6.823,0,0,1-6.147,0,2.551,2.551,0,0,1-1.167-1.231c-.319-.816.077-1.69,1.167-2.328a6.823,6.823,0,0,1,6.147,0C126.63,395.54,127.019,396.414,126.7,397.262Z" transform="translate(-42.794 -142.824)" fill="#619fef"/>
      <path id="Path_1631" data-name="Path 1631" d="M126.772,397.882a2.55,2.55,0,0,1-1.167,1.231,6.823,6.823,0,0,1-6.147,0,1.237,1.237,0,0,1,0-2.468,6.823,6.823,0,0,1,6.147,0A2.551,2.551,0,0,1,126.772,397.882Z" transform="translate(-42.865 -143.443)" fill="#61c1ef"/>
      <path id="Path_1632" data-name="Path 1632" d="M142.668,406.444v-1.581H141.7l-.3-.191a6.8,6.8,0,0,0-6.154,0,4.284,4.284,0,0,0-.517.357l-.759-.166v1.581a2.168,2.168,0,0,0,1.275,1.779,6.8,6.8,0,0,0,6.154,0,2.149,2.149,0,0,0,1.269-1.779Z" transform="translate(-48.539 -146.35)" fill="#619fef"/>
      <ellipse id="Ellipse_72" data-name="Ellipse 72" cx="4.349" cy="2.512" rx="4.349" ry="2.512" transform="translate(85.431 256.001)" fill="#61c1ef"/>
      <g id="Men_2" transform="translate(40.027 220.501)">
        <path id="_Контур_" data-name="&lt;Контур&gt;" d="M64.383,378.51c-.172,1.486-1.913,7.9-1.569,10.1s6.441,5.873,6.441,5.873l.842-3.762-3.354-3.29.906-6.23Z" transform="translate(-62.769 -357.638)" fill="#ffcea9"/>
        <path id="_Контур_2" data-name="&lt;Контур&gt;" d="M69.646,368.459a2.646,2.646,0,0,0-3.373,1.014c-.893,1.479-1.817,6.543-1.913,7.41a3.619,3.619,0,0,0,3.131,1.441Z" transform="translate(-63.346 -353.907)" fill="#ededed"/>
        <path id="Path_1633" data-name="Path 1633" d="M83.173,479.885a5.2,5.2,0,0,0,3.922-.478c.944.032,6.077-2.168,6.772-.325.638,1.62-1.613,3.112-2.8,3.4-2.589.638-4.5,1.913-5.548,2.143a2.621,2.621,0,0,1-2.391-.344C82.382,483.552,82.446,480.848,83.173,479.885Z" transform="translate(-69.954 -393.81)" fill="#2a2d79"/>
        <path id="Path_1634" data-name="Path 1634" d="M85.626,484.773c1.046-.217,2.959-1.511,5.548-2.136.995-.242,2.71-1.326,2.882-2.627.23,1.486-1.773,2.806-2.882,3.074-2.589.638-4.5,1.913-5.548,2.143a2.621,2.621,0,0,1-2.391-.344,1.429,1.429,0,0,1-.344-.638A3.087,3.087,0,0,0,85.626,484.773Z" transform="translate(-70.059 -394.413)" fill="#619fef"/>
        <path id="Path_1635" data-name="Path 1635" d="M70.133,474.025a5.2,5.2,0,0,0,3.922-.472c.944,0,6.071-2.168,6.772-.325.638,1.613-1.613,3.106-2.8,3.4-2.589.638-4.508,1.913-5.548,2.136a2.651,2.651,0,0,1-2.4-.338C69.342,477.692,69.406,474.988,70.133,474.025Z" transform="translate(-65.228 -391.687)" fill="#2a2d79"/>
        <path id="Path_1636" data-name="Path 1636" d="M72.586,478.924c1.039-.223,2.959-1.511,5.548-2.143.995-.236,2.71-1.326,2.882-2.621.23,1.486-1.773,2.8-2.882,3.074-2.589.638-4.508,1.913-5.548,2.136a2.651,2.651,0,0,1-2.4-.338,1.537,1.537,0,0,1-.338-.638A3.118,3.118,0,0,0,72.586,478.924Z" transform="translate(-65.335 -392.294)" fill="#619fef"/>
        <path id="_Контур_3" data-name="&lt;Контур&gt;" d="M70.03,436.557a31.414,31.414,0,0,1,1.18-5.618s-.351-4.846-.529-9.444c-.2-5.216-2.009-9.808-.58-13.965l16.089,3.577S85.22,431.9,85,434.415a46.552,46.552,0,0,1-.721,5.841c-.733,4.037-1.913,13.64-1.913,13.64a6.007,6.007,0,0,1-3.935.44s.128-12.116.236-15.049c.134-3.552.242-3.284.242-3.284l-.536-8.845-.344-4.4s-.446,3.227-.74,6.115c-.249,2.512-.854,4.789-1.537,9.47-.587,4.062-1.543,12.224-1.543,12.224a5.448,5.448,0,0,1-4.011.166S69.571,440.077,70.03,436.557Z" transform="translate(-65.228 -368.153)" fill="#61c1ef"/>
        <path id="_Контур_4" data-name="&lt;Контур&gt;" d="M73.6,360.9c1.231.064,2.143.376,2.3,0a16.935,16.935,0,0,0,.274-1.913c-.14-.357-.261-.74-.261-.74-1.537-.944-2.021-2.608-2.226-4.547-.344-3.31,1.441-6.2,4.751-6.549,3.112-.325,5.408,1.862,6.013,4.866.332,1.479.988,4.285.1,6.721-.5,1.365-1.135,2.449-1.773,2.659a16.172,16.172,0,0,1-1.843-.166h0s-.166.918-.281,1.5-.07.906,1.1,1.626-1.779,2.232-3.692,2.085-4.094-1.307-4.693-2.551C72.693,362.5,72.75,360.862,73.6,360.9Z" transform="translate(-66.443 -346.265)" fill="#ffcea9"/>
        <path id="_Контур_5" data-name="&lt;Контур&gt;" d="M73.123,368.836c-.338.848.523,1.913,2.825,2.6s2.512-.2,2.512-.2a45.491,45.491,0,0,1,4.464,2.3c1.384.969,2,3.762,2.181,8.481.217,5.459.236,13.557.051,14.954a8.374,8.374,0,0,1-5.886,2.3c-3.335-.249-8.857-3.188-10.2-5.452.038-4.789.6-5.567-.179-8.322-1.773-6.313-2.7-8.928-1.843-13.092.708-3.463,1.7-3.89,3.074-3.858a27.424,27.424,0,0,1,3,.287Z" transform="translate(-64.201 -354.029)" fill="#f4f4f4"/>
        <path id="_Контур_6" data-name="&lt;Контур&gt;" d="M97.781,388.734c-2.717.682-3.348-1.027-3.7-2.442-.867-3.431-1.326-6.524-1.97-8.469-.759-2.3-1.556-2.659-2.666-3.105-1.275-.529-2.436.58-2,3.5a58.5,58.5,0,0,0,2.487,9.967,8.842,8.842,0,0,0,2.226,3.877c1.4,1.129,3.507,1.084,6.7.293a37.38,37.38,0,0,0,5.42-2.353c.689-.319,1.224-.536,2.551-1.154a8.965,8.965,0,0,0,3.4-2.653c.7-1.008.784-1.479.638-1.709s-.491-.223-.861.2a7.435,7.435,0,0,1-1.951,1.8s.854-.886,1.32-1.46a7.34,7.34,0,0,0,1.027-1.677c.242-.587-.261-1.384-.638-.963s-.568.842-1.275,1.684a7.278,7.278,0,0,1-1.275,1.2,13.27,13.27,0,0,0,1.154-1.862,3.093,3.093,0,0,0,.427-1.684c0-.306-.453-.67-.861-.089a11.128,11.128,0,0,1-1.454,2.226c-.638.638-1.148,1.007-1.161.829s.37-.529.593-1.275,0-1.543-.414-1.626-.332-.064-.638.638a20.28,20.28,0,0,0-1.231,2.238,4.674,4.674,0,0,1-1.116,1.913C101.83,387.3,100.357,388.083,97.781,388.734Z" transform="translate(-71.674 -356.218)" fill="#ffcea9"/>
        <path id="_Контур_7" data-name="&lt;Контур&gt;" d="M87.956,374.023c1.811-.268,3.093.548,3.89,3.29s1.358,4.968,1.358,4.968a4.923,4.923,0,0,1-3.029,2.015c-2.168.529-2.946-.51-2.946-.51s-.6-2.87-.976-4.827S85.717,374.354,87.956,374.023Z" transform="translate(-71.197 -355.995)" fill="#ededed"/>
        <path id="Path_1637" data-name="Path 1637" d="M84.563,351.1s2.857-4.349-3.341-5.235c-4.464-.638-7.34,2.232-7.652,5.35a9.761,9.761,0,0,0,2.838,7.3,5.4,5.4,0,0,0,3.864-.466,21.44,21.44,0,0,0,.089-2.436S78.161,351.022,84.563,351.1Z" transform="translate(-66.669 -345.78)" fill="#2a2d79"/>
      </g>
      <ellipse id="Ellipse_73" data-name="Ellipse 73" cx="15.706" cy="9.068" rx="15.706" ry="9.068" transform="translate(228.259 291.016)" fill="#d6d8e5" opacity="0.4"/>
      <g id="Girl_14" transform="translate(224.363 211.579)">
        <path id="_Контур_8" data-name="&lt;Контур&gt;" d="M379.1,332.922c.638-1.039,5.612-1.728,7.244,2.474.638,1.594.523,5.669,1.039,8.226s1.734,4.011,2.174,6.083-.274,5.554-5.28,6.173-8.851-1.141-10.031-2.736a6.926,6.926,0,0,1,0-6.81c1.205-1.824,2.162-3.3,2.13-5.669Z" transform="translate(-359.636 -331.913)" fill="#3a2c6d"/>
        <path id="_Контур_9" data-name="&lt;Контур&gt;" d="M383.085,332.076s-3.737-1.078-6,.937a5.561,5.561,0,0,0-1.594,5.535c.3,1.18.905,2.787,1.843,2.876S383.085,332.076,383.085,332.076Z" transform="translate(-360.339 -331.789)" fill="#3a2c6d"/>
        <path id="_Контур_10" data-name="&lt;Контур&gt;" d="M385.38,348.21s-.249,4.158-.172,4.464,1.633.638,2.072.969-2.264,4.585-3.635,5.21-5.624-.976-5.924-3.086a4.867,4.867,0,0,1,1.792-3.992,8.73,8.73,0,0,1,1.173-.032l.128-2.015C382.677,349.135,385.38,348.21,385.38,348.21Z" transform="translate(-361.206 -337.738)" fill="#ffcea9"/>
        <path id="Path_1638" data-name="Path 1638" d="M370.329,360.525c0-.121-.638.217-.638.223s-.3,10.681-.823,11.651h0c-1.333,2.264-4.859,6.1-4.948,6.53-.261,1.275.491.134,1.7,0,.682-.083,4.693-4.139,5.592-5.063l.057.032v-.1l.115-.121a5.522,5.522,0,0,0,0-.867C373.078,361.207,371.024,360.436,370.329,360.525Z" transform="translate(-356.198 -342.191)" fill="#ffcea9"/>
        <path id="_Контур_11" data-name="&lt;Контур&gt;" d="M384.357,355.085c1.173.179,2.506.8,2.691,1.441a13.85,13.85,0,0,1-.332,6.951c-1.014,2.678-1.7,4.381-2.283,5.535,0,0-5.057,2.168-9.138-.363,0,0-.281-2.87-.3-4.406-3.762-3.284-.542-7.333,2.646-10.477a6.3,6.3,0,0,1,1.148,0s-2.844,3.367-.867,5.28C382.164,357.732,383.005,355.818,384.357,355.085Z" transform="translate(-359.615 -339.742)" fill="#f4f4f4"/>
        <path id="_Контур_12" data-name="&lt;Контур&gt;" d="M377.436,337.539h0c.414-2.672,2.347-4.693,5.1-4.534A5.3,5.3,0,0,1,385.2,342.7a5.18,5.18,0,0,1-.427,1.167,7.925,7.925,0,0,1-4.426,1.868c-.74,0-1.377-.682-2.073-1.83A9.156,9.156,0,0,1,377.436,337.539Z" transform="translate(-361.034 -332.226)" fill="#ffcea9"/>
        <path id="Path_1639" data-name="Path 1639" d="M383.635,333.016c1.913.376,3.52.925,4.049,2.819.357,1.314.829,3.826.383,4.853l-.281.759-2.34,1.212s-1.1-.912-.752-3.584a1.913,1.913,0,0,0-.332-1.008,3.076,3.076,0,0,1-.325-.81,3.035,3.035,0,0,0-1.518-1.645,5.218,5.218,0,0,0-4.649.223A5.1,5.1,0,0,1,383.635,333.016Z" transform="translate(-361.271 -332.186)" fill="#3a2c6d"/>
        <path id="Path_1640" data-name="Path 1640" d="M388.143,465.69c-.982.8-2.506.249-2.551.319a40.617,40.617,0,0,1-3.584,2.742c-.638.478-1.562,1.122-1.39,2.041.306,1.652,2.946,1.148,3.941.638s1.811-1.339,2.755-1.913c.67-.414,1.333-.638,1.441-1.479A5.774,5.774,0,0,0,388.143,465.69Z" transform="translate(-362.259 -380.303)" fill="#2a2d79"/>
        <path id="Path_1641" data-name="Path 1641" d="M388.721,468.81c-.134.816-.784,1.039-1.454,1.454-.957.593-1.8,1.454-2.793,1.958s-3.22.925-3.864-.249c.351,1.588,2.946,1.09,3.928.587s1.811-1.339,2.755-1.913c.67-.414,1.333-.638,1.441-1.479A2.3,2.3,0,0,0,388.721,468.81Z" transform="translate(-362.264 -381.434)" fill="#619fef"/>
        <path id="Path_1642" data-name="Path 1642" d="M377.747,463.54c-.9.733-2.251.319-2.315.389a38.98,38.98,0,0,1-3.278,2.5c-.561.44-1.435,1.027-1.275,1.868.281,1.511,2.7,1.046,3.616.587s1.652-1.231,2.519-1.766c.638-.383,1.218-.58,1.314-1.358A5.125,5.125,0,0,0,377.747,463.54Z" transform="translate(-358.731 -379.524)" fill="#2a2d79"/>
        <path id="Path_1643" data-name="Path 1643" d="M378.343,466.53c-.121.746-.721.95-1.333,1.326-.874.548-1.645,1.333-2.551,1.8s-2.946.848-3.539-.23c.319,1.454,2.7,1,3.6.542s1.652-1.231,2.519-1.766c.638-.383,1.218-.58,1.314-1.358a1.311,1.311,0,0,0-.013-.312Z" transform="translate(-358.753 -380.607)" fill="#619fef"/>
        <path id="Path_1644" data-name="Path 1644" d="M373.151,387.43c.434-3.38,1.677-8.29,1.677-8.29a9.96,9.96,0,0,0,3.743.925,30.606,30.606,0,0,0,5.663-.548,33.619,33.619,0,0,0,2,3.086,13.28,13.28,0,0,1,2.41,9.482c-.3,3.38-2.194,17.734-2.194,17.734a26.78,26.78,0,0,1,1.167,7.442,62.114,62.114,0,0,1-1.186,8.928l-1.129,8.143s-1.5,1.09-2.551.319l.134-7.971c-.128-1.951-.325-4.827-.446-6.664-.2-3-.74-7.748-.893-8.928s-.536-3.265-.721-5.586-1.052-14.137-1.052-14.137l-.121,2.213s-.121,3.59-.638,8.022-.7,6.377-.7,6.377a9.489,9.489,0,0,1,1.014,2.863c.089.957,1.18,8.532.529,12.384l-1.346,9.8a2.551,2.551,0,0,1-2.315.306l-.791-9.878c-.529-3.756-1.652-11.721-1.824-12.754a42.531,42.531,0,0,1-.676-6.319A131.649,131.649,0,0,1,373.151,387.43Z" transform="translate(-359.415 -348.945)" fill="#ffcea9"/>
        <path id="Path_1645" data-name="Path 1645" d="M383.846,377.44l2.908,5.835s4.464,6.492-.159,23.18l.861,5.152s-8.7,5.58-14.52,0c0,0-2.015-15.426-.944-22.536A82.362,82.362,0,0,1,374.7,377s1.428,1.575,8.762.536" transform="translate(-359.028 -348.169)" fill="#61c1ef"/>
        <path id="Path_1646" data-name="Path 1646" d="M377.4,353.761s-2.308-.708-4.764,4.413l.918.548A38.45,38.45,0,0,1,377.4,353.761Z" transform="translate(-359.376 -339.738)" fill="#ededed"/>
        <g id="Group_33" data-name="Group 33" transform="translate(0 35.998)">
          <path id="Path_1647" data-name="Path 1647" d="M351.84,394.011l9.935-5.771,7.129,4.113-9.935,5.777Z" transform="translate(-351.84 -388.24)" fill="#f4f4f4"/>
        </g>
        <path id="Path_1648" data-name="Path 1648" d="M363.522,388.9a4.369,4.369,0,0,0-1.766.574,4.547,4.547,0,0,1-.638.466c-.1.045-.191.108-.293.153a1.07,1.07,0,0,0-.4.261,1,1,0,0,0-.172.555,2.284,2.284,0,0,0-.038.721c.089.357.459.325.638.077a.758.758,0,0,0,.159-.434.956.956,0,0,1,.421-.759l2.372-1.473A.281.281,0,0,0,363.522,388.9Z" transform="translate(-354.869 -352.48)" fill="#ffcea9"/>
        <path id="Path_1649" data-name="Path 1649" d="M385.5,360.029c-.325-1.352-1.384-.918-2.3-1.709-2.111,2.991-.708,11.077-.421,11.937l-8.111,5.172h0l-.548.338a9.693,9.693,0,0,1-3.016,1.314c-.81.1-1.231,1.237-2.1,1.339a.338.338,0,0,0-.223.58c.344.332,1.275.057,1.913-.682a.14.14,0,0,0,0,.051.689.689,0,0,0,.357.574.364.364,0,0,0,.153.051.281.281,0,0,0,.045.153.638.638,0,0,0,.485.351h0a.638.638,0,0,0,.638.427.733.733,0,0,0,.491-.223,4.26,4.26,0,0,0,1.773-1.275,16.578,16.578,0,0,1,1.314-1.224c2.2-.95,8.8-3.769,9.093-4.171C385.5,372.426,385.967,361.942,385.5,360.029Z" transform="translate(-357.941 -341.401)" fill="#ffcea9"/>
        <path id="Path_1650" data-name="Path 1650" d="M393.511,363.056a6.223,6.223,0,0,1-4.751.077l.312-4.062s.032-2.181,1.977-2.4S394.014,358.949,393.511,363.056Z" transform="translate(-365.217 -340.8)" fill="#ededed"/>
      </g>
    </g>
  </g>
</svg>
