<svg xmlns="http://www.w3.org/2000/svg" xmlns:xlink="http://www.w3.org/1999/xlink" width="197" height="204.769" viewBox="0 0 197 204.769">
  <defs>
    <linearGradient id="linear-gradient" x1="1.185" y1="0.728" x2="-0.185" y2="0.272" gradientUnits="objectBoundingBox">
      <stop offset="0" stop-color="#fff" stop-opacity="0.4"/>
      <stop offset="0.89" stop-color="#fff" stop-opacity="0"/>
    </linearGradient>
  </defs>
  <g id="Слой_2" data-name="Слой 2" transform="translate(0 -0.002)">
    <g id="Слой_1" data-name="Слой 1" transform="translate(0 0.002)">
      <g id="monitor" transform="translate(68.209)">
        <path id="Path_1166" data-name="Path 1166" d="M252.734,346.042l-24.582-14.193c-1.774-1.022-1.55-2.812.5-3.991l15.925-9.2,31.013,17.88-15.925,9.2A7.668,7.668,0,0,1,252.734,346.042Z" transform="translate(-199.323 -184.093)" fill="#d6d8e5" opacity="0.4"/>
        <path id="Path_1167" data-name="Path 1167" d="M257.024,343.542l-24.582-14.193c-1.774-1.022-1.55-2.812.5-3.991l15.937-9.2,31,17.9-15.925,9.2A7.711,7.711,0,0,1,257.024,343.542Z" transform="translate(-201.801 -182.649)" fill="#b1b4c4"/>
        <path id="Path_1168" data-name="Path 1168" d="M344.422,357.262v-.942l-1.432.828Z" transform="translate(-266.356 -205.849)" fill="#b1b4c4"/>
        <path id="Path_1169" data-name="Path 1169" d="M231.25,342.08v-.95l1.47.608Z" transform="translate(-201.803 -197.074)" fill="#b1b4c4"/>
        <path id="Path_1170" data-name="Path 1170" d="M257.024,341.317l-24.582-14.189c-1.774-1.026-1.55-2.812.5-3.995l15.937-9.193,31,17.9L263.95,341.03A7.7,7.7,0,0,1,257.024,341.317Z" transform="translate(-201.801 -181.366)" fill="#d6d8e5"/>
        <path id="Path_1171" data-name="Path 1171" d="M267.919,296.628,264.08,283.9l31.338,17.973,3.416,12.61Z" transform="translate(-220.77 -164.012)" fill="#9ea1af"/>
        <path id="Path_1172" data-name="Path 1172" d="M343.619,355.37l.908-.524-1.347-1.077Z" transform="translate(-266.466 -204.376)" fill="#9ea1af"/>
        <path id="Path_1173" data-name="Path 1173" d="M265.574,297.758,261.74,285.03l31.338,17.977,3.492,12.652Z" transform="translate(-219.418 -164.665)" fill="#b1b4c4"/>
        <path id="Path_1174" data-name="Path 1174" d="M289.065,172.449,167.783,102.416a7.412,7.412,0,0,1-3.083-5.887V2.7c0-2.268,1.381-3.311,3.083-2.327L289.065,70.406a7.4,7.4,0,0,1,3.083,5.883v93.834C292.148,172.39,290.767,173.433,289.065,172.449Z" transform="translate(-163.357 -0.002)" fill="#c4c7d6"/>
        <path id="Path_1175" data-name="Path 1175" d="M460.68,404.139l1.343-.773-.578-3.986Z" transform="translate(-334.347 -230.725)" fill="#c4c7d6"/>
        <path id="Path_1176" data-name="Path 1176" d="M164.15,1.2l1.322-.76,1.9,1.081s-2.023.308-2.073.3S164.15,1.2,164.15,1.2Z" transform="translate(-163.039 -0.255)" fill="#b1b4c4"/>
        <path id="Path_1177" data-name="Path 1177" d="M286.412,173.969l-121.3-70.05a7.4,7.4,0,0,1-3.079-5.887V4.22c0-2.268,1.381-3.311,3.079-2.327l121.3,70.033a7.4,7.4,0,0,1,3.079,5.887v93.829C289.491,173.91,288.114,174.953,286.412,173.969Z" transform="translate(-161.815 -0.881)" fill="#e4e7f2"/>
        <path id="Path_1178" data-name="Path 1178" d="M285.9,174.259,164.6,104.226a7.418,7.418,0,0,1-3.083-5.887V4.51c0-2.268,1.381-3.311,3.083-2.327L285.9,72.216a7.4,7.4,0,0,1,3.083,5.883v93.834C288.985,174.187,287.6,175.243,285.9,174.259Z" transform="translate(-161.52 -1.048)" fill="#d6d8e5"/>
        <path id="Path_1179" data-name="Path 1179" d="M289.426,171.321,165.17,99.582l.063-91.929c0-.942.663-1.322,1.478-.845l121.3,70.025a3.273,3.273,0,0,1,1.478,2.559Z" transform="translate(-163.629 -3.815)" fill="#fff"/>
        <path id="Path_1180" data-name="Path 1180" d="M190.4,50.153l-11.275-6.52a1.546,1.546,0,0,1-.642-1.229V29.591c0-.473.287-.688.642-.486L190.4,35.63a1.529,1.529,0,0,1,.642,1.225V49.667C191.039,50.132,190.752,50.36,190.4,50.153Z" transform="translate(-171.318 -16.772)" fill="#e9eaf2"/>
        <path id="Path_1181" data-name="Path 1181" d="M227.431,71.563l-11.309-6.529a1.546,1.546,0,0,1-.642-1.229V51c0-.473.287-.688.642-.486l11.3,6.524a1.529,1.529,0,0,1,.655,1.237v12.8C228.073,71.55,227.786,71.791,227.431,71.563Z" transform="translate(-192.693 -29.14)" fill="#e9eaf2"/>
        <path id="Path_1182" data-name="Path 1182" d="M263.639,92.45l-11.318-6.524a1.529,1.529,0,0,1-.642-1.225V71.889c0-.473.287-.693.642-.486l11.318,6.541a1.529,1.529,0,0,1,.642,1.225v12.8C264.26,92.438,263.973,92.653,263.639,92.45Z" transform="translate(-213.606 -41.206)" fill="#e9eaf2"/>
        <path id="Path_1183" data-name="Path 1183" d="M190.4,92.973l-11.275-6.52a1.546,1.546,0,0,1-.642-1.229V72.411c0-.473.287-.688.642-.486l11.275,6.52a1.546,1.546,0,0,1,.642,1.229V92.487C191.039,92.96,190.752,93.18,190.4,92.973Z" transform="translate(-171.318 -41.509)" fill="#e9eaf2"/>
        <path id="Path_1184" data-name="Path 1184" d="M227.431,114.383l-11.309-6.52a1.546,1.546,0,0,1-.642-1.229V93.821c0-.473.287-.688.642-.486l11.3,6.52a1.546,1.546,0,0,1,.642,1.229V113.9C228.073,114.37,227.786,114.59,227.431,114.383Z" transform="translate(-192.693 -53.878)" fill="#e9eaf2"/>
        <path id="Path_1185" data-name="Path 1185" d="M231.1,112.37l-11.3-6.524a1.529,1.529,0,0,1-.642-1.225V91.809c0-.473.287-.693.642-.486l11.3,6.52a1.546,1.546,0,0,1,.642,1.229v12.812C231.761,112.358,231.453,112.573,231.1,112.37Z" transform="translate(-194.819 -52.714)" fill="#61c1ef"/>
        <path id="Path_1186" data-name="Path 1186" d="M263.639,135.266l-11.318-6.52a1.529,1.529,0,0,1-.642-1.225V114.7c0-.469.287-.688.642-.481l11.318,6.52a1.529,1.529,0,0,1,.642,1.225v12.808C264.26,135.253,263.973,135.473,263.639,135.266Z" transform="translate(-213.606 -65.943)" fill="#e9eaf2"/>
        <path id="Path_1187" data-name="Path 1187" d="M190.4,136.7l-11.275-6.52a1.529,1.529,0,0,1-.642-1.225V116.135c0-.469.287-.688.642-.481l11.275,6.52a1.529,1.529,0,0,1,.642,1.225v12.817C191.039,136.683,190.752,136.9,190.4,136.7Z" transform="translate(-171.318 -66.77)" fill="#e9eaf2"/>
        <path id="Path_1188" data-name="Path 1188" d="M221.351,192.513l-42.229-24.379a1.546,1.546,0,0,1-.642-1.229v-2.956c0-.473.287-.693.642-.486l42.229,24.383a1.529,1.529,0,0,1,.642,1.225v2.956C221.972,192.5,221.685,192.72,221.351,192.513Z" transform="translate(-171.318 -94.39)" fill="#e9eaf2"/>
        <path id="Path_1189" data-name="Path 1189" d="M210.717,204.921l-31.195-17.994a1.529,1.529,0,0,1-.642-1.225v-1.474c0-.473.287-.693.642-.486l31.195,18.007a1.546,1.546,0,0,1,.642,1.229v1.465C211.359,204.921,211.071,205.141,210.717,204.921Z" transform="translate(-171.549 -106.106)" fill="#e9eaf2"/>
        <path id="Path_1190" data-name="Path 1190" d="M210.717,218.112,179.522,200.1a1.529,1.529,0,0,1-.642-1.225v-1.465c0-.473.287-.688.642-.486l31.195,18.007a1.546,1.546,0,0,1,.642,1.229v1.465C211.359,218.1,211.071,218.315,210.717,218.112Z" transform="translate(-171.549 -113.722)" fill="#e9eaf2"/>
        <path id="Path_1191" data-name="Path 1191" d="M204.83,227.877l-25.308-14.616a1.529,1.529,0,0,1-.642-1.225v-1.465c0-.473.287-.688.642-.486L204.83,224.7a1.546,1.546,0,0,1,.642,1.229v1.465C205.472,227.864,205.185,228.08,204.83,227.877Z" transform="translate(-171.549 -121.325)" fill="#61c1ef"/>
        <path id="Path_1192" data-name="Path 1192" d="M360.328,273.378l-60.967-35.186a1.529,1.529,0,0,1-.642-1.225v-2.956c0-.473.287-.688.642-.486l60.967,35.207a1.529,1.529,0,0,1,.642,1.225v2.956C360.97,273.378,360.683,273.6,360.328,273.378Z" transform="translate(-240.781 -134.866)" fill="#e9eaf2"/>
        <path id="Path_1193" data-name="Path 1193" d="M354.585,288.613l-54.763-31.621a1.529,1.529,0,0,1-.642-1.225V254.3c0-.473.287-.688.642-.486l54.763,31.617a1.546,1.546,0,0,1,.642,1.229v1.465C355.227,288.6,354.94,288.815,354.585,288.613Z" transform="translate(-241.047 -146.588)" fill="#e9eaf2"/>
        <path id="Path_1194" data-name="Path 1194" d="M354.585,301.773l-54.763-31.617a1.545,1.545,0,0,1-.642-1.229v-1.465c0-.473.287-.688.642-.486l54.763,31.638a1.529,1.529,0,0,1,.642,1.225V301.3C355.227,301.76,354.94,301.992,354.585,301.773Z" transform="translate(-241.047 -154.191)" fill="#e9eaf2"/>
        <path id="Path_1195" data-name="Path 1195" d="M344.433,309.066l-44.611-25.76a1.546,1.546,0,0,1-.642-1.229v-1.465c0-.473.287-.688.642-.486l44.611,25.76a1.541,1.541,0,0,1,.642,1.225v1.465C345.075,309.053,344.784,309.268,344.433,309.066Z" transform="translate(-241.047 -161.787)" fill="#61c1ef"/>
        <path id="Path_1196" data-name="Path 1196" d="M227.431,158.106l-11.309-6.52a1.529,1.529,0,0,1-.642-1.225V137.545c0-.469.287-.688.642-.481l11.3,6.52a1.529,1.529,0,0,1,.642,1.225v12.817C228.073,158.106,227.786,158.313,227.431,158.106Z" transform="translate(-192.693 -79.138)" fill="#e9eaf2"/>
        <path id="Path_1197" data-name="Path 1197" d="M263.639,178.99l-11.318-6.524a1.529,1.529,0,0,1-.642-1.225V158.429c0-.473.287-.693.642-.486l11.318,6.52a1.546,1.546,0,0,1,.642,1.229V178.5C264.26,178.978,263.973,179.193,263.639,178.99Z" transform="translate(-213.606 -91.201)" fill="#e9eaf2"/>
        <path id="Path_1198" data-name="Path 1198" d="M360.328,224.909l-60.967-35.219a1.529,1.529,0,0,1-.642-1.225V168.389c0-.473.287-.693.642-.486l60.967,35.2a1.546,1.546,0,0,1,.642,1.229v20.076C360.97,224.879,360.683,225.095,360.328,224.909Z" transform="translate(-240.781 -96.955)" fill="#e9eaf2"/>
        <path id="Path_1199" data-name="Path 1199" d="M307.152,130.438c-5.177-2.99-9.392-10.283-9.392-16.263s4.223-8.408,9.392-5.422,9.388,10.287,9.388,16.263S312.325,133.428,307.152,130.438Zm0-18.551c-3.682-2.111-6.676-.393-6.676,3.856a14.775,14.775,0,0,0,6.676,11.562c3.682,2.124,6.676.4,6.676-3.856A14.824,14.824,0,0,0,307.152,111.886Z" transform="translate(-240.227 -62.091)" fill="#e9eaf2"/>
        <path id="Path_1200" data-name="Path 1200" d="M307.152,130.438c-5.177-2.99-9.392-10.283-9.392-16.263s4.223-8.408,9.392-5.422v3.133c-3.682-2.111-6.676-.393-6.676,3.856a14.775,14.775,0,0,0,6.676,11.562c3.682,2.124,6.676.4,6.676-3.856l2.711,1.567C316.535,131,312.325,133.428,307.152,130.438Z" transform="translate(-240.227 -62.091)" fill="#61c1ef"/>
        <path id="Path_1201" data-name="Path 1201" d="M359.018,160.4c-5.177-2.99-9.388-10.287-9.388-16.263s4.223-8.412,9.388-5.422,9.388,10.283,9.388,16.263S364.195,163.386,359.018,160.4Zm0-18.551c-3.682-2.111-6.676-.4-6.676,3.856a14.775,14.775,0,0,0,6.676,11.562c3.682,2.128,6.676.4,6.676-3.856A14.768,14.768,0,0,0,359.018,141.845Z" transform="translate(-270.192 -79.397)" fill="#e9eaf2"/>
        <path id="Path_1202" data-name="Path 1202" d="M359.018,160.4c-5.177-2.99-9.388-10.287-9.388-16.263s4.223-8.412,9.388-5.422v3.133c-3.682-2.111-6.676-.4-6.676,3.856a14.775,14.775,0,0,0,6.676,11.562,5.514,5.514,0,0,0,3.8.845l1.55,3.467A7.689,7.689,0,0,1,359.018,160.4Z" transform="translate(-270.192 -79.397)" fill="#61c1ef"/>
        <path id="Path_1203" data-name="Path 1203" d="M410.888,190.336c-5.177-2.99-9.388-10.287-9.388-16.263s4.223-8.412,9.388-5.422,9.4,10.283,9.4,16.263S416.069,193.326,410.888,190.336Zm0-18.551c-3.678-2.111-6.676-.4-6.676,3.856a14.786,14.786,0,0,0,6.676,11.562c3.678,2.128,6.676.4,6.676-3.856A14.768,14.768,0,0,0,410.888,171.785Z" transform="translate(-300.158 -96.694)" fill="#e9eaf2"/>
        <path id="Path_1204" data-name="Path 1204" d="M402.716,180.12a17.314,17.314,0,0,1-1.216-6.047c0-5.98,4.223-8.412,9.388-5.422v3.133c-3.678-2.111-6.676-.4-6.676,3.856a12.245,12.245,0,0,0,.878,4.295Z" transform="translate(-300.158 -96.693)" fill="#61c1ef"/>
      </g>
      <ellipse id="Ellipse_41" data-name="Ellipse 41" cx="9.535" cy="5.507" rx="9.535" ry="5.507" transform="translate(133.871 191.585)" fill="#d6d8e5" opacity="0.4"/>
      <ellipse id="Ellipse_42" data-name="Ellipse 42" cx="9.535" cy="5.507" rx="9.535" ry="5.507" transform="translate(33.066 193.756)" fill="#d6d8e5" opacity="0.4"/>
      <ellipse id="Ellipse_43" data-name="Ellipse 43" cx="9.535" cy="5.507" rx="9.535" ry="5.507" transform="translate(0 143.803)" fill="#d6d8e5" opacity="0.4"/>
      <g id="Men_14" transform="translate(130.666 148.347)">
        <path id="Path_1205" data-name="Path 1205" d="M344.3,463.6c-.621.5-1.537.042-1.584.089a26.7,26.7,0,0,1-2.289,1.9c-.384.3-.988.714-.878,1.3.194,1.047,1.867.726,2.5.422a19.344,19.344,0,0,0,1.744-1.22c.422-.266.845-.4.912-.942A3.646,3.646,0,0,0,344.3,463.6Z" transform="translate(-326.82 -416.173)" fill="#38226d"/>
        <path id="Path_1206" data-name="Path 1206" d="M344.729,466.72c-.084.515-.5.659-.921.921-.608.376-1.14.921-1.774,1.237s-2.035.591-2.445-.156c.224,1.009,1.867.693,2.492.376s1.144-.845,1.744-1.22c.422-.266.845-.4.912-.942A1.361,1.361,0,0,0,344.729,466.72Z" transform="translate(-326.849 -417.976)" fill="#9c73ff"/>
        <path id="Path_1207" data-name="Path 1207" d="M331.657,458.856c-.621.507-1.689-.046-1.753,0a22.829,22.829,0,0,1-2.044,1.845c-.384.3-.988.714-.878,1.3.194,1.043,1.867.722,2.5.422a18.523,18.523,0,0,0,1.744-1.22c.422-.266.845-.422.912-.942A2.862,2.862,0,0,0,331.657,458.856Z" transform="translate(-319.558 -413.431)" fill="#38226d"/>
        <path id="Path_1208" data-name="Path 1208" d="M332.135,461.8c-.068.507-.49.659-.912.929-.608.376-1.144.921-1.774,1.242s-2.04.587-2.449-.16c.224,1.009,1.867.693,2.492.376s1.149-.845,1.744-1.22c.422-.266.845-.422.912-.937A.806.806,0,0,0,332.135,461.8Z" transform="translate(-319.576 -415.133)" fill="#9c73ff"/>
        <path id="_Контур_" data-name="&lt;Контур&gt;" d="M338.884,406.369c-.03.938-.321,5.008-.452,7.179s-.16,4.8-.16,4.8.372,1.571.612,3.416,0,7.673,0,7.673a1.465,1.465,0,0,1-1.588,0s-.992-4.645-1.453-6.757-.536-3.315-.777-4.616c-.287-1.575-.912-8.927-.912-8.927H333.9l-.663,8.3a9.145,9.145,0,0,1,.422,1.883c.182,1.356-.19,8.155-.19,8.155a1.639,1.639,0,0,1-1.715-.072s-1.66-9.007-1.66-10.376c0-.908.156-12.863.156-12.863Z" transform="translate(-321.367 -381.834)" fill="#61c1ef"/>
        <path id="_Контур_2" data-name="&lt;Контур&gt;" d="M339.38,366.47s-.106,2.044-.059,2.225.938.781,1.2.992-1.415,1.867-2.23,2.242-3.378-.612-3.437-1.879.422-2.331.845-2.386S339.38,366.47,339.38,366.47Z" transform="translate(-324.11 -360.06)" fill="#ffcea9"/>
        <path id="Path_1209" data-name="Path 1209" d="M321.453,372.065c-.122-.9.473-1.757-.1-2.475-2.019,1.976-1.765,7.213-2.221,10.557a21.162,21.162,0,0,1-5.359,3.492c-.156.068-.287.144-.258.308a3.737,3.737,0,0,0,.7,1.533,15.762,15.762,0,0,0,5.912-3.716,5.485,5.485,0,0,0,.633-.845A30.151,30.151,0,0,0,321.453,372.065Z" transform="translate(-311.783 -361.863)" fill="#ffcea9"/>
        <path id="_Контур_3" data-name="&lt;Контур&gt;" d="M336.864,370.1s-1.482,2.213-3.556,2.42c-.65-.642-.709-2.931.194-3.666,0,0-.845-.667-1.4-.541a2.926,2.926,0,0,0-1.267,1.634,13.315,13.315,0,0,0-.731,4.73c.034,2.171,0,8.8,0,8.8a4.123,4.123,0,0,0,2.166,2.445,5.981,5.981,0,0,0,4.531.845,3.1,3.1,0,0,0,2.276-1.377c-.093-1.52-.773-5.49-.519-7.4s.659-3.34.76-4.886-.2-1.516-.975-2.065A12.059,12.059,0,0,0,336.864,370.1Z" transform="translate(-321.366 -361.119)" fill="#f4f4f4"/>
        <path id="_Контур_4" data-name="&lt;Контур&gt;" d="M334.434,355.552h0a2.921,2.921,0,0,1,3.024-2.7,3.155,3.155,0,0,1,2.977,3.328,3.117,3.117,0,0,1-1.372,2.416,3.382,3.382,0,0,1-.253.7,4.565,4.565,0,0,1-2.834,1.022,1.5,1.5,0,0,1-1.3-1.068A7.136,7.136,0,0,1,334.434,355.552Z" transform="translate(-323.792 -352.191)" fill="#ffcea9"/>
        <path id="Path_1210" data-name="Path 1210" d="M339.383,357.7h0l-.152-1.381s1.132-2.931-1.541-2.369c-1.765.372-2.209.532-2.745-.65s1.356-2.251,3.606-1.955a3.108,3.108,0,0,1,2.783,3.155C341.275,355.366,341.042,357.132,339.383,357.7Z" transform="translate(-324.113 -351.292)" fill="#3a2c6d"/>
        <path id="Path_1211" data-name="Path 1211" d="M341.7,377.24c-.773-.22-.182-.038-.773-.22-2.019,1.976-1.769,5.367-2.225,8.72-1.115,1.841-5.249,4.337-5.249,4.337-.051.359.072.465.519,1.182a17.766,17.766,0,0,0,6.149-3.965c.1-.093.245-.118.287-.245A39.622,39.622,0,0,0,341.7,377.24Z" transform="translate(-323.299 -366.155)" fill="#ffcea9"/>
        <path id="Path_1212" data-name="Path 1212" d="M309.42,387.32l3.007,10.279,6.592,2.631-2.4-10.008Z" transform="translate(-309.42 -372.106)" fill="#f4f4f4"/>
        <path id="Path_1213" data-name="Path 1213" d="M329.358,407.178c-.1-.351-.35-.266-.638-.177a1.643,1.643,0,0,1-.976.084,2.956,2.956,0,0,1-.7-.473.845.845,0,0,0-.422-.122,6.03,6.03,0,0,0,.152.608h-1.592a.241.241,0,0,0-.228.4.679.679,0,0,1-.1,0c-.3-.068-.422.389-.127.456a2.35,2.35,0,0,0,.241.034c-.194.076-.241.4,0,.422h.072a.206.206,0,0,0,.11,0h.042a.262.262,0,0,0,.22.3c.705.093,1.744.376,2.382-.207a4.084,4.084,0,0,0,1.267-.346C329.464,407.993,329.476,407.6,329.358,407.178Z" transform="translate(-318.167 -383.18)" fill="#ffcea9"/>
        <path id="Path_1214" data-name="Path 1214" d="M315.048,404.286h-.1a.245.245,0,0,0-.139-.422c-.148,0-1.634-.308-1.634-.308l-.182-.612c0-.034-.258.122-.266.127a1,1,0,0,0-.448.743,1.579,1.579,0,0,0,.422,1.149,1.478,1.478,0,0,0,1.009.422,2.455,2.455,0,0,1,.507.034.262.262,0,0,0,.279-.258h.046a.228.228,0,0,0,.106,0h.076a.225.225,0,0,0,.1-.422h.245C315.377,404.755,315.348,404.282,315.048,404.286Z" transform="translate(-311.07 -381.129)" fill="#ffcea9"/>
        <path id="Path_1215" data-name="Path 1215" d="M328.851,372.681a1.6,1.6,0,0,1-1.081-.481c.059-.76,1.03-3.644,2.986-3.86a3.636,3.636,0,0,0-1.22,1.478A19.12,19.12,0,0,0,328.851,372.681Z" transform="translate(-320.021 -361.141)" fill="#ededed"/>
        <path id="Path_1216" data-name="Path 1216" d="M349.268,380.533a3.778,3.778,0,0,1-3.319-.456,22.242,22.242,0,0,1,.794-3.568s.819-1.689,2.111-1.022S349.268,380.533,349.268,380.533Z" transform="translate(-330.514 -365.179)" fill="#ededed"/>
      </g>
      <g id="Men_4" transform="translate(35.566 149.647)">
        <path id="Path_1217" data-name="Path 1217" d="M85.05,384.66s.27,4.041.8,4.624a6.165,6.165,0,0,0,2.323.98l1.385,2.276s-1.267-7.234-1.537-7.407A23.344,23.344,0,0,0,85.05,384.66Z" transform="translate(-84.7 -371.868)" fill="#ffcea9"/>
        <path id="_Контур_5" data-name="&lt;Контур&gt;" d="M87.227,373.807a1.5,1.5,0,0,0-1.921.583,17.484,17.484,0,0,0-1.085,4.223,2.084,2.084,0,0,0,1.782.845Z" transform="translate(-84.22 -365.517)" fill="#ededed"/>
        <path id="Path_1218" data-name="Path 1218" d="M100.575,468.407a2.977,2.977,0,0,0,2.238-.27c.536,0,3.463-1.237,3.86-.186.351.921-.916,1.774-1.592,1.938-1.478.359-2.572,1.094-3.167,1.22a1.506,1.506,0,0,1-1.364-.194A2.791,2.791,0,0,1,100.575,468.407Z" transform="translate(-93.489 -419.741)" fill="#38226d"/>
        <path id="Path_1219" data-name="Path 1219" d="M102.078,471.685c.6-.122,1.689-.845,3.167-1.22.566-.135,1.541-.756,1.643-1.495.131.845-1.014,1.6-1.643,1.753-1.478.359-2.572,1.094-3.167,1.22a1.506,1.506,0,0,1-1.364-.194.811.811,0,0,1-.194-.355A1.77,1.77,0,0,0,102.078,471.685Z" transform="translate(-93.637 -420.575)" fill="#9c73ff"/>
        <path id="Path_1220" data-name="Path 1220" d="M89.805,465.041a2.956,2.956,0,0,0,2.238-.27c.541,0,3.463-1.233,3.864-.182.346.921-.921,1.774-1.6,1.938-1.478.355-2.572,1.094-3.163,1.216a1.5,1.5,0,0,1-1.368-.19A2.686,2.686,0,0,1,89.805,465.041Z" transform="translate(-87.259 -417.799)" fill="#38226d"/>
        <path id="Path_1221" data-name="Path 1221" d="M91.292,468.28c.591-.127,1.689-.845,3.163-1.22.566-.135,1.546-.756,1.643-1.5.131.845-1.014,1.6-1.643,1.757-1.478.355-2.572,1.094-3.163,1.216a1.5,1.5,0,0,1-1.368-.19.883.883,0,0,1-.194-.355A1.778,1.778,0,0,0,91.292,468.28Z" transform="translate(-87.403 -418.605)" fill="#9c73ff"/>
        <path id="_Контур_6" data-name="&lt;Контур&gt;" d="M89.12,424.114a17.671,17.671,0,0,1,.676-3.2s-.2-2.766-.3-5.388c-.114-2.956-1.144-5.591-.334-7.964l9.046,2.014s-.422,11.883-.562,13.319a26.5,26.5,0,0,1-.422,3.332c-.422,2.3-.874,7.453-.874,7.453a3.417,3.417,0,0,1-2.394.1s0-6.448.055-8.108c.076-2.027.139-1.871.139-1.871l-.3-5.046-.2-2.508s-.253,1.841-.422,3.484c-.144,1.436-.49,2.732-.878,5.405-.334,2.314-.68,7.04-.68,7.04a3.3,3.3,0,0,1-2.28.173A67.258,67.258,0,0,1,89.12,424.114Z" transform="translate(-86.894 -385.098)" fill="#61c1ef"/>
        <path id="_Контур_7" data-name="&lt;Контур&gt;" d="M91.962,363.381c.7.034,1.216.215,1.3,0a9.238,9.238,0,0,0,.16-1.094c-.08-.2-.152-.422-.152-.422a3.133,3.133,0,0,1-1.267-2.593,3.114,3.114,0,1,1,6.144-.963,7.058,7.058,0,0,1,.055,3.834c-.283.781-.646,1.4-1.009,1.516a7.6,7.6,0,0,1-1.052-.093h0s-.093.524-.156.845-.042.511.629.925-1.014,1.267-2.111,1.178a3.553,3.553,0,0,1-2.677-1.457C91.447,364.293,91.481,363.356,91.962,363.381Z" transform="translate(-88.466 -355.032)" fill="#ffcea9"/>
        <path id="_Контур_8" data-name="&lt;Контур&gt;" d="M89.834,374.164c-.194.481.3,1.073,1.613,1.482s1.427-.118,1.427-.118a25.983,25.983,0,0,1,2.534,1.318c.785.549,1.136,2.145,1.242,4.835.122,3.112.135,7.732.03,8.53a4.767,4.767,0,0,1-3.378,1.313c-1.909-.156-5.068-1.824-5.823-3.112,0-2.728.342-3.171-.1-4.747-1.014-3.6-1.546-5.068-1.052-7.466.422-1.972.971-2.217,1.753-2.2A16.479,16.479,0,0,1,89.834,374.164Z" transform="translate(-85.328 -365.709)" fill="#f4f4f4"/>
        <path id="Path_1222" data-name="Path 1222" d="M105.942,401.767,105,390.923l2.023-1.073.79.663-.279,9.738h0v.27h0v.346s.042.819-1.5,1.8c0,0-.025-.258-.046-.5h0l-.038-.422Z" transform="translate(-96.225 -374.867)" fill="#ffcea9"/>
        <path id="_Контур_9" data-name="&lt;Контур&gt;" d="M104.846,379.15c1.043,0,1.689.532,1.964,2.141s.422,2.927.422,2.927a2.813,2.813,0,0,1-1.862.921c-1.267.139-1.63-.5-1.63-.5s-.135-1.668-.2-2.8S103.554,379.175,104.846,379.15Z" transform="translate(-95.37 -368.685)" fill="#ededed"/>
        <path id="Path_1223" data-name="Path 1223" d="M98.375,357.406s1.63-2.479-1.9-2.986a3.623,3.623,0,0,0-4.379,3.053,5.575,5.575,0,0,0,1.622,4.16,3.078,3.078,0,0,0,2.2-.266,12.419,12.419,0,0,0,.046-1.389S94.727,357.359,98.375,357.406Z" transform="translate(-88.755 -354.369)" fill="#3a2c6d"/>
      </g>
      <g id="Girl_9" transform="translate(3.528 99.05)">
        <path id="_Контур_10" data-name="&lt;Контур&gt;" d="M14.395,235.308c-.372-.6-3.209-.992-4.143,1.41-.355.912-.3,3.243-.6,4.7s-.992,2.293-1.242,3.48.156,3.18,3.019,3.53,5.068-.654,5.735-1.567a3.972,3.972,0,0,0,0-3.889,5.328,5.328,0,0,1-1.216-3.243Z" transform="translate(-8.353 -234.727)" fill="#3a2c6d"/>
        <path id="Path_1224" data-name="Path 1224" d="M28.567,258.838s.671,4.755-.6,8.133-.921-.866-.921-.866l.308-1.009s.253-3.877.148-4.827-.08-1.769-.148-1.845.249-.228.384-.245S28.567,258.838,28.567,258.838Z" transform="translate(-19.13 -248.203)" fill="#ffcea9"/>
        <path id="_Контур_11" data-name="&lt;Контур&gt;" d="M18.22,234.718s2.137-.612,3.429.541a3.176,3.176,0,0,1,.916,3.163c-.173.676-.519,1.6-1.056,1.647S18.22,234.718,18.22,234.718Z" transform="translate(-14.053 -234.555)" fill="#3a2c6d"/>
        <path id="_Контур_12" data-name="&lt;Контур&gt;" d="M14.763,248.74s.139,2.378.1,2.534-.937.346-1.187.553,1.3,2.622,2.082,2.981,3.214-.557,3.378-1.765a2.762,2.762,0,0,0-1.022-2.28,4.81,4.81,0,0,0-.671,0l-.072-1.157C16.329,249.272,14.763,248.74,14.763,248.74Z" transform="translate(-11.411 -242.75)" fill="#ffcea9"/>
        <path id="_Контур_13" data-name="&lt;Контур&gt;" d="M13.18,254.286c-.667.106-1.432.46-1.537.845a7.922,7.922,0,0,0,.194,3.974c.579,1.529.967,2.5,1.3,3.163,0,0,2.893,1.242,5.228-.2,0,0,.156-1.643.169-2.534,2.154-1.879.312-4.193-1.512-5.992a3.443,3.443,0,0,0-.659,0s1.63,1.921.5,3.015C14.439,255.81,13.957,254.721,13.18,254.286Z" transform="translate(-10.158 -245.513)" fill="#f4f4f4"/>
        <path id="_Контур_14" data-name="&lt;Контур&gt;" d="M18.9,238.2h0a2.82,2.82,0,0,0-2.922-2.593,3.049,3.049,0,0,0-2.859,3.218,3.015,3.015,0,0,0,1.334,2.327,3.206,3.206,0,0,0,.241.667,4.516,4.516,0,0,0,2.534,1.068c.422,0,.79-.389,1.187-1.047A5.25,5.25,0,0,0,18.9,238.2Z" transform="translate(-11.106 -235.158)" fill="#ffcea9"/>
        <path id="Path_1225" data-name="Path 1225" d="M15.13,235.577c-1.106.215-2.014.528-2.314,1.613a5.791,5.791,0,0,0-.22,2.774l.16.422,1.339.693s.625-.524.422-2.048a1.085,1.085,0,0,1,.186-.579,1.689,1.689,0,0,0,.186-.465,1.714,1.714,0,0,1,.87-.937,2.981,2.981,0,0,1,2.66.127,2.905,2.905,0,0,0-3.29-1.6Z" transform="translate(-10.743 -235.102)" fill="#3a2c6d"/>
        <path id="Path_1226" data-name="Path 1226" d="M13.5,349.83c.562.456,1.432.139,1.474.182a23.864,23.864,0,0,0,2.04,1.579c.351.275.9.642.8,1.17-.177.942-1.689.65-2.259.363s-1.035-.769-1.571-1.1c-.384-.236-.764-.363-.845-.845A3.184,3.184,0,0,1,13.5,349.83Z" transform="translate(-11.118 -301.15)" fill="#38226d"/>
        <path id="Path_1227" data-name="Path 1227" d="M13.188,352.52c.072.465.448.591.845.845.549.338,1.03.845,1.6,1.119s1.837.528,2.209-.144c-.2.908-1.689.625-2.251.338s-1.035-.769-1.571-1.1c-.384-.236-.764-.363-.845-.845a.634.634,0,0,1,.013-.211Z" transform="translate(-11.137 -302.704)" fill="#9c73ff"/>
        <path id="Path_1228" data-name="Path 1228" d="M22.824,348c.515.422,1.267.182,1.326.22a20.733,20.733,0,0,0,1.875,1.432c.317.249.815.587.726,1.068-.16.845-1.546.6-2.065.334s-.95-.7-1.444-1.009c-.351-.215-.7-.329-.752-.777A3.019,3.019,0,0,1,22.824,348Z" transform="translate(-16.52 -300.093)" fill="#38226d"/>
        <path id="Path_1229" data-name="Path 1229" d="M22.5,350.55c.068.422.422.545.756.76.5.313.946.76,1.465,1.026s1.689.486,2.023-.131c-.182.845-1.541.57-2.057.308s-.95-.7-1.444-1.009c-.351-.215-.7-.329-.752-.777A.671.671,0,0,1,22.5,350.55Z" transform="translate(-16.517 -301.566)" fill="#9c73ff"/>
        <path id="Path_1230" data-name="Path 1230" d="M18.255,279.834c-.249-1.93-.959-4.734-.959-4.734a5.722,5.722,0,0,1-2.141.528,17.4,17.4,0,0,1-3.239-.312,20.269,20.269,0,0,1-1.14,1.765A7.6,7.6,0,0,0,9.4,282.5c.173,1.934,1.267,10.135,1.267,10.135A15.317,15.317,0,0,0,10,296.895a35.05,35.05,0,0,0,.676,5.1l.646,4.645s.845.621,1.474.182l-.076-4.561c.072-1.115.182-2.762.253-3.8.118-1.71.422-4.43.511-5.106s.308-1.867.422-3.2.6-8.087.6-8.087l.072,1.267s.063,2.057.359,4.59.4,3.657.4,3.657a5.49,5.49,0,0,0-.6,1.63c-.051.545-.68,4.878-.3,7.082l.769,5.6a1.47,1.47,0,0,0,1.326.173l.452-5.646c.3-2.149.946-6.706,1.043-7.3a24.324,24.324,0,0,0,.384-3.615,78.124,78.124,0,0,0-.152-9.683Z" transform="translate(-8.932 -257.978)" fill="#ffcea9"/>
        <path id="Path_1231" data-name="Path 1231" d="M11.63,273.861,9.966,277.2s-2.534,3.712.093,13.256l-.494,2.956s4.975,3.193,8.307,0c0,0,1.153-8.818.541-12.884a47.052,47.052,0,0,0-1.55-6.909s-.815.9-5.013.3" transform="translate(-8.65 -257.123)" fill="#61c1ef"/>
        <path id="_Контур_15" data-name="&lt;Контур&gt;" d="M23.175,267.532a9.751,9.751,0,0,0-1.267.135,4.133,4.133,0,0,1-1.233.19,7.876,7.876,0,0,1-2.817-1.4,13,13,0,0,1-3.024-3.205,28.353,28.353,0,0,1-2.234-4.138c-.355-1.022-.346-.325-.95-.342-.714,0-1.094.245-.562,1.634a15.481,15.481,0,0,0,2.2,4.008,13.308,13.308,0,0,0,3.18,3.171,16.526,16.526,0,0,0,3.492,1.867c.355.144.583.342,1.225.7a4.6,4.6,0,0,0,2.111.6c.617,0,.845-.118.887-.245s-.055-.266-.338-.291a3.711,3.711,0,0,1-1.313-.262s.612.089.984.106a3.684,3.684,0,0,0,.992-.076c.312-.076.486-.515.2-.549s-.515,0-1.064-.021a3.712,3.712,0,0,1-.845-.156,6.919,6.919,0,0,0,1.1-.08,1.563,1.563,0,0,0,.811-.325c.122-.1.144-.384-.215-.38a5.491,5.491,0,0,1-1.343.068c-.443-.063-.752-.169-.684-.228s.329,0,.7-.135.625-.46.541-.65S23.576,267.461,23.175,267.532Z" transform="translate(-9.789 -248.422)" fill="#ffcea9"/>
        <path id="Path_1232" data-name="Path 1232" d="M11.063,260.636a3.575,3.575,0,0,0,2.555-.933l-1.005-2.111a1.367,1.367,0,0,0-1.546-.874C9.982,257,9.965,258.546,11.063,260.636Z" transform="translate(-9.447 -247.332)" fill="#ededed"/>
        <path id="Path_1233" data-name="Path 1233" d="M24.61,253.521s1.322-.422,2.724,2.534l-.524.317A21.4,21.4,0,0,0,24.61,253.521Z" transform="translate(-17.745 -245.5)" fill="#ededed"/>
      </g>
      <path id="Path_1234" data-name="Path 1234" d="M38,90.148,14.631,76.635l-.089-.051h0a2.6,2.6,0,0,0-2.534.279A8.077,8.077,0,0,0,8.36,83.2a2.5,2.5,0,0,0,1.149,2.394L33.2,99.261Z" transform="translate(-4.83 -44.119)" fill="#61c1ef"/>
      <ellipse id="Ellipse_44" data-name="Ellipse 44" cx="5.16" cy="2.977" rx="5.16" ry="2.977" transform="translate(25.635 53.572) rotate(-60)" fill="#619fef"/>
      <path id="Path_1235" data-name="Path 1235" d="M80.985,127.379,68.81,120.352V115.42l12.175,7.031Z" transform="translate(-39.752 -66.68)" fill="#d6d8e5"/>
      <path id="Path_1236" data-name="Path 1236" d="M80.985,120.259,68.81,113.232l2.8-1.622,12.175,7.031Z" transform="translate(-39.752 -64.479)" fill="#c4c7d6"/>
      <ellipse id="Ellipse_45" data-name="Ellipse 45" cx="15.321" cy="26.537" rx="15.321" ry="26.537" transform="translate(31.223 49.722) rotate(-30)" fill="url(#linear-gradient)"/>
      <path id="Path_1237" data-name="Path 1237" d="M111.644,136.59c-12.563-7.255-22.8-24.962-22.8-39.472s10.224-20.409,22.8-13.154,22.8,24.962,22.8,39.468S124.211,143.841,111.644,136.59Zm0-44.315c-8.6-4.966-15.591-.929-15.591,9s6.993,22.044,15.591,27.027,15.591.925,15.591-9S120.242,97.237,111.644,92.275Z" transform="translate(-51.323 -46.714)" fill="#619fef"/>
      <path id="Path_1238" data-name="Path 1238" d="M105.584,140.09c-12.567-7.255-22.8-24.962-22.8-39.472S93,80.209,105.584,87.464s22.8,24.962,22.8,39.468S118.147,147.345,105.584,140.09Zm0-44.315c-8.6-4.966-15.591-.929-15.591,9s6.993,22.044,15.591,27.027,15.591.925,15.591-9S114.182,100.737,105.584,95.775Z" transform="translate(-47.823 -48.736)" fill="#61c1ef"/>
    </g>
  </g>
</svg>
