<svg xmlns="http://www.w3.org/2000/svg" width="217.652" height="236.499" viewBox="0 0 217.652 236.499">
  <g id="Слой_2" data-name="Слой 2" transform="translate(0 -0.015)">
    <g id="Слой_1" data-name="Слой 1" transform="translate(0 0.015)">
      <g id="monitor" transform="translate(93.378 9.156)">
        <path id="Path_704" data-name="Path 704" d="M277.826,320.791,254.1,307.074c-1.708-.984-1.495-2.71.473-3.85l15.363-8.874,29.913,17.27-15.368,8.874A7.348,7.348,0,0,1,277.826,320.791Z" transform="translate(-226.679 -164.282)" fill="#d6d8e5" opacity="0.4"/>
        <path id="Path_705" data-name="Path 705" d="M282.349,318.158l-23.717-13.694c-1.712-.989-1.495-2.71.473-3.85l15.368-8.874,29.913,17.27-15.363,8.869A7.4,7.4,0,0,1,282.349,318.158Z" transform="translate(-229.064 -162.907)" fill="#b1b4c4"/>
        <path id="Path_706" data-name="Path 706" d="M355.121,327.243v-.9l-1.381.795Z" transform="translate(-279.794 -181.14)" fill="#b1b4c4"/>
        <path id="Path_707" data-name="Path 707" d="M257.48,314.168v-.918l1.419.587Z" transform="translate(-229.066 -174.242)" fill="#b1b4c4"/>
        <path id="Path_708" data-name="Path 708" d="M282.349,316.248l-23.717-13.694c-1.712-.989-1.495-2.715.473-3.855l15.368-8.869,29.913,17.27-15.368,8.869A7.407,7.407,0,0,1,282.349,316.248Z" transform="translate(-229.064 -161.9)" fill="#d6d8e5"/>
        <path id="Path_709" data-name="Path 709" d="M289.464,276.229l-3.7-12.279L316,281.291l3.3,12.171Z" transform="translate(-243.969 -148.262)" fill="#9ea1af"/>
        <path id="Path_710" data-name="Path 710" d="M354.326,325.687l.88-.506L353.9,324.14Z" transform="translate(-279.878 -179.981)" fill="#9ea1af"/>
        <path id="Path_711" data-name="Path 711" d="M287.449,277.2l-3.7-12.284,30.24,17.345,3.368,12.213Z" transform="translate(-242.91 -148.773)" fill="#b1b4c4"/>
        <path id="Path_712" data-name="Path 712" d="M320.138,185.778,203.09,118.2a7.114,7.114,0,0,1-2.971-5.676V21.978c0-2.19,1.329-3.2,2.971-2.247L320.138,87.31a7.105,7.105,0,0,1,2.975,5.676v90.544C323.113,185.721,321.784,186.724,320.138,185.778Z" transform="translate(-198.838 -19.373)" fill="#b1b4c4"/>
        <path id="Path_713" data-name="Path 713" d="M455.13,368.023l1.3-.747-.558-3.846Z" transform="translate(-333.225 -200.686)" fill="#b1b4c4"/>
        <path id="Path_714" data-name="Path 714" d="M199.67,20.488l1.277-.738,1.835,1.064s-1.954.3-2,.289S199.67,20.488,199.67,20.488Z" transform="translate(-198.601 -19.572)" fill="#b1b4c4"/>
        <path id="Path_715" data-name="Path 715" d="M317.872,187.088,200.821,119.508a7.114,7.114,0,0,1-2.971-5.676V23.288c0-2.19,1.329-3.2,2.971-2.247L317.872,88.62a7.114,7.114,0,0,1,2.971,5.676v90.544C320.843,187.031,319.514,188.034,317.872,187.088Z" transform="translate(-197.642 -20.063)" fill="#e4e7f2"/>
        <path id="Path_716" data-name="Path 716" d="M320.408,94.549V185.1c0,2.195-1.334,3.2-2.975,2.247L200.381,119.76a7.114,7.114,0,0,1-2.971-5.676V23.54c0-2.19,1.329-3.193,2.971-2.247L317.432,88.873A7.118,7.118,0,0,1,320.408,94.549Z" transform="translate(-197.41 -20.197)" fill="#d6d8e5"/>
        <path id="Path_717" data-name="Path 717" d="M320.435,184.005,200.55,114.78l.066-88.7c0-.913.634-1.277,1.419-.823L319.087,92.827a3.155,3.155,0,0,1,1.419,2.469Z" transform="translate(-199.065 -22.368)" fill="#fff"/>
        <path id="Path_718" data-name="Path 718" d="M318.582,117.395,212.3,56.031a2.881,2.881,0,0,1-1.211-2.308V46.05c0-.889.539-1.3,1.211-.913l106.281,61.35a2.909,2.909,0,0,1,1.211,2.313v7.672C319.793,117.366,319.249,117.783,318.582,117.395Z" transform="translate(-204.619 -32.873)" fill="#e9eaf2"/>
        <ellipse id="Ellipse_19" data-name="Ellipse 19" cx="1.902" cy="3.292" rx="1.902" ry="3.292" transform="translate(8.048 17.894) rotate(-30)" fill="#dadce5"/>
        <path id="Path_719" data-name="Path 719" d="M327.623,122.587l-9.191-5.312a.714.714,0,0,1-.3-.577v-1.216c0-.227.132-.326.3-.232l9.191,5.312a.714.714,0,0,1,.3.577v1.216C327.926,122.577,327.794,122.681,327.623,122.587Z" transform="translate(-261.028 -69.88)" fill="#dadce5"/>
        <path id="Path_720" data-name="Path 720" d="M359.083,140.79l-9.191-5.307a.719.719,0,0,1-.3-.577v-1.22c0-.222.132-.326.3-.227l9.191,5.307a.714.714,0,0,1,.3.577v1.22C359.386,140.79,359.244,140.865,359.083,140.79Z" transform="translate(-277.607 -79.474)" fill="#dadce5"/>
        <path id="Path_721" data-name="Path 721" d="M390.028,158.617l-9.2-5.307a.743.743,0,0,1-.3-.582v-1.216c0-.222.137-.326.3-.232l9.2,5.312a.714.714,0,0,1,.3.577v1.216C390.331,158.613,390.213,158.7,390.028,158.617Z" transform="translate(-293.912 -88.868)" fill="#dadce5"/>
        <path id="Path_722" data-name="Path 722" d="M421.488,176.8l-9.2-5.307a.733.733,0,0,1-.3-.577v-1.211c0-.222.137-.326.3-.227l9.2,5.307a.724.724,0,0,1,.3.577v1.22C421.791,176.8,421.654,176.895,421.488,176.8Z" transform="translate(-310.491 -98.456)" fill="#dadce5"/>
        <path id="Path_723" data-name="Path 723" d="M392.172,200.543l-24.985-14.427A2.89,2.89,0,0,1,366,183.831V167.682c0-.889.539-1.3,1.206-.913l24.985,14.422A2.909,2.909,0,0,1,393.4,183.5v16.12C393.383,200.519,392.839,200.926,392.172,200.543Z" transform="translate(-286.255 -96.973)" fill="#e9eaf2"/>
        <path id="Path_724" data-name="Path 724" d="M281.265,204.11,218.6,167.924a1.452,1.452,0,0,1-.605-1.154v-2.777c0-.445.274-.648.605-.473l62.67,36.181a1.443,1.443,0,0,1,.605,1.154v2.777C281.852,204.1,281.6,204.3,281.265,204.11Z" transform="translate(-208.255 -95.304)" fill="#e9eaf2"/>
        <path id="Path_725" data-name="Path 725" d="M275.3,216.1l-56.317-32.52a1.443,1.443,0,0,1-.605-1.154v-1.381c0-.445.27-.653.605-.473L275.3,213.083a1.457,1.457,0,0,1,.605,1.154v1.381C275.908,216.082,275.634,216.29,275.3,216.1Z" transform="translate(-208.461 -104.287)" fill="#e9eaf2"/>
        <path id="Path_726" data-name="Path 726" d="M275.3,227.174l-56.317-32.51a1.452,1.452,0,0,1-.605-1.159v-1.381c0-.445.27-.648.605-.473l56.317,32.51a1.466,1.466,0,0,1,.605,1.159V226.7C275.908,227.164,275.634,227.368,275.3,227.174Z" transform="translate(-208.461 -110.128)" fill="#e9eaf2"/>
        <path id="Path_727" data-name="Path 727" d="M260.9,229.941l-41.918-24.2a1.443,1.443,0,0,1-.605-1.154V203.2c0-.445.27-.653.605-.473L260.9,226.946a1.419,1.419,0,0,1,.605,1.154v1.381C261.509,229.926,261.244,230.13,260.9,229.941Z" transform="translate(-208.461 -115.965)" fill="#e9eaf2"/>
        <path id="Path_728" data-name="Path 728" d="M392.756,232.213l-26.191-15.136a1.443,1.443,0,0,1-.605-1.154v-1.381c0-.445.27-.653.605-.473L392.756,229.2a1.447,1.447,0,0,1,.605,1.159v1.381C393.362,232.2,393.092,232.407,392.756,232.213Z" transform="translate(-286.234 -121.941)" fill="#e9eaf2"/>
        <path id="Path_729" data-name="Path 729" d="M392.756,243.29l-26.191-15.136a1.447,1.447,0,0,1-.605-1.159v-1.381c0-.445.27-.648.605-.473l26.191,15.136a1.443,1.443,0,0,1,.605,1.154v1.381C393.362,243.276,393.092,243.489,392.756,243.29Z" transform="translate(-286.234 -127.777)" fill="#e9eaf2"/>
        <path id="Path_730" data-name="Path 730" d="M385.9,250.42l-19.332-11.163a1.443,1.443,0,0,1-.605-1.154v-1.381c0-.445.27-.653.605-.473l19.332,11.2a1.447,1.447,0,0,1,.605,1.159v1.376C386.5,250.41,386.233,250.614,385.9,250.42Z" transform="translate(-286.234 -133.629)" fill="#e9eaf2"/>
        <path id="Path_731" data-name="Path 731" d="M392.172,285.89l-24.985-14.427A2.89,2.89,0,0,1,366,269.155V253.03c0-.889.539-1.3,1.206-.913l24.985,14.422a2.909,2.909,0,0,1,1.211,2.313v16.12C393.383,285.867,392.839,286.274,392.172,285.89Z" transform="translate(-286.255 -141.949)" fill="#e9eaf2"/>
        <path id="Path_732" data-name="Path 732" d="M392.756,317.563l-26.191-15.136a1.443,1.443,0,0,1-.605-1.154v-1.381c0-.445.27-.653.605-.473l26.191,15.136a1.447,1.447,0,0,1,.605,1.159v1.381C393.362,317.553,393.092,317.757,392.756,317.563Z" transform="translate(-286.234 -166.919)" fill="#e9eaf2"/>
        <path id="Path_733" data-name="Path 733" d="M378.408,196.539l-1.755-4.517-3.193,4.541,3.505,2.024,2.881,1.665,6.424,3.708-4.65-11.991Z" transform="translate(-290.186 -110.329)" fill="#61c1ef"/>
        <ellipse id="Ellipse_20" data-name="Ellipse 20" cx="1.708" cy="2.961" rx="1.708" ry="2.961" transform="translate(98.207 84.712) rotate(-30)" fill="#61c1ef"/>
        <path id="Path_734" data-name="Path 734" d="M378.793,283.149l-1.75-4.517-3.193,4.541,3.505,2.024,2.881,1.66,6.423,3.708L382,278.58Z" transform="translate(-290.392 -155.972)" fill="#61c1ef"/>
        <ellipse id="Ellipse_21" data-name="Ellipse 21" cx="1.713" cy="2.971" rx="1.713" ry="2.971" transform="translate(99.152 126.209) rotate(-29.887)" fill="#61c1ef"/>
        <path id="Path_735" data-name="Path 735" d="M281.374,150.867l-60.716-34.88a2.592,2.592,0,0,1-1.088-2.072V85.624c0-.795.473-1.164,1.088-.818l60.716,34.88a2.6,2.6,0,0,1,1.083,2.072v28.291C282.457,150.848,281.97,151.217,281.374,150.867Z" transform="translate(-209.088 -53.787)" fill="#e9eaf2"/>
        <path id="Path_736" data-name="Path 736" d="M248.107,140.594l-3-7.724-5.459,7.767,5.993,3.458,4.924,2.843,10.983,6.343-7.956-20.5Z" transform="translate(-219.67 -79.137)" fill="#61c1ef"/>
        <ellipse id="Ellipse_22" data-name="Ellipse 22" cx="2.923" cy="5.061" rx="2.923" ry="5.061" transform="translate(56.66 66.937) rotate(-30)" fill="#61c1ef"/>
      </g>
      <path id="Path_737" data-name="Path 737" d="M211.16,116.985v42.382c0,1.58-.946,2.308-2.147,1.622l-11.6-6.684V106.2l11.6,6.693A5.156,5.156,0,0,1,211.16,116.985Z" transform="translate(-104.032 -55.973)" opacity="0.05"/>
      <path id="Path_738" data-name="Path 738" d="M160.4,75.441,124.749,54.861a1.419,1.419,0,0,0-1.263-.175h0a1.111,1.111,0,0,0-.27.156l-1.116.648.52.7v42.68a5.1,5.1,0,0,0,2.147,4.1l34.97,20.193.445,1.419,1.528-.856a1.135,1.135,0,0,0,.218-.128h0a2.025,2.025,0,0,0,.629-1.665V79.547A5.207,5.207,0,0,0,160.4,75.441Z" transform="translate(-64.345 -28.786)" fill="#d6d8e5"/>
      <path id="Path_739" data-name="Path 739" d="M157.808,125.319l-35.651-20.581a5.154,5.154,0,0,1-2.147-4.106V58.255c0-1.58.946-2.308,2.147-1.622l35.651,20.581a5.141,5.141,0,0,1,2.147,4.106V123.7C159.956,125.257,159,126,157.808,125.319Z" transform="translate(-63.244 -29.716)" fill="#f5f7fc"/>
      <path id="Path_740" data-name="Path 740" d="M131.82,111.384l.856.5V74.187l-.856-.5Z" transform="translate(-69.467 -38.841)" fill="#dadce5"/>
      <path id="Path_741" data-name="Path 741" d="M131.054,102.019h0a3.59,3.59,0,0,1-1.5-2.871V94.725c0-1.107.672-1.613,1.5-1.135h0a3.6,3.6,0,0,1,1.5,2.871v4.423C132.554,101.99,131.882,102.5,131.054,102.019Z" transform="translate(-68.271 -49.233)" fill="#61c1ef"/>
      <path id="Path_742" data-name="Path 742" d="M151.26,122.33l.861.5V85.137l-.861-.5Z" transform="translate(-79.712 -44.611)" fill="#dadce5"/>
      <path id="Path_743" data-name="Path 743" d="M150.494,139.173h0a3.619,3.619,0,0,1-1.5-2.876v-4.423c0-1.107.676-1.613,1.5-1.135h0a3.6,3.6,0,0,1,1.5,2.871v4.423C152,139.14,151.327,139.651,150.494,139.173Z" transform="translate(-78.516 -68.811)" fill="#61c1ef"/>
      <path id="Path_744" data-name="Path 744" d="M170.71,133.554l.861.5V96.357l-.861-.5Z" transform="translate(-89.962 -50.524)" fill="#dadce5"/>
      <path id="Path_745" data-name="Path 745" d="M169.944,113.7h0a3.6,3.6,0,0,1-1.5-2.871V106.41c0-1.107.672-1.618,1.5-1.14h0a3.619,3.619,0,0,1,1.5,2.876v4.423C171.448,113.676,170.772,114.182,169.944,113.7Z" transform="translate(-88.766 -55.389)" fill="#61c1ef"/>
      <path id="Path_746" data-name="Path 746" d="M190.16,144.784l.856.492v-37.69l-.856-.5Z" transform="translate(-100.212 -56.442)" fill="#dadce5"/>
      <path id="Path_747" data-name="Path 747" d="M189.394,145.9h0a3.59,3.59,0,0,1-1.5-2.871V138.6c0-1.107.672-1.613,1.5-1.135h0a3.6,3.6,0,0,1,1.5,2.871v4.423C190.894,145.87,190.222,146.381,189.394,145.9Z" transform="translate(-99.016 -72.357)" fill="#61c1ef"/>
      <g id="Coin" transform="translate(60.281 122.456)">
        <ellipse id="Ellipse_23" data-name="Ellipse 23" cx="13.15" cy="7.592" rx="13.15" ry="7.592" transform="translate(0 5.208)" fill="#d6d8e5" opacity="0.3"/>
        <ellipse id="Ellipse_24" data-name="Ellipse 24" cx="13.15" cy="7.592" rx="13.15" ry="7.592" transform="translate(3.254 3.254)" fill="#dd990e"/>
        <path id="Path_748" data-name="Path 748" d="M134.33,278.218V274.76l2.6,2.313Z" transform="translate(-131.071 -267.258)" fill="#dd990e"/>
        <path id="Path_749" data-name="Path 749" d="M187.717,274.95V278.2l-1.329,1.41-.648-3.723Z" transform="translate(-158.163 -267.358)" fill="#dd990e"/>
        <ellipse id="Ellipse_25" data-name="Ellipse 25" cx="13.15" cy="7.592" rx="13.15" ry="7.592" transform="translate(3.254)" fill="#f9cb07"/>
        <path id="Path_750" data-name="Path 750" d="M161.044,269.033a4.888,4.888,0,0,1-2.739,3.519,14.739,14.739,0,0,1-13.315,0,4.877,4.877,0,0,1-2.739-3.519c-.156-1.495.757-3.027,2.739-4.167a14.71,14.71,0,0,1,13.315,0C160.282,266.005,161.2,267.538,161.044,269.033Z" transform="translate(-135.236 -261.204)" fill="#cc8b09"/>
        <path id="Path_751" data-name="Path 751" d="M161.063,269.755a4.888,4.888,0,0,1-2.739,3.519,14.739,14.739,0,0,1-13.315,0,3.63,3.63,0,0,1,0-7.038,14.71,14.71,0,0,1,13.315,0A4.912,4.912,0,0,1,161.063,269.755Z" transform="translate(-135.255 -261.926)" fill="#e8a30a"/>
        <path id="Path_752" data-name="Path 752" d="M156.876,270.72a1.784,1.784,0,0,0-.345.028,2.651,2.651,0,0,0-.52.095c-.194.043-.393.09-.6.151a3.961,3.961,0,0,0-.587.227l1.509.87.274-.095c.383-.128.747-.236,1.088-.326a5.025,5.025,0,0,1,.979-.161,3.311,3.311,0,0,1,.9.062,2.776,2.776,0,0,1,.861.336,1.7,1.7,0,0,1,.653.572.781.781,0,0,1,.095.591,1.291,1.291,0,0,1-.355.582,3.661,3.661,0,0,1-.691.544l.946.553-.52.3-.974-.558a7.823,7.823,0,0,1-1.419.544,9.185,9.185,0,0,1-1.594.3l-.506-.908a3.639,3.639,0,0,0,.426-.033,5.577,5.577,0,0,0,.634-.109c.232-.047.473-.114.738-.189a5.055,5.055,0,0,0,.738-.274l-1.5-.866-.194.066-.208.061a10.256,10.256,0,0,1-1.041.293,4.73,4.73,0,0,1-.885.118,3.018,3.018,0,0,1-.785-.071,2.677,2.677,0,0,1-.724-.293,1.893,1.893,0,0,1-.629-.539.946.946,0,0,1-.17-.587,1.088,1.088,0,0,1,.246-.587,2.838,2.838,0,0,1,.615-.553l-.894-.516.525-.3.885.511a6.263,6.263,0,0,1,1.3-.473,9.982,9.982,0,0,1,1.3-.236Zm-2.568,1.566a1.107,1.107,0,0,0,.653.142,4.333,4.333,0,0,0,.9-.2l-1.419-.818C153.929,271.766,153.882,272.059,154.308,272.286Zm4.962.412a1.117,1.117,0,0,0-.7-.123,5.27,5.27,0,0,0-.989.218L159,273.6c.587-.345.681-.648.274-.885Z" transform="translate(-140.609 -264.671)" fill="#cc8b09"/>
        <path id="Path_753" data-name="Path 753" d="M160.11,278.961v-.511l.577.374-.251.383Z" transform="translate(-144.657 -269.203)" fill="#cc8b09"/>
        <path id="Path_754" data-name="Path 754" d="M169.359,279.641v-.511l-1.249.1.719.487Z" transform="translate(-148.873 -269.561)" fill="#cc8b09"/>
        <path id="Path_755" data-name="Path 755" d="M169.937,275.686v-.516l-.937.336Z" transform="translate(-149.342 -267.474)" fill="#cc8b09"/>
        <path id="Path_756" data-name="Path 756" d="M162.78,275.868l.312-.3,1.1.757-.066.227s-.823-.345-.851-.369Z" transform="translate(-146.064 -267.685)" fill="#cc8b09"/>
        <path id="Path_757" data-name="Path 757" d="M156.7,272.431l1.457.828.3-.218s-.18-.208-.194-.232a2.038,2.038,0,0,0-.473-.378,5.957,5.957,0,0,1-.8-.331Z" transform="translate(-142.86 -265.856)" fill="#cc8b09"/>
        <path id="Path_758" data-name="Path 758" d="M160.924,270.878v-.511l-.672-.218-.142.4.038.18Z" transform="translate(-144.657 -264.829)" fill="#cc8b09"/>
        <path id="Path_759" data-name="Path 759" d="M152.42,270.341v-.511l.776.085-.251.492Z" transform="translate(-140.604 -264.66)" fill="#cc8b09"/>
        <path id="Path_760" data-name="Path 760" d="M152.48,273.98v-.53h.894l-.218.473-.388.426Z" transform="translate(-140.636 -266.568)" fill="#cc8b09"/>
        <path id="Path_761" data-name="Path 761" d="M156.876,269.646a1.789,1.789,0,0,0-.345.028c-.156.024-.326.052-.52.095s-.393.09-.6.151a3.964,3.964,0,0,0-.587.227l1.509.87.274-.095c.383-.128.747-.237,1.088-.326a5.021,5.021,0,0,1,.979-.161,3.31,3.31,0,0,1,.9.062,2.776,2.776,0,0,1,.861.336,1.7,1.7,0,0,1,.653.572.78.78,0,0,1,.095.591,1.291,1.291,0,0,1-.355.582,3.658,3.658,0,0,1-.691.544l.946.558-.52.3-.974-.563a7.819,7.819,0,0,1-1.419.544,9.186,9.186,0,0,1-1.594.3l-.506-.908a3.639,3.639,0,0,0,.426-.033,5.585,5.585,0,0,0,.634-.109c.232-.047.473-.114.738-.189a5.052,5.052,0,0,0,.738-.274l-1.5-.866-.194.066-.208.061a10.248,10.248,0,0,1-1.041.293,4.386,4.386,0,0,1-.885.118,3.017,3.017,0,0,1-.785-.071,2.676,2.676,0,0,1-.724-.293,1.826,1.826,0,0,1-.629-.539.946.946,0,0,1-.17-.582,1.1,1.1,0,0,1,.246-.591,2.839,2.839,0,0,1,.615-.553l-.894-.516.525-.3.885.511a6.544,6.544,0,0,1,1.3-.473,9.205,9.205,0,0,1,1.3-.232Zm-2.568,1.6a1.107,1.107,0,0,0,.653.142,4.331,4.331,0,0,0,.9-.2l-1.419-.818C153.929,270.691,153.882,270.984,154.308,271.249Zm4.962.416a1.117,1.117,0,0,0-.7-.128,5.678,5.678,0,0,0-.989.218l1.419.814c.587-.374.681-.691.274-.922Z" transform="translate(-140.609 -264.107)" fill="#f9ca06"/>
      </g>
      <g id="Coin-2" data-name="Coin" transform="translate(64.609 118.407)">
        <ellipse id="Ellipse_26" data-name="Ellipse 26" cx="13.15" cy="7.592" rx="13.15" ry="7.592" transform="translate(0 3.254)" fill="#dd990e"/>
        <path id="Path_762" data-name="Path 762" d="M136.6,269.658V266.2l2.6,2.313Z" transform="translate(-136.595 -258.698)" fill="#dd990e"/>
        <path id="Path_763" data-name="Path 763" d="M189.987,266.39v3.254l-1.329,1.41-.648-3.723Z" transform="translate(-163.688 -258.798)" fill="#dd990e"/>
        <ellipse id="Ellipse_27" data-name="Ellipse 27" cx="13.15" cy="7.592" rx="13.15" ry="7.592" fill="#f9cb07"/>
        <path id="Path_764" data-name="Path 764" d="M163.3,260.473a4.888,4.888,0,0,1-2.739,3.519,14.739,14.739,0,0,1-13.315,0,4.876,4.876,0,0,1-2.739-3.519c-.156-1.495.757-3.027,2.739-4.167a14.71,14.71,0,0,1,13.315,0C162.547,257.445,163.46,258.978,163.3,260.473Z" transform="translate(-140.755 -252.644)" fill="#cc8b09"/>
        <path id="Path_765" data-name="Path 765" d="M163.323,261.195a4.888,4.888,0,0,1-2.739,3.519,14.739,14.739,0,0,1-13.315,0,3.63,3.63,0,0,1,0-7.038,14.71,14.71,0,0,1,13.315,0A4.865,4.865,0,0,1,163.323,261.195Z" transform="translate(-140.774 -253.366)" fill="#e8a30a"/>
        <path id="Path_766" data-name="Path 766" d="M159.146,262.176a1.787,1.787,0,0,0-.345.028,2.651,2.651,0,0,0-.52.095c-.194.043-.393.09-.6.151a3.826,3.826,0,0,0-.591.227l1.533.856.27-.095c.383-.128.747-.236,1.088-.326a5.023,5.023,0,0,1,.979-.161,3.31,3.31,0,0,1,.9.061,2.776,2.776,0,0,1,.861.336,1.7,1.7,0,0,1,.653.572.757.757,0,0,1,.095.591,1.292,1.292,0,0,1-.355.582,3.662,3.662,0,0,1-.691.544l.946.553-.525.3-.946-.558a7.875,7.875,0,0,1-1.443.544,9.179,9.179,0,0,1-1.594.3l-.53-.88a3.633,3.633,0,0,0,.426-.033,5.415,5.415,0,0,0,.634-.109c.232-.047.473-.114.738-.189a5.057,5.057,0,0,0,.738-.274l-1.5-.866-.194.066-.208.061a10.239,10.239,0,0,1-1.041.293,4.386,4.386,0,0,1-.885.118,3.019,3.019,0,0,1-.785-.071,2.74,2.74,0,0,1-.724-.293,1.892,1.892,0,0,1-.629-.539.946.946,0,0,1-.17-.582,1.107,1.107,0,0,1,.251-.591,2.7,2.7,0,0,1,.61-.553l-.889-.516.52-.3.885.511a6.262,6.262,0,0,1,1.3-.473,9.976,9.976,0,0,1,1.3-.237Zm-2.568,1.585a1.107,1.107,0,0,0,.653.142,4.329,4.329,0,0,0,.9-.2l-1.419-.818C156.2,263.221,156.152,263.534,156.578,263.761Zm4.962.411a1.1,1.1,0,0,0-.7-.123,5.27,5.27,0,0,0-.989.218l1.419.809C161.852,264.711,161.937,264.409,161.54,264.172Z" transform="translate(-146.134 -256.126)" fill="#cc8b09"/>
        <path id="Path_767" data-name="Path 767" d="M162.38,270.431v-.511l.577.374-.251.383Z" transform="translate(-150.181 -260.658)" fill="#cc8b09"/>
        <path id="Path_768" data-name="Path 768" d="M171.633,271.086v-.506l-1.253.095.719.487Z" transform="translate(-154.397 -261.006)" fill="#cc8b09"/>
        <path id="Path_769" data-name="Path 769" d="M172.207,267.126v-.516l-.937.336Z" transform="translate(-154.866 -258.914)" fill="#cc8b09"/>
        <path id="Path_770" data-name="Path 770" d="M165.05,267.308l.312-.3,1.1.757-.066.227s-.823-.345-.847-.369Z" transform="translate(-151.588 -259.125)" fill="#cc8b09"/>
        <path id="Path_771" data-name="Path 771" d="M159,263.876l1.462.828.3-.218-.2-.227a1.925,1.925,0,0,0-.473-.383,6,6,0,0,1-.8-.326Z" transform="translate(-148.4 -257.301)" fill="#cc8b09"/>
        <path id="Path_772" data-name="Path 772" d="M163.194,262.318v-.511l-.667-.218-.147.4.038.18Z" transform="translate(-150.181 -256.269)" fill="#cc8b09"/>
        <path id="Path_773" data-name="Path 773" d="M154.69,261.781v-.511l.78.085-.251.5Z" transform="translate(-146.128 -256.1)" fill="#cc8b09"/>
        <path id="Path_774" data-name="Path 774" d="M154.76,265.41v-.53h.889l-.218.473-.388.426Z" transform="translate(-146.165 -258.002)" fill="#cc8b09"/>
        <path id="Path_775" data-name="Path 775" d="M159.157,261.086a1.792,1.792,0,0,0-.345.028c-.156.024-.326.052-.52.095s-.393.09-.6.151a3.838,3.838,0,0,0-.591.227l1.533.894.27-.095c.383-.128.747-.237,1.088-.326a5.023,5.023,0,0,1,.979-.161,3.31,3.31,0,0,1,.9.062,2.776,2.776,0,0,1,.861.336,1.7,1.7,0,0,1,.653.572.761.761,0,0,1,.095.591,1.291,1.291,0,0,1-.355.582,3.478,3.478,0,0,1-.7.52l.946.558-.525.3-.946-.563a7.869,7.869,0,0,1-1.443.544,9.185,9.185,0,0,1-1.594.3l-.506-.908a3.639,3.639,0,0,0,.426-.033,5.409,5.409,0,0,0,.634-.109c.232-.047.473-.113.738-.189a5.059,5.059,0,0,0,.738-.274l-1.5-.866-.194.066-.208.066c-.378.123-.724.218-1.041.289a4.777,4.777,0,0,1-.885.123,3.231,3.231,0,0,1-.785-.076,2.739,2.739,0,0,1-.724-.293,1.778,1.778,0,0,1-.629-.539.946.946,0,0,1-.17-.582,1.107,1.107,0,0,1,.251-.591,2.7,2.7,0,0,1,.61-.553l-.889-.516.52-.3.885.511a6.548,6.548,0,0,1,1.3-.473,9.205,9.205,0,0,1,1.3-.232Zm-2.568,1.585a1.107,1.107,0,0,0,.653.142,4.048,4.048,0,0,0,.9-.2l-1.419-.814C156.21,262.131,156.163,262.424,156.588,262.67Zm4.962.416a1.107,1.107,0,0,0-.7-.128,5.68,5.68,0,0,0-.989.218l1.419.814c.587-.369.672-.672.274-.9Z" transform="translate(-146.144 -255.547)" fill="#f9ca06"/>
      </g>
      <g id="Coin-3" data-name="Coin" transform="translate(63.805 114.509)">
        <ellipse id="Ellipse_28" data-name="Ellipse 28" cx="13.15" cy="7.592" rx="13.15" ry="7.592" transform="translate(0 3.254)" fill="#dd990e"/>
        <path id="Path_776" data-name="Path 776" d="M134.89,261.418V257.96l2.6,2.313Z" transform="translate(-134.89 -250.458)" fill="#dd990e"/>
        <path id="Path_777" data-name="Path 777" d="M188.282,258.15V261.4l-1.329,1.41-.653-3.723Z" transform="translate(-161.982 -250.558)" fill="#dd990e"/>
        <ellipse id="Ellipse_29" data-name="Ellipse 29" cx="13.15" cy="7.592" rx="13.15" ry="7.592" fill="#f9cb07"/>
        <path id="Path_778" data-name="Path 778" d="M161.6,252.233a4.876,4.876,0,0,1-2.739,3.519,14.739,14.739,0,0,1-13.315,0,4.869,4.869,0,0,1-2.734-3.519c-.161-1.495.752-3.027,2.734-4.167a14.71,14.71,0,0,1,13.315,0C160.865,249.205,161.754,250.738,161.6,252.233Z" transform="translate(-139.054 -244.404)" fill="#cc8b09"/>
        <path id="Path_779" data-name="Path 779" d="M161.618,252.955a4.876,4.876,0,0,1-2.739,3.519,14.739,14.739,0,0,1-13.315,0,3.632,3.632,0,0,1,0-7.038,14.71,14.71,0,0,1,13.315,0A4.918,4.918,0,0,1,161.618,252.955Z" transform="translate(-139.074 -245.126)" fill="#e8a30a"/>
        <path id="Path_780" data-name="Path 780" d="M157.446,253.92a1.761,1.761,0,0,0-.345.028,2.592,2.592,0,0,0-.52.095c-.189.043-.393.09-.6.151a4.025,4.025,0,0,0-.591.227l1.514.87.27-.095c.388-.128.747-.237,1.088-.326a5.022,5.022,0,0,1,.979-.161,3.353,3.353,0,0,1,.9.062,2.838,2.838,0,0,1,.861.336,1.717,1.717,0,0,1,.648.572.78.78,0,0,1,.1.591,1.381,1.381,0,0,1-.355.582,3.816,3.816,0,0,1-.691.544l.946.553-.525.3-.97-.558a7.742,7.742,0,0,1-1.419.544,9.225,9.225,0,0,1-1.589.3l-.506-.908a3.653,3.653,0,0,0,.421-.033,5.414,5.414,0,0,0,.634-.109c.237-.047.473-.114.738-.189a5.328,5.328,0,0,0,.743-.274l-1.5-.866-.2.066-.2.061a10.61,10.61,0,0,1-1.041.293,4.8,4.8,0,0,1-.889.118,3,3,0,0,1-.78-.071,2.614,2.614,0,0,1-.724-.293,1.892,1.892,0,0,1-.629-.539.9.9,0,0,1-.175-.582,1.131,1.131,0,0,1,.251-.591,2.7,2.7,0,0,1,.61-.553l-.894-.516.525-.3.885.511a6.149,6.149,0,0,1,1.3-.473,9.934,9.934,0,0,1,1.3-.237Zm-2.554,1.585a1.116,1.116,0,0,0,.657.142,4.3,4.3,0,0,0,.9-.2l-1.419-.818Q154.235,255.136,154.892,255.5Zm4.967.412a1.126,1.126,0,0,0-.71-.123,5.352,5.352,0,0,0-.989.218l1.419.809c.572-.364.667-.667.26-.9Z" transform="translate(-144.434 -247.87)" fill="#cc8b09"/>
        <path id="Path_781" data-name="Path 781" d="M160.68,262.161v-.511l.577.374-.251.383Z" transform="translate(-148.481 -252.403)" fill="#cc8b09"/>
        <path id="Path_782" data-name="Path 782" d="M169.929,262.841v-.511l-1.249.1.714.487Z" transform="translate(-152.697 -252.761)" fill="#cc8b09"/>
        <path id="Path_783" data-name="Path 783" d="M170.5,258.886v-.516l-.937.336Z" transform="translate(-153.161 -250.674)" fill="#cc8b09"/>
        <path id="Path_784" data-name="Path 784" d="M163.34,259.068l.312-.3,1.1.757-.071.227s-.818-.345-.847-.369Z" transform="translate(-149.883 -250.885)" fill="#cc8b09"/>
        <path id="Path_785" data-name="Path 785" d="M157.27,255.631l1.457.828.3-.218-.2-.227a1.831,1.831,0,0,0-.473-.383,6.23,6.23,0,0,1-.8-.331Z" transform="translate(-146.684 -249.056)" fill="#cc8b09"/>
        <path id="Path_786" data-name="Path 786" d="M161.494,254.078v-.511l-.672-.218-.142.4.033.18Z" transform="translate(-148.481 -248.029)" fill="#cc8b09"/>
        <path id="Path_787" data-name="Path 787" d="M152.99,253.541v-.511l.776.085-.251.492Z" transform="translate(-144.428 -247.86)" fill="#cc8b09"/>
        <path id="Path_788" data-name="Path 788" d="M153.05,257.18v-.53h.889l-.218.473-.383.426Z" transform="translate(-144.46 -249.768)" fill="#cc8b09"/>
        <path id="Path_789" data-name="Path 789" d="M157.446,252.83a1.764,1.764,0,0,0-.345.028,2.592,2.592,0,0,0-.52.095c-.189.043-.393.09-.6.151a4.025,4.025,0,0,0-.591.227l1.514.87.27-.095c.388-.128.747-.236,1.088-.326a5.023,5.023,0,0,1,.979-.161,3.355,3.355,0,0,1,.9.062,2.838,2.838,0,0,1,.861.336,1.717,1.717,0,0,1,.648.572.785.785,0,0,1,.1.591,1.381,1.381,0,0,1-.355.582,3.624,3.624,0,0,1-.691.544l.946.558-.525.3-.97-.563a7.744,7.744,0,0,1-1.419.544,9.216,9.216,0,0,1-1.589.3l-.506-.908a3.646,3.646,0,0,0,.421-.033,5.414,5.414,0,0,0,.634-.109c.237-.047.473-.114.738-.189a5.334,5.334,0,0,0,.743-.274l-1.5-.866-.2.066-.2.061a10.593,10.593,0,0,1-1.041.293,4.426,4.426,0,0,1-.889.118,3,3,0,0,1-.78-.071,2.615,2.615,0,0,1-.724-.293,1.826,1.826,0,0,1-.629-.539.9.9,0,0,1-.175-.582,1.145,1.145,0,0,1,.251-.591,2.7,2.7,0,0,1,.61-.553l-.894-.53.525-.3.885.511a6.439,6.439,0,0,1,1.3-.473,9.149,9.149,0,0,1,1.3-.232Zm-2.554,1.585a1.116,1.116,0,0,0,.657.142,4.3,4.3,0,0,0,.9-.2l-1.419-.818Q154.235,254.045,154.892,254.414Zm4.967.416a1.126,1.126,0,0,0-.71-.128,5.767,5.767,0,0,0-.989.218l1.419.814c.572-.369.667-.672.26-.922Z" transform="translate(-144.434 -247.291)" fill="#f9ca06"/>
      </g>
      <path id="Path_790" data-name="Path 790" d="M398.717,421.126l-27.577-15.917a1.551,1.551,0,0,1,0-2.682h0a1.542,1.542,0,0,1,1.551,0l27.572,15.917a1.552,1.552,0,0,1-.18,2.772h0a1.556,1.556,0,0,1-1.367-.09Z" transform="translate(-195.18 -212.023)" fill="#d6d8e5" opacity="0.4"/>
      <path id="Path_791" data-name="Path 791" d="M385.194,372.971c-9.867-5.7-17.894-19.6-17.894-31s8.041-16.03,17.894-10.331,17.913,19.6,17.913,31S395.066,378.666,385.194,372.971Zm0-37.628c-8.1-4.678-14.692-.875-14.692,8.481s6.589,20.761,14.692,25.448,14.7.87,14.7-8.472S393.3,340.016,385.194,335.342Z" transform="translate(-193.562 -173.494)" fill="#619fef"/>
      <path id="Path_792" data-name="Path 792" d="M373.2,332.638l3.283-1.788-.492,2.247Z" transform="translate(-196.671 -174.361)" fill="#619fef"/>
      <path id="Path_793" data-name="Path 793" d="M425.44,425.151c.08-.038,3.585-2,3.585-2l-2.71-.435Z" transform="translate(-224.201 -222.775)" fill="#d33d3d"/>
      <ellipse id="Ellipse_30" data-name="Ellipse 30" cx="13.306" cy="23.045" rx="13.306" ry="23.045" transform="translate(166.306 166.778) rotate(-30)" fill="#f4f4f4"/>
      <path id="Path_794" data-name="Path 794" d="M380.369,375.65c-9.867-5.7-17.9-19.6-17.9-31s8.041-16.03,17.9-10.331,17.894,19.6,17.894,31S390.236,381.346,380.369,375.65Zm0-37.628c-8.1-4.678-14.692-.875-14.692,8.481s6.589,20.77,14.692,25.448,14.692.87,14.692-8.481S388.472,342.7,380.369,338.022Z" transform="translate(-191.017 -174.906)" fill="#61c1ef"/>
      <path id="Path_795" data-name="Path 795" d="M387.957,377.58c-6.116-3.533-11.087-12.147-11.087-19.2s4.971-9.933,11.087-6.4,11.087,12.142,11.087,19.2S394.069,381.109,387.957,377.58Zm0-21.905c-4.347-2.512-7.885-.473-7.885,4.55a17.451,17.451,0,0,0,7.885,13.656c4.347,2.512,7.895.487,7.895-4.555A17.416,17.416,0,0,0,387.957,355.675Z" transform="translate(-198.605 -184.698)" fill="#61c1ef"/>
      <path id="Path_796" data-name="Path 796" d="M395.425,379.482a9.749,9.749,0,0,1-4.385-7.6c0-2.791,1.968-3.926,4.385-2.531a9.7,9.7,0,0,1,4.385,7.592C399.81,379.738,397.842,380.878,395.425,379.482Zm0-6.428c-.653-.378-1.183-.071-1.183.681a2.621,2.621,0,0,0,1.183,2.048c.653.374,1.183.071,1.183-.686a2.606,2.606,0,0,0-1.183-2.043Z" transform="translate(-206.073 -194.338)" fill="#61c1ef"/>
      <path id="Path_797" data-name="Path 797" d="M334.021,414.9l-1.641.019,5.326-2.261-3.089,1.92Z" transform="translate(-175.16 -217.474)" fill="#fff"/>
      <ellipse id="Ellipse_31" data-name="Ellipse 31" cx="0.341" cy="0.591" rx="0.341" ry="0.591" transform="translate(158.684 197.336) rotate(-30)" fill="#2a2d79"/>
      <ellipse id="Ellipse_32" data-name="Ellipse 32" cx="0.341" cy="0.591" rx="0.341" ry="0.591" transform="translate(188.837 179.896) rotate(-30)" fill="#2a2d79"/>
      <path id="Path_798" data-name="Path 798" d="M337.783,417.556l-.393-1.632,4.285-2.734-.184.388Z" transform="translate(-177.8 -217.753)" fill="#fff"/>
      <path id="Path_799" data-name="Path 799" d="M336.71,398.421c.038-.033,30.136-17.431,30.136-17.431l-.553-1.041L336.1,397.395Z" transform="translate(-177.12 -200.236)" fill="#2a2d79"/>
      <g id="Girl_12" transform="translate(119.652)">
        <path id="_Контур_" data-name="&lt;Контур&gt;" d="M274.672.792c.4-.629,3.472-1.074,4.5,1.537.388.993.326,3.524.648,5.113s1.078,2.493,1.353,3.784-.17,3.453-3.283,3.836-5.5-.71-6.239-1.7a4.29,4.29,0,0,1,0-4.229A5.8,5.8,0,0,0,272.974,5.6Z" transform="translate(-262.514 -0.17)" fill="#3a2c6d"/>
        <path id="_Контур_2" data-name="&lt;Контур&gt;" d="M277.593.188s-2.341-.653-3.751.582a3.458,3.458,0,0,0-.979,3.444c.184.733.563,1.731,1.145,1.788S277.593.188,277.593.188Z" transform="translate(-263.383 -0.015)" fill="#3a2c6d"/>
        <path id="_Контур_3" data-name="&lt;Контур&gt;" d="M279.515,13.76s-.156,2.587-.109,2.781,1.017.374,1.291.6-1.419,2.838-2.261,3.235-3.5-.6-3.68-1.916a3.03,3.03,0,0,1,1.112-2.483,6.944,6.944,0,0,1,.728,0l.076-1.253C277.832,14.347,279.515,13.76,279.515,13.76Z" transform="translate(-264.434 -7.259)" fill="#ffcea9"/>
        <path id="_Контур_4" data-name="&lt;Контур&gt;" d="M260.488,30.51a13.571,13.571,0,0,1-2.578,2.682,12.727,12.727,0,0,0-.88,1.017,3.888,3.888,0,0,1-1.731,1.149c-.587.151-.832.114-.946,0s-.052-.274.2-.374a3.283,3.283,0,0,0,1.135-.615s-.544.255-.885.374a3.5,3.5,0,0,1-.946.189c-.322,0-.658-.374-.4-.473s.473-.123.989-.307a3.2,3.2,0,0,0,.752-.383,6.991,6.991,0,0,1-1.069.218,1.627,1.627,0,0,1-.889-.1c-.151-.061-.279-.336.057-.426a5.085,5.085,0,0,0,1.282-.3c.4-.18.643-.369.558-.407s-.312.085-.71.057-.766-.284-.762-.473.085-.095.473-.128a8.816,8.816,0,0,1,1.272-.279,3.973,3.973,0,0,0,1.23-.147,7.988,7.988,0,0,0,2.1-2.3,15.182,15.182,0,0,0,1.854-3.756c.435-1.419.946-4.115,1.324-5.047A1.905,1.905,0,0,1,263.53,19.3c.714,0,1.017.918.828,1.726C264.012,22.469,262.428,27.947,260.488,30.51Z" transform="translate(-253.023 -10.178)" fill="#ffcea9"/>
        <path id="_Контур_5" data-name="&lt;Контур&gt;" d="M277.929,19.237c.724.109,1.556.5,1.67.9a8.6,8.6,0,0,1-.208,4.319c-.629,1.665-1.339,4.669-1.7,5.388a8.472,8.472,0,0,1-5.416-1.06s-.151-2.895-.166-3.85c-2.337-2.043-.336-4.56,1.646-6.518a4.508,4.508,0,0,1,.714,0s-1.769,2.1-.539,3.283C276.562,20.893,277.087,19.706,277.929,19.237Z" transform="translate(-262.493 -9.704)" fill="#f4f4f4"/>
        <path id="_Контур_6" data-name="&lt;Контур&gt;" d="M274.466,3.858h0a3.058,3.058,0,0,1,3.174-2.814,3.311,3.311,0,0,1,1.66,6.021,3.348,3.348,0,0,1-.265.728,4.933,4.933,0,0,1-2.753,1.164c-.53.009-.856-.426-1.291-1.14A5.671,5.671,0,0,1,274.466,3.858Z" transform="translate(-264.219 -0.554)" fill="#ffcea9"/>
        <path id="Path_800" data-name="Path 800" d="M278.471,1c1.2.237,2.19.572,2.516,1.755a6.345,6.345,0,0,1,.237,3.018l-.17.473-1.457.747s-.681-.563-.473-2.223a1.178,1.178,0,0,0-.2-.629,1.688,1.688,0,0,1-.194-.5,1.892,1.892,0,0,0-.946-1.022,3.231,3.231,0,0,0-2.89.137A3.16,3.16,0,0,1,278.471,1Z" transform="translate(-264.515 -0.491)" fill="#3a2c6d"/>
        <path id="Path_801" data-name="Path 801" d="M263.214,85.22c-.61.473-1.556.151-1.6.2a26.147,26.147,0,0,1-2.228,1.7c-.378.3-.97.7-.866,1.272.194,1.022,1.835.71,2.455.393s1.126-.833,1.712-1.2c.416-.26.828-.393.894-.946A3.372,3.372,0,0,0,263.214,85.22Z" transform="translate(-255.88 -44.917)" fill="#38226d"/>
        <path id="Path_802" data-name="Path 802" d="M263.592,87.83c-.08.506-.473.643-.9.9-.591.369-1.116.9-1.736,1.216s-2,.577-2.4-.151c.218.989,1.831.676,2.445.364s1.126-.833,1.712-1.2c.416-.26.828-.393.894-.946A1.192,1.192,0,0,0,263.592,87.83Z" transform="translate(-255.904 -46.293)" fill="#9c73ff"/>
        <path id="Path_803" data-name="Path 803" d="M257.418,81.7c-.558.473-1.419.2-1.443.241a21.82,21.82,0,0,1-2.039,1.551c-.345.274-.889.643-.79,1.168.175.946,1.679.648,2.247.359s1.031-.762,1.566-1.1c.383-.237.762-.359.823-.842a3.311,3.311,0,0,0-.364-1.381Z" transform="translate(-253.051 -43.062)" fill="#38226d"/>
        <path id="Path_804" data-name="Path 804" d="M257.8,84.21c-.071.473-.445.591-.823.823-.549.341-1.026.828-1.594,1.116s-1.831.53-2.2-.142c.2.908,1.674.62,2.237.336s1.031-.762,1.566-1.1c.383-.237.762-.359.823-.842A.979.979,0,0,0,257.8,84.21Z" transform="translate(-253.074 -44.385)" fill="#9c73ff"/>
        <path id="Path_805" data-name="Path 805" d="M267.758,43.16a9.054,9.054,0,0,1-4.853-.7c.028.511.057.946.057.946-1.972,1.419-5.936,3.746-6.192,5.364.255,5.118,1.036,12.431,1.258,12.54.62.293,1.05.246,1.343-.052a35.244,35.244,0,0,0,.88-10.7s6.906-3.056,7.355-4.73a5.241,5.241,0,0,0,.189-2.081A5.221,5.221,0,0,0,267.758,43.16Z" transform="translate(-254.966 -22.383)" fill="#ffcea9"/>
        <path id="Path_806" data-name="Path 806" d="M273.393,42.53a7.379,7.379,0,0,1-4.186.558c0,.686.095,1.972.095,1.972-1.972,1.4-5.932,3.746-6.192,5.364.26,5.123.738,12.535.946,12.629a1.674,1.674,0,0,0,1.637-.194,34.76,34.76,0,0,0,.885-10.643c0-.123,5.917-3.037,6.665-3.784a4.082,4.082,0,0,0,.88-3,7.328,7.328,0,0,0-.728-2.9Z" transform="translate(-258.307 -22.42)" fill="#ffcea9"/>
        <path id="Path_807" data-name="Path 807" d="M270.289,42.137s2.185,3.874-1.462,5.865a25.484,25.484,0,0,1-6.192,2.6l-.577.137a14.9,14.9,0,0,1,0,4.025s-2.748.946-6.249-2.124L254.652,48.9l-.147-1.008A2.081,2.081,0,0,1,255.087,46c.842-.762,3.505-2.71,5.161-3.827s2.98-2.185,2.98-2.185l.289-.27a7.494,7.494,0,0,0,5.553,1.041A5.78,5.78,0,0,1,270.289,42.137Z" transform="translate(-253.751 -20.939)" fill="#61c1ef"/>
        <path id="_Контур_7" data-name="&lt;Контур&gt;" d="M282.879,37.947a10.409,10.409,0,0,1,1.06-.837A4.21,4.21,0,0,0,285,36.348a8.424,8.424,0,0,0,1.093-3.112,13.673,13.673,0,0,0-.08-4.626,32.162,32.162,0,0,0-1.831-5.326,1.7,1.7,0,0,1,.232-2.114c.52-.535,1.064-.52,1.684.918a29.373,29.373,0,0,1,1.925,6.263,13.836,13.836,0,0,1-.066,4.73,17.284,17.284,0,0,1-1.253,3.959c-.161.369-.189.681-.412,1.419a4.8,4.8,0,0,1-1.131,1.987c-.473.44-.714.525-.847.473s-.151-.241.043-.473a4.035,4.035,0,0,0,.795-1.159s-.4.516-.662.8a3.785,3.785,0,0,1-.8.662c-.289.175-.743-.028-.553-.26s.4-.364.785-.795a3.785,3.785,0,0,0,.534-.752,7.134,7.134,0,0,1-.889.752,1.636,1.636,0,0,1-.851.35c-.161,0-.383-.189-.114-.445a5.8,5.8,0,0,0,1.055-.946c.293-.374.445-.676.35-.672s-.251.241-.624.412-.809.114-.885-.095S282.538,38.169,282.879,37.947Z" transform="translate(-268.512 -10.993)" fill="#ffcea9"/>
        <path id="Path_808" data-name="Path 808" d="M288.314,23.74a3.9,3.9,0,0,1-2.8.946l-.587-2.479a1.5,1.5,0,0,1,.724-1.793C286.762,19.923,287.836,21.214,288.314,23.74Z" transform="translate(-269.77 -10.711)" fill="#ededed"/>
        <path id="Path_809" data-name="Path 809" d="M273.461,18.408s-1.419-.435-2.961,2.743l.568.345a23.96,23.96,0,0,1,2.393-3.089Z" transform="translate(-262.202 -9.697)" fill="#ededed"/>
        <g id="_Группа_" data-name="&lt;Группа&gt;" transform="translate(0 16.16)">
          <g id="_Группа_2" data-name="&lt;Группа&gt;">
            <path id="_Контур_8" data-name="&lt;Контур&gt;" d="M255.79,44.118l5.118-2.952a.293.293,0,0,1,.293,0l8.987,5.179-5.265,3.041Z" transform="translate(-254.45 -37.841)" fill="#f4f4f4"/>
            <path id="Path_810" data-name="Path 810" d="M274.781,56.1l.393.222c.033,0,.028.052,0,.076l-.374.213a.128.128,0,0,1-.123,0l-.393-.227c-.033,0-.028-.047,0-.071l.374-.213A.128.128,0,0,1,274.781,56.1Z" transform="translate(-264.184 -45.725)" fill="#3a2c6d"/>
            <path id="Path_811" data-name="Path 811" d="M273.611,55.424l.393.227c.033,0,.028.047,0,.071l-.374.218a.142.142,0,0,1-.123,0l-.393-.227c-.033,0-.028-.052,0-.071l.374-.218A.142.142,0,0,1,273.611,55.424Z" transform="translate(-263.567 -45.368)" fill="#3a2c6d"/>
            <path id="Path_812" data-name="Path 812" d="M272.418,54.742l.388.222c.033,0,.028.052,0,.076l-.374.213a.128.128,0,0,1-.123,0l-.393-.227c-.028,0-.028-.047,0-.071l.374-.213A.137.137,0,0,1,272.418,54.742Z" transform="translate(-262.937 -45.008)" fill="#3a2c6d"/>
            <path id="Path_813" data-name="Path 813" d="M271.271,54.074l.393.227c.028,0,.024.047,0,.071l-.374.213a.137.137,0,0,1-.128,0l-.388-.222c-.033,0-.028-.052,0-.076l.374-.213A.137.137,0,0,1,271.271,54.074Z" transform="translate(-262.334 -44.656)" fill="#3a2c6d"/>
            <path id="Path_814" data-name="Path 814" d="M270.089,53.386l.388.227c.033,0,.028.052,0,.071l-.374.218a.151.151,0,0,1-.128,0l-.4-.237c-.028,0-.024-.052,0-.071l.374-.218A.151.151,0,0,1,270.089,53.386Z" transform="translate(-261.706 -44.29)" fill="#3a2c6d"/>
            <path id="Path_815" data-name="Path 815" d="M268.928,52.722l.388.222c.033,0,.028.052,0,.071l-.374.218a.128.128,0,0,1-.123,0l-.393-.227c-.028,0-.028-.047,0-.071l.374-.213a.137.137,0,0,1,.128,0Z" transform="translate(-261.098 -43.943)" fill="#3a2c6d"/>
            <path id="Path_816" data-name="Path 816" d="M267.753,52.04l.393.227c.033,0,.028.047,0,.071l-.374.213a.142.142,0,0,1-.123,0l-.393-.227c-.028,0-.028-.052,0-.071l.374-.218A.128.128,0,0,1,267.753,52.04Z" transform="translate(-260.481 -43.582)" fill="#3a2c6d"/>
            <path id="Path_817" data-name="Path 817" d="M266.581,51.364l.393.227c.033,0,.028.052,0,.071l-.374.218a.142.142,0,0,1-.123,0l-.393-.227c-.033,0-.028-.052,0-.071l.374-.218A.142.142,0,0,1,266.581,51.364Z" transform="translate(-259.863 -43.229)" fill="#3a2c6d"/>
            <path id="Path_818" data-name="Path 818" d="M265.421,50.692l.393.222c.033,0,.028.052,0,.076l-.374.213a.128.128,0,0,1-.123,0l-.393-.222c-.033,0-.028-.052,0-.076l.374-.213A.128.128,0,0,1,265.421,50.692Z" transform="translate(-259.251 -42.874)" fill="#3a2c6d"/>
            <path id="Path_819" data-name="Path 819" d="M264.241,49.984l.393.227c.033,0,.028.052,0,.071l-.374.218a.142.142,0,0,1-.123,0l-.393-.227c-.033,0-.028-.052,0-.071l.374-.218A.142.142,0,0,1,264.241,49.984Z" transform="translate(-258.629 -42.501)" fill="#3a2c6d"/>
            <path id="Path_820" data-name="Path 820" d="M263.071,49.337l.393.227c.028,0,.028.052,0,.071l-.374.218a.142.142,0,0,1-.123,0l-.393-.227c-.033,0-.028-.047,0-.071l.374-.213a.142.142,0,0,1,.123,0Z" transform="translate(-258.013 -42.161)" fill="#3a2c6d"/>
            <path id="Path_821" data-name="Path 821" d="M261.9,48.662l.393.227c.028,0,.024.047,0,.071l-.374.213a.137.137,0,0,1-.128,0l-.388-.222c-.033,0-.028-.052,0-.076l.369-.213A.137.137,0,0,1,261.9,48.662Z" transform="translate(-257.396 -41.804)" fill="#3a2c6d"/>
            <path id="Path_822" data-name="Path 822" d="M260.726,47.979l.388.227c.033,0,.028.052,0,.071l-.374.218a.151.151,0,0,1-.128,0l-.388-.227c-.033,0-.028-.052,0-.071l.355-.218A.151.151,0,0,1,260.726,47.979Z" transform="translate(-256.774 -41.442)" fill="#3a2c6d"/>
            <path id="Path_823" data-name="Path 823" d="M258.991,46.984l.658.378c.033,0,.028.052,0,.076l-.374.213a.128.128,0,0,1-.123,0l-.658-.378c-.033,0-.028-.052,0-.071l.374-.218A.142.142,0,0,1,258.991,46.984Z" transform="translate(-255.863 -40.92)" fill="#3a2c6d"/>
            <path id="Path_824" data-name="Path 824" d="M274.181,54.442l.393.227c.028,0,.028.047,0,.071l-.374.213a.137.137,0,0,1-.128,0l-.388-.222c-.033,0-.028-.052,0-.076l.374-.213A.128.128,0,0,1,274.181,54.442Z" transform="translate(-263.868 -44.85)" fill="#3a2c6d"/>
            <path id="Path_825" data-name="Path 825" d="M273.01,53.764l.388.227c.033,0,.028.047,0,.071l-.374.218a.142.142,0,0,1-.123,0l-.393-.227c-.028,0-.024-.052,0-.071l.374-.218A.151.151,0,0,1,273.01,53.764Z" transform="translate(-263.25 -44.493)" fill="#3a2c6d"/>
            <path id="Path_826" data-name="Path 826" d="M271.831,53.084l.393.227c.033,0,.028.052,0,.071l-.374.218a.142.142,0,0,1-.123,0l-.393-.227c-.033,0-.028-.052,0-.071l.374-.218A.142.142,0,0,1,271.831,53.084Z" transform="translate(-262.629 -44.135)" fill="#3a2c6d"/>
            <path id="Path_827" data-name="Path 827" d="M270.661,52.412l.393.222c.028,0,.028.052,0,.076l-.374.213a.128.128,0,0,1-.123,0l-.393-.227c-.033,0-.028-.047,0-.071l.374-.213A.128.128,0,0,1,270.661,52.412Z" transform="translate(-262.013 -43.78)" fill="#3a2c6d"/>
            <path id="Path_828" data-name="Path 828" d="M269.5,51.734l.388.227c.033,0,.028.052,0,.071l-.374.218a.142.142,0,0,1-.123,0L269,52.023c-.028,0-.024-.047,0-.071l.374-.218a.151.151,0,0,1,.128,0Z" transform="translate(-261.4 -43.423)" fill="#3a2c6d"/>
            <path id="Path_829" data-name="Path 829" d="M268.321,51.062l.393.222c.033,0,.028.052,0,.076l-.374.213a.128.128,0,0,1-.123,0l-.393-.222c-.033,0-.028-.052,0-.076l.374-.213a.128.128,0,0,1,.123,0Z" transform="translate(-260.78 -43.069)" fill="#3a2c6d"/>
            <path id="Path_830" data-name="Path 830" d="M267.151,50.38l.393.227c.028,0,.028.047,0,.071l-.374.213a.142.142,0,0,1-.123,0l-.393-.227c-.033,0-.028-.052,0-.071l.374-.218a.128.128,0,0,1,.123,0Z" transform="translate(-260.163 -42.707)" fill="#3a2c6d"/>
            <path id="Path_831" data-name="Path 831" d="M265.98,49.7l.388.227c.033,0,.028.052,0,.071L266,50.22a.151.151,0,0,1-.128,0l-.393-.227c-.028,0-.024-.052,0-.071l.374-.218a.151.151,0,0,1,.128,0Z" transform="translate(-259.545 -42.354)" fill="#3a2c6d"/>
            <path id="Path_832" data-name="Path 832" d="M264.8,48.987l.393.227c.033,0,.028.052,0,.071l-.374.218a.142.142,0,0,1-.123,0l-.393-.227c-.033,0-.028-.047,0-.071l.374-.213A.142.142,0,0,1,264.8,48.987Z" transform="translate(-258.925 -41.977)" fill="#3a2c6d"/>
            <path id="Path_833" data-name="Path 833" d="M263.631,48.352l.393.222c.028,0,.028.052,0,.076l-.374.213a.128.128,0,0,1-.123,0l-.393-.222c-.033,0-.028-.052,0-.076l.374-.213A.128.128,0,0,1,263.631,48.352Z" transform="translate(-258.308 -41.64)" fill="#3a2c6d"/>
            <path id="Path_834" data-name="Path 834" d="M262.427,47.674l.388.227c.033,0,.028.047,0,.071l-.369.218a.17.17,0,0,1-.128,0l-.393-.227c-.028,0,0-.052,0-.071l.374-.218A.151.151,0,0,1,262.427,47.674Z" transform="translate(-257.677 -41.284)" fill="#3a2c6d"/>
            <path id="Path_835" data-name="Path 835" d="M261.281,46.984l.393.227c.033,0,.028.052,0,.071l-.374.218a.142.142,0,0,1-.123,0l-.393-.227c-.033,0-.028-.052,0-.071l.374-.218A.142.142,0,0,1,261.281,46.984Z" transform="translate(-257.07 -40.92)" fill="#3a2c6d"/>
            <path id="Path_836" data-name="Path 836" d="M275.351,55.117l.658.383c.033,0,.028.052,0,.071l-.369.218a.151.151,0,0,1-.128,0l-.657-.383c-.033,0-.028-.047,0-.071l.374-.213A.142.142,0,0,1,275.351,55.117Z" transform="translate(-264.484 -45.207)" fill="#3a2c6d"/>
            <path id="Path_837" data-name="Path 837" d="M259.618,46.336l.393.222a.118.118,0,0,0,.113,0l.4-.227a.038.038,0,0,0,0-.066h-.033c-.028,0-.028-.043,0-.061l.416-.241c.033,0,.033-.047,0-.066l-.246-.142a.132.132,0,0,0-.118,0l-.388.222-.08.047-.061.033-.057.033-.336.194a.038.038,0,0,0,0,.052Z" transform="translate(-256.462 -40.272)" fill="#3a2c6d"/>
            <path id="Path_838" data-name="Path 838" d="M279.316,53.474l.388.227c.033,0,.028.052,0,.071l-.374.218a.151.151,0,0,1-.128,0l-.388-.227c-.033,0-.028-.052,0-.071l.374-.218a.151.151,0,0,1,.128,0Z" transform="translate(-266.571 -44.34)" fill="#3a2c6d"/>
            <path id="Path_839" data-name="Path 839" d="M278.151,52.8l.393.227c.028,0,.028.047,0,.071l-.374.213a.128.128,0,0,1-.123,0l-.393-.222c-.033,0-.028-.052,0-.076l.374-.213a.128.128,0,0,1,.123,0Z" transform="translate(-265.96 -43.985)" fill="#3a2c6d"/>
            <path id="Path_840" data-name="Path 840" d="M276.981,52.124l.393.227c.033,0,.028.052,0,.071L277,52.64a.142.142,0,0,1-.123,0l-.393-.227c-.033,0-.028-.052,0-.071l.374-.218A.142.142,0,0,1,276.981,52.124Z" transform="translate(-265.343 -43.629)" fill="#3a2c6d"/>
            <path id="Path_841" data-name="Path 841" d="M267.04,46.384l.388.227c.033,0,.028.052,0,.071l-.369.218a.151.151,0,0,1-.128,0l-.393-.227c-.028,0-.024-.052,0-.071l.374-.218A.151.151,0,0,1,267.04,46.384Z" transform="translate(-260.104 -40.604)" fill="#3a2c6d"/>
            <path id="Path_842" data-name="Path 842" d="M265.871,45.712l.393.222c.028,0,.024.052,0,.076l-.374.213a.137.137,0,0,1-.128,0L265.374,46c-.033,0-.028-.052,0-.076l.369-.213a.137.137,0,0,1,.128,0Z" transform="translate(-259.488 -40.249)" fill="#3a2c6d"/>
            <path id="Path_843" data-name="Path 843" d="M264.7,45.034l.393.227c.033,0,.028.052,0,.071l-.374.218a.142.142,0,0,1-.123,0l-.393-.227c-.033,0-.028-.052,0-.071l.374-.218A.142.142,0,0,1,264.7,45.034Z" transform="translate(-258.872 -39.893)" fill="#3a2c6d"/>
            <path id="Path_844" data-name="Path 844" d="M263.5,44.355l.393.227c.033,0,.028.047,0,.071l-.374.213a.128.128,0,0,1-.123,0l-.421-.218c-.033,0-.028-.052,0-.071l.374-.218a.128.128,0,0,1,.151,0Z" transform="translate(-258.224 -39.53)" fill="#3a2c6d"/>
            <path id="Path_845" data-name="Path 845" d="M275.49,51.279l.535.307c.033,0,.028.047,0,.071l-.374.213a.142.142,0,0,1-.123,0l-.553-.3c-.033,0-.028-.047,0-.071l.374-.213A.128.128,0,0,1,275.49,51.279Z" transform="translate(-264.547 -43.181)" fill="#3a2c6d"/>
            <path id="Path_846" data-name="Path 846" d="M268.2,47.06l.535.307c.033,0,.028.047,0,.071l-.374.213a.142.142,0,0,1-.123,0l-.535-.312c-.033,0-.028-.047,0-.071l.374-.213a.128.128,0,0,1,.123,0Z" transform="translate(-260.716 -40.958)" fill="#3a2c6d"/>
            <path id="Path_847" data-name="Path 847" d="M269.671,47.9l2.6,1.5c.033,0,.028.052,0,.071l-.374.218a.142.142,0,0,1-.123,0l-2.6-1.5c-.033,0-.028-.047,0-.071l.374-.218A.142.142,0,0,1,269.671,47.9Z" transform="translate(-261.491 -41.405)" fill="#3a2c6d"/>
            <path id="Path_848" data-name="Path 848" d="M275,53.6l.388.227c.033,0,.028.047,0,.071l-.374.213a.128.128,0,0,1-.123,0l-.393-.222c-.028,0-.024-.052,0-.076l.374-.213a.137.137,0,0,1,.128,0Z" transform="translate(-264.298 -44.407)" fill="#3a2c6d"/>
            <path id="Path_849" data-name="Path 849" d="M273.83,52.924l.388.227c.033,0,.028.052,0,.071l-.374.218a.142.142,0,0,1-.123,0l-.393-.227c-.028,0-.024-.052,0-.071l.374-.218A.151.151,0,0,1,273.83,52.924Z" transform="translate(-263.682 -44.051)" fill="#3a2c6d"/>
            <path id="Path_850" data-name="Path 850" d="M272.66,52.252l.388.227c.033,0,.028.047,0,.071l-.374.213a.128.128,0,0,1-.123,0l-.393-.222c-.028,0-.024-.052,0-.076l.374-.213A.137.137,0,0,1,272.66,52.252Z" transform="translate(-263.065 -43.696)" fill="#3a2c6d"/>
            <path id="Path_851" data-name="Path 851" d="M271.49,51.574l.388.227c.033,0,.028.052,0,.071l-.369.218a.151.151,0,0,1-.128,0l-.393-.227c-.028,0-.024-.052,0-.071l.374-.218A.151.151,0,0,1,271.49,51.574Z" transform="translate(-262.449 -43.339)" fill="#3a2c6d"/>
            <path id="Path_852" data-name="Path 852" d="M270.32,50.9l.388.222c.033,0,.028.052,0,.076l-.369.213a.137.137,0,0,1-.128,0l-.393-.222c-.028,0-.024-.052,0-.076l.374-.213A.137.137,0,0,1,270.32,50.9Z" transform="translate(-261.832 -42.984)" fill="#3a2c6d"/>
            <path id="Path_853" data-name="Path 853" d="M269.157,50.224l.388.227c.033,0,.028.052,0,.071l-.369.218a.151.151,0,0,1-.128,0l-.393-.227c-.028,0,0-.052,0-.071l.374-.218a.151.151,0,0,1,.128,0Z" transform="translate(-261.223 -42.628)" fill="#3a2c6d"/>
            <path id="Path_854" data-name="Path 854" d="M267.98,49.552l.388.222c.033,0,.028.052,0,.076l-.369.213a.137.137,0,0,1-.128,0l-.393-.227c-.028,0-.024-.047,0-.071l.374-.213A.137.137,0,0,1,267.98,49.552Z" transform="translate(-260.599 -42.273)" fill="#3a2c6d"/>
            <path id="Path_855" data-name="Path 855" d="M266.8,48.873l.388.227c.033,0,.028.047,0,.071l-.374.218a.151.151,0,0,1-.128,0l-.393-.227c-.028,0-.024-.052,0-.071l.374-.218a.151.151,0,0,1,.132,0Z" transform="translate(-259.977 -41.915)" fill="#3a2c6d"/>
            <path id="Path_856" data-name="Path 856" d="M265.636,48.2l.388.227c.033,0,.028.052,0,.071l-.374.218a.137.137,0,0,1-.128,0l-.388-.227c-.033,0-.028-.047,0-.071l.374-.213a.151.151,0,0,1,.128,0Z" transform="translate(-259.362 -41.56)" fill="#3a2c6d"/>
            <path id="Path_857" data-name="Path 857" d="M264.466,47.521l.388.227c.033,0,.028.047,0,.071l-.374.213a.151.151,0,0,1-.128,0l-.388-.227c-.033,0-.028-.052,0-.071l.374-.218A.151.151,0,0,1,264.466,47.521Z" transform="translate(-258.745 -41.202)" fill="#3a2c6d"/>
            <path id="Path_858" data-name="Path 858" d="M263.3,46.844l.388.227c.033,0,.028.052,0,.071l-.374.218a.151.151,0,0,1-.128,0l-.388-.227c-.033,0-.028-.047,0-.071l.374-.218A.151.151,0,0,1,263.3,46.844Z" transform="translate(-258.129 -40.846)" fill="#3a2c6d"/>
            <path id="Path_859" data-name="Path 859" d="M262.126,46.172l.388.227c.033,0,.028.047,0,.071l-.374.213a.137.137,0,0,1-.128,0l-.388-.222c-.033,0-.028-.052,0-.071l.374-.218A.137.137,0,0,1,262.126,46.172Z" transform="translate(-257.512 -40.492)" fill="#3a2c6d"/>
            <path id="Path_860" data-name="Path 860" d="M276.168,54.274l.809.473c.028,0,.028.052,0,.071l-.374.218a.151.151,0,0,1-.128,0l-.809-.473c-.028,0-.028-.047,0-.071l.374-.218A.151.151,0,0,1,276.168,54.274Z" transform="translate(-264.913 -44.762)" fill="#3a2c6d"/>
            <path id="Path_861" data-name="Path 861" d="M276.711,53.282l.393.227c.033,0,.028.047,0,.071l-.374.213a.128.128,0,0,1-.123,0l-.393-.222c-.033,0-.028-.052,0-.076l.374-.213a.128.128,0,0,1,.123,0Z" transform="translate(-265.201 -44.238)" fill="#3a2c6d"/>
            <path id="Path_862" data-name="Path 862" d="M275.541,52.6l.393.227c.033,0,.028.052,0,.071l-.374.218a.142.142,0,0,1-.123,0l-.393-.227c-.033,0-.028-.052,0-.071l.374-.218A.142.142,0,0,1,275.541,52.6Z" transform="translate(-264.584 -43.882)" fill="#3a2c6d"/>
            <path id="Path_863" data-name="Path 863" d="M274.4,51.949l.393.227c.033,0,.028.047,0,.071l-.393.175a.128.128,0,0,1-.123,0l-.393-.222c-.033,0-.028-.052,0-.076l.374-.213a.128.128,0,0,1,.142.038Z" transform="translate(-263.973 -43.52)" fill="#3a2c6d"/>
            <path id="Path_864" data-name="Path 864" d="M273.2,51.254l.393.227c.033,0,.028.052,0,.071l-.374.218a.142.142,0,0,1-.123,0l-.393-.227c-.033,0-.028-.052,0-.071l.374-.218a.142.142,0,0,1,.123,0Z" transform="translate(-263.351 -43.171)" fill="#3a2c6d"/>
            <path id="Path_865" data-name="Path 865" d="M272.031,50.582l.393.222c.033,0,.028.052,0,.076l-.374.213a.128.128,0,0,1-.123,0l-.393-.222c-.033,0-.028-.052,0-.076l.374-.213A.128.128,0,0,1,272.031,50.582Z" transform="translate(-262.735 -42.816)" fill="#3a2c6d"/>
            <path id="Path_866" data-name="Path 866" d="M270.861,49.9l.393.227c.033,0,.028.052,0,.071l-.374.218a.142.142,0,0,1-.123,0l-.393-.227c-.033,0-.028-.052,0-.071l.374-.218A.142.142,0,0,1,270.861,49.9Z" transform="translate(-262.118 -42.459)" fill="#3a2c6d"/>
            <path id="Path_867" data-name="Path 867" d="M269.691,49.232l.393.222c.033,0,.028.052,0,.076l-.374.213a.128.128,0,0,1-.123,0l-.393-.227c-.033,0-.028-.047,0-.071l.374-.213a.128.128,0,0,1,.123,0Z" transform="translate(-261.501 -42.104)" fill="#3a2c6d"/>
            <path id="Path_868" data-name="Path 868" d="M268.521,48.554l.393.227c.033,0,.028.052,0,.071l-.374.218a.142.142,0,0,1-.123,0l-.393-.227c-.033,0-.028-.052,0-.071l.374-.218a.142.142,0,0,1,.123,0Z" transform="translate(-260.885 -41.748)" fill="#3a2c6d"/>
            <path id="Path_869" data-name="Path 869" d="M267.367,47.891l.393.222c.033,0,.028.052,0,.076l-.359.222a.128.128,0,0,1-.123,0l-.393-.227c-.033,0-.028-.047,0-.071l.374-.213A.128.128,0,0,1,267.367,47.891Z" transform="translate(-260.284 -41.401)" fill="#3a2c6d"/>
            <path id="Path_870" data-name="Path 870" d="M266.183,47.2l.393.227c.033,0,.028.047,0,.071l-.374.218a.142.142,0,0,1-.123,0l-.393-.227c-.028,0-.028-.052,0-.071l.374-.218A.142.142,0,0,1,266.183,47.2Z" transform="translate(-259.654 -41.036)" fill="#3a2c6d"/>
            <path id="Path_871" data-name="Path 871" d="M265.013,46.527l.393.227c.033,0,.028.052,0,.071l-.374.218a.128.128,0,0,1-.123,0l-.393-.227c-.028,0-.028-.047,0-.071l.374-.213A.142.142,0,0,1,265.013,46.527Z" transform="translate(-259.037 -40.68)" fill="#3a2c6d"/>
            <path id="Path_872" data-name="Path 872" d="M262.421,44.985l1.074.624c.033,0,.028.047,0,.071l-.374.218a.142.142,0,0,1-.123,0l-1.074-.624c-.033,0-.028-.047,0-.071l.374-.218a.151.151,0,0,1,.123,0Z" transform="translate(-257.67 -39.867)" fill="#3a2c6d"/>
            <path id="Path_873" data-name="Path 873" d="M277.881,53.984l.535.307c.033,0,.028.052,0,.076l-.374.213a.128.128,0,0,1-.123,0l-.535-.307c-.033,0-.028-.047,0-.071l.374-.218A.142.142,0,0,1,277.881,53.984Z" transform="translate(-265.818 -44.609)" fill="#3a2c6d"/>
            <path id="Path_874" data-name="Path 874" d="M258.021,47.661l7.852,4.536c.033,0,.028.052,0,.071l-.185.109a.151.151,0,0,1-.128,0L257.7,47.841c-.033,0-.028-.052,0-.071l.184-.109A.137.137,0,0,1,258.021,47.661Z" transform="translate(-255.446 -41.275)" fill="#3a2c6d"/>
            <path id="_Контур_9" data-name="&lt;Контур&gt;" d="M273.75,46.729l-.052.028-1.353.78-2.4-1.386-.052-.033,1.4-.809Z" transform="translate(-261.88 -40.045)" fill="#bfbfbf"/>
            <path id="_Контур_10" data-name="&lt;Контур&gt;" d="M273.756,46.821l-1.353.78L270,46.215l1.353-.785Z" transform="translate(-261.938 -40.109)" fill="#e5e5e5"/>
            <path id="_Контур_11" data-name="&lt;Контур&gt;" d="M270.179,49.678V49.8a.473.473,0,0,1-.246.426L265.16,52.98a.473.473,0,0,1-.473,0L256.041,48a.473.473,0,0,1-.251-.426V47.45l9.124,5.269Z" transform="translate(-254.45 -41.173)" fill="#e5e5e5"/>
            <path id="_Контур_12" data-name="&lt;Контур&gt;" d="M264.914,52.719v.326a.506.506,0,0,1-.246-.066L256.041,48a.473.473,0,0,1-.251-.426V47.45Z" transform="translate(-254.45 -41.173)" fill="#e5e5e5"/>
            <path id="_Контур_13" data-name="&lt;Контур&gt;" d="M263.284,45.9a.6.6,0,0,1-.506-.038l-8.59-4.962a.577.577,0,0,1-.284-.407l-.946-5.61a.709.709,0,0,1,0-.095.577.577,0,0,1,.175-.416l8.926,5.156a.44.44,0,0,1,.213.3Z" transform="translate(-252.957 -34.28)" fill="#f4f4f4"/>
            <path id="_Контур_14" data-name="&lt;Контур&gt;" d="M263.613,45.726l-.057.033-.08.038-1.017-6.069a.44.44,0,0,0-.213-.3L253.32,34.27a.435.435,0,0,1,.118-.09l8.945,5.165a.43.43,0,0,1,.213.3Z" transform="translate(-253.148 -34.18)" fill="#e5e5e5"/>
          </g>
        </g>
      </g>
      <path id="Path_875" data-name="Path 875" d="M35.533,352l-9.583-5.534,9.583-5.534,9.583,5.534Z" transform="translate(-13.675 -179.673)" fill="#d6d8e5" opacity="0.3"/>
      <path id="Path_876" data-name="Path 876" d="M67.643,333.254l-9.583-5.529,9.583-5.534,9.583,5.534Z" transform="translate(-30.597 -169.797)" fill="#d6d8e5" opacity="0.3"/>
      <path id="Path_877" data-name="Path 877" d="M79.673,251.009l-9.583-5.534,9.583-5.534,9.583,5.534Z" transform="translate(-36.936 -126.452)" fill="#2a2d79"/>
      <path id="Path_878" data-name="Path 878" d="M79.673,292.873l-9.583-5.534v-35.7l9.583,5.534Z" transform="translate(-36.936 -132.618)" fill="#3e7eff"/>
      <path id="Path_879" data-name="Path 879" d="M79.673,292.873l-9.583-5.534v-35.7l9.583,5.534Z" transform="translate(-36.936 -132.618)" fill="#2a2d79"/>
      <path id="Path_880" data-name="Path 880" d="M99.933,287.338l-9.583,5.534v-35.7l9.583-5.534Z" transform="translate(-47.613 -132.618)" fill="#3e7eff"/>
      <path id="Path_881" data-name="Path 881" d="M99.933,287.338l-9.583,5.534v-35.7l9.583-5.534Z" transform="translate(-47.613 -132.618)" fill="#2a2d79"/>
      <path id="Path_882" data-name="Path 882" d="M49.283,289.434,39.7,283.9l9.583-5.53,9.583,5.53Z" transform="translate(-20.921 -146.705)" fill="#9986fe"/>
      <path id="Path_883" data-name="Path 883" d="M49.283,321.373,39.7,315.839V290.06l9.583,5.534Z" transform="translate(-20.921 -152.865)" fill="#ff4d4d"/>
      <path id="Path_884" data-name="Path 884" d="M49.283,321.373,39.7,315.839V290.06l9.583,5.534Z" transform="translate(-20.921 -152.865)" fill="#9986fe"/>
      <path id="Path_885" data-name="Path 885" d="M69.543,315.839l-9.583,5.534V295.594l9.583-5.534Z" transform="translate(-31.598 -152.865)" fill="#ff4d4d"/>
      <path id="Path_886" data-name="Path 886" d="M69.543,315.839l-9.583,5.534V295.594l9.583-5.534Z" transform="translate(-31.598 -152.865)" fill="#9986fe" opacity="0.92"/>
      <path id="Path_887" data-name="Path 887" d="M9.583,367.328,0,361.794l9.583-5.534,9.583,5.534Z" transform="translate(0 -187.752)" fill="#d6d8e5" opacity="0.3"/>
      <path id="Path_888" data-name="Path 888" d="M16.923,329.384,7.34,323.85l9.583-5.53,9.583,5.53Z" transform="translate(-3.868 -167.758)" fill="#61c1ef"/>
      <path id="Path_889" data-name="Path 889" d="M16.923,351.4l-9.583-5.53V330.01l9.583,5.534Z" transform="translate(-3.868 -173.918)" fill="#b7e200"/>
      <path id="Path_890" data-name="Path 890" d="M16.923,351.4l-9.583-5.53V330.01l9.583,5.534Z" transform="translate(-3.868 -173.918)" fill="#61c1ef"/>
      <path id="Path_891" data-name="Path 891" d="M37.183,345.875,27.6,351.4v-15.86l9.583-5.534Z" transform="translate(-14.545 -173.918)" fill="#b7e200"/>
      <path id="Path_892" data-name="Path 892" d="M37.183,345.875,27.6,351.4v-15.86l9.583-5.534Z" transform="translate(-14.545 -173.918)" fill="#61c1ef" opacity="0.92"/>
      <path id="Path_893" data-name="Path 893" d="M165.618,416.045l-6.149-8.855-2.98-1.334a30.923,30.923,0,0,0-6.9-.795c-2.777,2.8-20.288,3.548-27.241.095-7.885-3.917-12.019-8.7-13.306-11.627-2.289-5.2,2.077-11.319,2.077-11.319-11.929,6.887-11.929,18.1,0,24.985,11.182,6.457,28.939,6.859,40.944,1.211h0Z" transform="translate(-53.845 -201.427)" fill="#d6d8e5" opacity="0.4"/>
      <path id="Path_894" data-name="Path 894" d="M261.544,468.929l-41.294-23.84,7.015-4.049,41.294,23.84Z" transform="translate(-116.069 -232.429)" fill="#d6d8e5" opacity="0.4"/>
      <path id="Path_895" data-name="Path 895" d="M114.242,396.835c-11.929-6.887-11.929-18.093,0-24.98s31.342-6.887,43.271,0,11.929,18.093,0,24.98S126.171,403.732,114.242,396.835ZM152.234,374.9c-9.02-5.2-23.7-5.2-32.714,0s-9.02,13.694,0,18.9,23.693,5.2,32.714,0S161.255,380.109,152.234,374.9Z" transform="translate(-55.489 -193.248)" fill="#b1b4c4"/>
      <path id="Path_896" data-name="Path 896" d="M105.33,399.233V393.94l5.364,2.644Z" transform="translate(-55.508 -207.608)" fill="#b1b4c4"/>
      <path id="Path_897" data-name="Path 897" d="M137.44,422.832c.218.27.984,5.454,16.262,5.454s14.626-6.126,14.626-6.126-14.408,1.982-14.626,1.982S137.44,422.832,137.44,422.832Z" transform="translate(-72.429 -222.48)" fill="#b1b4c4"/>
      <path id="Path_898" data-name="Path 898" d="M229.7,393.94V398.7l-4.4-2.8Z" transform="translate(-118.73 -207.608)" fill="#b1b4c4"/>
      <path id="Path_899" data-name="Path 899" d="M140.55,366.6a39.313,39.313,0,0,1,13.907-2.673,33.371,33.371,0,0,1,13.438,2.871l-.97,1.613H141.383Z" transform="translate(-74.068 -191.794)" fill="#b1b4c4"/>
      <ellipse id="Ellipse_33" data-name="Ellipse 33" cx="22.776" cy="13.15" rx="22.776" ry="13.15" transform="translate(57.618 175.012)" fill="#61c1ef"/>
      <path id="Path_900" data-name="Path 900" d="M114.242,386.76c-11.929-6.887-11.929-18.1,0-24.985s31.342-6.887,43.271,0,11.929,18.1,0,24.985S126.171,393.647,114.242,386.76Zm37.992-21.924c-9.02-5.2-23.7-5.2-32.714,0s-9.02,13.684,0,18.892,23.693,5.2,32.714,0S161.255,370.039,152.234,364.836Z" transform="translate(-55.489 -187.936)" fill="#d6d8e5"/>
      <path id="Path_901" data-name="Path 901" d="M219.26,425.739l-10.35-6.021,6.012-3.467,10.35,6.017Z" transform="translate(-110.093 -219.366)" fill="#d6d8e5"/>
      <path id="Path_902" data-name="Path 902" d="M219.27,434.4l-10.34-5.984V423.59l10.34,5.984Z" transform="translate(-110.103 -223.234)" fill="#b1b4c4"/>
      <path id="Path_903" data-name="Path 903" d="M264.319,462.658l-41.289-23.84v-8.1l41.289,23.84Z" transform="translate(-117.534 -226.991)" fill="#2b303f"/>
      <path id="Path_904" data-name="Path 904" d="M264.324,450.059l-41.294-23.84,7.015-4.049,41.294,23.835Z" transform="translate(-117.534 -222.485)" fill="#394051"/>
      <path id="Path_905" data-name="Path 905" d="M310.32,484.707c.426-.047,7.02-3.95,7.02-3.95v-8.2l-7.015,4.054Z" transform="translate(-163.534 -249.04)" fill="#232733"/>
      <g id="Men_11" transform="translate(17.203 108.793)">
        <path id="_Контур_15" data-name="&lt;Контур&gt;" d="M58.028,259.167a17.288,17.288,0,0,0,2.516,3.429c.274.317,2.365-.473,1.93-.71a14.173,14.173,0,0,1-2.5-3.41,43.135,43.135,0,0,1-1.466-4.659c-.43-1.561-.8-3.85-1.116-4.929a2.114,2.114,0,0,0-1.6-1.632c-.757-.175-1.244.033-1.107.946C54.926,249.8,56.179,256.022,58.028,259.167Z" transform="translate(-46.009 -239.072)" fill="#ffcea9"/>
        <path id="Path_906" data-name="Path 906" d="M58.791,324c.648.53,1.608.047,1.656.095a28.464,28.464,0,0,0,2.393,2c.407.317,1.041.743.946,1.358-.2,1.093-1.954.757-2.616.421s-1.2-.889-1.826-1.277c-.445-.279-.885-.421-.946-.984A3.462,3.462,0,0,1,58.791,324Z" transform="translate(-47.973 -279.544)" fill="#2a2d79"/>
        <path id="Path_907" data-name="Path 907" d="M58.343,326.93c.085.539.52.686.946.946.639.393,1.2.946,1.859,1.3s2.133.62,2.559-.166c-.232,1.055-1.954.724-2.606.393s-1.2-.889-1.826-1.277c-.445-.279-.885-.421-.946-.984A.979.979,0,0,1,58.343,326.93Z" transform="translate(-47.942 -281.088)" fill="#619fef"/>
        <path id="Path_908" data-name="Path 908" d="M72.638,316c.653.53,1.788-.047,1.835,0a25.933,25.933,0,0,0,2.143,1.935c.4.317,1.036.743.946,1.353-.2,1.1-1.958.762-2.62.426s-1.2-.889-1.826-1.277c-.445-.279-.885-.421-.946-.984A3.032,3.032,0,0,1,72.638,316Z" transform="translate(-55.236 -275.325)" fill="#2a2d79"/>
        <path id="Path_909" data-name="Path 909" d="M72.132,318.74c.09.539.52.686.946.946.634.393,1.2.946,1.854,1.3s2.138.62,2.564-.166c-.227,1.074-1.935.743-2.592.411s-1.2-.889-1.826-1.277c-.473-.279-.889-.421-.946-.984A.947.947,0,0,1,72.132,318.74Z" transform="translate(-55.213 -276.772)" fill="#619fef"/>
        <path id="_Контур_16" data-name="&lt;Контур&gt;" d="M40.715,278.241c-.719,4.5,1.277,6.173,3.874,7.133,1.864.686,4.536,1.741,4.536,1.741s-.038.989-.057,3.2c0,1.954.237,9.072.237,9.072a2.171,2.171,0,0,0,1.987,0s1.05-5.459,1.272-7.918c.3-3.335.814-5.52.643-6.239-.151-.634-3.784-2.427-4.957-3.387l7.658,2.545a13.31,13.31,0,0,0-.222,2.512c.071,2.649.213,8.377.213,8.377a1.643,1.643,0,0,0,1.944,0s1.92-11.352,1.689-12.847c-.222-1.419-6.953-4.338-8.141-5.34a1.892,1.892,0,0,0-1.495-.407Z" transform="translate(-38.582 -254.597)" fill="#61c1ef"/>
        <g id="_Группа_3" data-name="&lt;Группа&gt;" transform="translate(6.017 19.216)">
          <g id="_Группа_4" data-name="&lt;Группа&gt;">
            <path id="_Контур_17" data-name="&lt;Контур&gt;" d="M63.547,280.652l-5.132-2.966a.3.3,0,0,0-.3,0l-8.987,5.2,5.284,3.046Z" transform="translate(-49.111 -274.333)" fill="#f4f4f4"/>
            <path id="Path_910" data-name="Path 910" d="M59.292,292.812l-.388.227c-.033,0-.028.047,0,.071l.374.213a.137.137,0,0,0,.128,0l.388-.222c.033,0,.028-.052,0-.076l-.374-.213A.137.137,0,0,0,59.292,292.812Z" transform="translate(-54.25 -282.316)" fill="#2a2d79"/>
            <path id="Path_911" data-name="Path 911" d="M60.462,292.134l-.388.227c-.033,0-.028.052,0,.071l.374.218a.142.142,0,0,0,.123,0l.393-.227c.028,0,0-.052,0-.071l-.374-.218A.151.151,0,0,0,60.462,292.134Z" transform="translate(-54.866 -281.96)" fill="#2a2d79"/>
            <path id="Path_912" data-name="Path 912" d="M61.647,291.452l-.393.227c-.033,0-.028.047,0,.071l.374.213a.127.127,0,0,0,.123,0l.393-.222c.033,0,.028-.052,0-.076l-.374-.213a.128.128,0,0,0-.123,0Z" transform="translate(-55.488 -281.6)" fill="#3a2c6d"/>
            <path id="Path_913" data-name="Path 913" d="M62.807,290.782l-.393.227c-.033,0-.028.047,0,.071l.374.213a.142.142,0,0,0,.123,0l.393-.227c.033,0,.028-.052,0-.071l-.374-.218A.142.142,0,0,0,62.807,290.782Z" transform="translate(-56.099 -281.246)" fill="#3a2c6d"/>
            <path id="Path_914" data-name="Path 914" d="M63.977,290.1l-.393.227c-.033,0-.028.052,0,.071l.374.218a.142.142,0,0,0,.123,0l.393-.227c.033,0,.028-.052,0-.071L64.1,290.1A.142.142,0,0,0,63.977,290.1Z" transform="translate(-56.716 -280.89)" fill="#3a2c6d"/>
            <path id="Path_915" data-name="Path 915" d="M65.147,289.432l-.393.222c-.033,0-.028.052,0,.076l.374.213a.127.127,0,0,0,.123,0l.393-.222c.033,0,.028-.052,0-.076l-.374-.213A.128.128,0,0,0,65.147,289.432Z" transform="translate(-57.333 -280.535)" fill="#3a2c6d"/>
            <path id="Path_916" data-name="Path 916" d="M66.319,288.754l-.393.227c-.028,0-.028.052,0,.071l.374.218a.142.142,0,0,0,.123,0l.393-.227c.033,0,.028-.052,0-.071l-.374-.218a.142.142,0,0,0-.123,0Z" transform="translate(-57.951 -280.179)" fill="#3a2c6d"/>
            <path id="Path_917" data-name="Path 917" d="M67.539,288.077l-.393.227c-.028,0-.028.052,0,.071l.374.218a.137.137,0,0,0,.128,0l.388-.227c.033,0,.028-.047,0-.071l-.374-.213A.142.142,0,0,0,67.539,288.077Z" transform="translate(-58.594 -279.823)" fill="#3a2c6d"/>
            <path id="Path_918" data-name="Path 918" d="M68.662,287.4l-.388.227c-.033,0-.028.047,0,.071l.374.213a.137.137,0,0,0,.128,0l.388-.222c.033,0,.028-.052,0-.071l-.374-.218A.137.137,0,0,0,68.662,287.4Z" transform="translate(-59.188 -279.465)" fill="#3a2c6d"/>
            <path id="Path_919" data-name="Path 919" d="M69.832,286.724l-.388.227c-.033,0-.028.052,0,.071l.369.218a.151.151,0,0,0,.128,0l.393-.227c.028,0,0-.052,0-.071l-.374-.218A.151.151,0,0,0,69.832,286.724Z" transform="translate(-59.804 -279.109)" fill="#3a2c6d"/>
            <path id="Path_920" data-name="Path 920" d="M71,286.052l-.388.222c-.033,0-.028.052,0,.076l.374.213a.128.128,0,0,0,.123,0l.393-.227c.028,0,.028-.047,0-.071l-.374-.213A.137.137,0,0,0,71,286.052Z" transform="translate(-60.421 -278.754)" fill="#3a2c6d"/>
            <path id="Path_921" data-name="Path 921" d="M72.177,285.374l-.393.227c-.033,0-.028.047,0,.071l.374.218a.142.142,0,0,0,.123,0l.393-.227c.033,0,.028-.052,0-.071l-.374-.218a.142.142,0,0,0-.123,0Z" transform="translate(-61.037 -278.397)" fill="#3a2c6d"/>
            <path id="Path_922" data-name="Path 922" d="M73.347,284.694l-.393.227c-.033,0-.028.052,0,.071l.374.218a.142.142,0,0,0,.123,0l.393-.227c.033,0,.028-.047,0-.071l-.374-.218A.142.142,0,0,0,73.347,284.694Z" transform="translate(-61.654 -278.039)" fill="#3a2c6d"/>
            <path id="Path_923" data-name="Path 923" d="M74.782,283.7l-.657.383c-.033,0-.028.047,0,.071l.374.213a.128.128,0,0,0,.123,0l.657-.378c.033,0,.028-.052,0-.071L74.9,283.7A.151.151,0,0,0,74.782,283.7Z" transform="translate(-62.27 -277.513)" fill="#3a2c6d"/>
            <path id="Path_924" data-name="Path 924" d="M59.9,291.154l-.393.227c-.033,0-.028.047,0,.071l.374.218a.161.161,0,0,0,.123,0l.393-.227c.028,0,.028-.052,0-.071l-.374-.218A.142.142,0,0,0,59.9,291.154Z" transform="translate(-54.566 -281.443)" fill="#2a2d79"/>
            <path id="Path_925" data-name="Path 925" d="M61.067,290.474l-.393.227c-.033,0-.028.052,0,.071l.374.218a.142.142,0,0,0,.123,0l.393-.227c.033,0,.028-.052,0-.071l-.374-.218A.142.142,0,0,0,61.067,290.474Z" transform="translate(-55.182 -281.085)" fill="#2a2d79"/>
            <path id="Path_926" data-name="Path 926" d="M62.249,289.8l-.393.227c-.028,0,0,.052,0,.071l.374.218a.137.137,0,0,0,.128,0l.388-.227c.033,0,.028-.047,0-.071l-.374-.213A.142.142,0,0,0,62.249,289.8Z" transform="translate(-55.811 -280.729)" fill="#3a2c6d"/>
            <path id="Path_927" data-name="Path 927" d="M63.412,289.122l-.388.227c-.033,0-.028.047,0,.071l.374.213a.128.128,0,0,0,.123,0l.393-.222c.028,0,.028-.052,0-.076l-.374-.213A.137.137,0,0,0,63.412,289.122Z" transform="translate(-56.421 -280.372)" fill="#3a2c6d"/>
            <path id="Path_928" data-name="Path 928" d="M64.537,288.452l-.393.222c-.033,0-.028.052,0,.076l.374.213a.128.128,0,0,0,.123,0l.393-.227c.033,0,.028-.047,0-.071l-.374-.213a.128.128,0,0,0-.123,0Z" transform="translate(-57.011 -280.019)" fill="#3a2c6d"/>
            <path id="Path_929" data-name="Path 929" d="M65.759,287.772l-.393.227c-.028,0,0,.047,0,.071l.374.213a.137.137,0,0,0,.128,0l.388-.222c.033,0,.028-.052,0-.076l-.369-.213A.137.137,0,0,0,65.759,287.772Z" transform="translate(-57.66 -279.66)" fill="#3a2c6d"/>
            <path id="Path_930" data-name="Path 930" d="M66.922,287.094l-.388.227c-.033,0-.028.052,0,.071l.374.218a.142.142,0,0,0,.123,0l.393-.227c.028,0,.028-.052,0-.071l-.374-.218A.151.151,0,0,0,66.922,287.094Z" transform="translate(-58.271 -279.304)" fill="#3a2c6d"/>
            <path id="Path_931" data-name="Path 931" d="M68.1,286.414l-.393.227c-.033,0-.028.052,0,.071l.374.218a.142.142,0,0,0,.123,0l.393-.227c.033,0,.028-.047,0-.071l-.374-.218a.142.142,0,0,0-.123,0Z" transform="translate(-58.887 -278.945)" fill="#3a2c6d"/>
            <path id="Path_932" data-name="Path 932" d="M69.271,285.742l-.393.222c-.028,0-.024.052,0,.076l.374.213a.137.137,0,0,0,.128,0l.388-.227c.033,0,.028-.047,0-.071l-.374-.213A.128.128,0,0,0,69.271,285.742Z" transform="translate(-59.508 -278.59)" fill="#3a2c6d"/>
            <path id="Path_933" data-name="Path 933" d="M70.442,285.06l-.388.227c-.033,0-.028.047,0,.071l.374.213a.142.142,0,0,0,.123,0l.393-.227c.028,0,.028-.052,0-.071l-.374-.218A.137.137,0,0,0,70.442,285.06Z" transform="translate(-60.126 -278.229)" fill="#3a2c6d"/>
            <path id="Path_934" data-name="Path 934" d="M71.617,284.384l-.393.227c-.033,0-.028.052,0,.071l.374.218a.142.142,0,0,0,.123,0l.393-.227c.033,0,.028-.052,0-.071l-.374-.218a.142.142,0,0,0-.123,0Z" transform="translate(-60.742 -277.876)" fill="#3a2c6d"/>
            <path id="Path_935" data-name="Path 935" d="M72.789,283.706l-.393.227c-.028,0-.028.052,0,.071l.374.218a.151.151,0,0,0,.128,0l.388-.227c.033,0,.028-.047,0-.071l-.374-.218A.161.161,0,0,0,72.789,283.706Z" transform="translate(-61.361 -277.519)" fill="#3a2c6d"/>
            <path id="Path_936" data-name="Path 936" d="M58.422,291.832l-.657.378c-.033,0-.028.052,0,.071l.374.218a.142.142,0,0,0,.123,0l.657-.378c.033,0,.028-.052,0-.076l-.369-.213a.137.137,0,0,0-.128,0Z" transform="translate(-53.649 -281.8)" fill="#2a2d79"/>
            <path id="Path_937" data-name="Path 937" d="M74.024,283.006l-.393.227a.146.146,0,0,1-.118,0L73.12,283c-.033,0-.033-.047,0-.066h.028c.033,0,.033-.043,0-.061l-.416-.241c-.033,0-.033-.047,0-.066l.251-.142a.118.118,0,0,1,.114,0l.393.227.08.043.057.033.057.038.341.194A.038.038,0,0,1,74.024,283.006Z" transform="translate(-61.536 -276.842)" fill="#3a2c6d"/>
            <path id="Path_938" data-name="Path 938" d="M54.757,290.184l-.393.227c-.033,0-.028.052,0,.071l.374.218a.142.142,0,0,0,.123,0l.393-.227c.033,0,.028-.047,0-.071l-.374-.218A.142.142,0,0,0,54.757,290.184Z" transform="translate(-51.857 -280.932)" fill="#2a2d79"/>
            <path id="Path_939" data-name="Path 939" d="M55.922,289.511l-.388.227c-.033,0-.028.047,0,.071l.374.213a.142.142,0,0,0,.123,0l.393-.227c.028,0,.028-.052,0-.071l-.374-.218A.151.151,0,0,0,55.922,289.511Z" transform="translate(-52.474 -280.576)" fill="#2a2d79"/>
            <path id="Path_940" data-name="Path 940" d="M57.092,288.842l-.388.222c-.033,0-.028.052,0,.071l.374.218a.137.137,0,0,0,.128,0l.388-.227c.033,0,.028-.047,0-.071l-.374-.213A.137.137,0,0,0,57.092,288.842Z" transform="translate(-53.09 -280.224)" fill="#2a2d79"/>
            <path id="Path_941" data-name="Path 941" d="M67.037,283.094l-.393.227c-.033,0-.028.052,0,.071l.374.218a.142.142,0,0,0,.123,0l.393-.227c.033,0,.028-.052,0-.071l-.374-.218a.142.142,0,0,0-.123,0Z" transform="translate(-58.329 -277.196)" fill="#3a2c6d"/>
            <path id="Path_942" data-name="Path 942" d="M68.207,282.42l-.393.227c-.033,0-.028.047,0,.071l.374.213a.142.142,0,0,0,.123,0l.393-.227c.033,0,.028-.052,0-.071l-.374-.218a.128.128,0,0,0-.123,0Z" transform="translate(-58.945 -276.838)" fill="#3a2c6d"/>
            <path id="Path_943" data-name="Path 943" d="M69.372,281.747l-.388.227c-.033,0-.028.052,0,.071l.374.218a.142.142,0,0,0,.123,0l.393-.227c.028,0,0-.047,0-.071l-.374-.213a.151.151,0,0,0-.128,0Z" transform="translate(-59.562 -276.487)" fill="#3a2c6d"/>
            <path id="Path_944" data-name="Path 944" d="M70.549,281.074l-.393.227c-.028,0,0,.047,0,.071l.374.218a.151.151,0,0,0,.128,0l.388-.227c.033,0,.028-.052,0-.071l-.369-.218A.151.151,0,0,0,70.549,281.074Z" transform="translate(-60.185 -276.131)" fill="#3a2c6d"/>
            <path id="Path_945" data-name="Path 945" d="M58.381,287.982l-.535.307c-.028,0-.028.052,0,.071l.374.218a.142.142,0,0,0,.123,0l.535-.307c.033,0,.028-.052,0-.076l-.374-.213a.128.128,0,0,0-.123,0Z" transform="translate(-53.693 -279.771)" fill="#2a2d79"/>
            <path id="Path_946" data-name="Path 946" d="M65.709,283.772l-.535.307c-.033,0-.028.052,0,.071l.374.218a.142.142,0,0,0,.123,0l.535-.307c.033,0,.028-.052,0-.076l-.374-.213A.128.128,0,0,0,65.709,283.772Z" transform="translate(-57.554 -277.552)" fill="#3a2c6d"/>
            <path id="Path_947" data-name="Path 947" d="M61.936,284.622l-2.6,1.5c-.033,0-.028.052,0,.071l.374.218a.142.142,0,0,0,.123,0l2.6-1.5c.033,0,.028-.047,0-.071l-.369-.213A.137.137,0,0,0,61.936,284.622Z" transform="translate(-54.476 -278)" fill="#2a2d79"/>
            <path id="Path_948" data-name="Path 948" d="M59.077,290.314l-.393.227c-.033,0-.028.047,0,.071l.374.218a.142.142,0,0,0,.123,0l.393-.227c.033,0,.028-.052,0-.071l-.374-.218A.142.142,0,0,0,59.077,290.314Z" transform="translate(-54.134 -281.001)" fill="#2a2d79"/>
            <path id="Path_949" data-name="Path 949" d="M60.247,289.637l-.393.227c-.033,0-.028.052,0,.071l.374.218a.128.128,0,0,0,.123,0l.393-.227c.033,0,.028-.047,0-.071l-.374-.213A.142.142,0,0,0,60.247,289.637Z" transform="translate(-54.75 -280.645)" fill="#2a2d79"/>
            <path id="Path_950" data-name="Path 950" d="M61.417,288.982l-.393.227c-.033,0-.028.047,0,.071l.374.213a.142.142,0,0,0,.123,0l.393-.227c.033,0,.028-.052,0-.071l-.374-.218a.142.142,0,0,0-.123,0Z" transform="translate(-55.367 -280.297)" fill="#2a2d79"/>
            <path id="Path_951" data-name="Path 951" d="M62.587,288.284l-.393.227c-.033,0-.028.052,0,.071l.374.218a.142.142,0,0,0,.123,0l.393-.227c.033,0,.028-.047,0-.071l-.374-.218a.142.142,0,0,0-.123,0Z" transform="translate(-55.983 -279.931)" fill="#3a2c6d"/>
            <path id="Path_952" data-name="Path 952" d="M63.757,287.612l-.393.227c-.033,0-.028.047,0,.071l.374.213a.128.128,0,0,0,.123,0l.393-.222c.033,0,.028-.052,0-.071l-.374-.218A.128.128,0,0,0,63.757,287.612Z" transform="translate(-56.6 -279.576)" fill="#3a2c6d"/>
            <path id="Path_953" data-name="Path 953" d="M64.927,286.984l-.393.227c-.033,0-.028.052,0,.071l.374.218a.142.142,0,0,0,.123,0l.393-.227c.033,0,.028-.052,0-.071l-.374-.218A.142.142,0,0,0,64.927,286.984Z" transform="translate(-57.217 -279.246)" fill="#3a2c6d"/>
            <path id="Path_954" data-name="Path 954" d="M66.1,286.262l-.393.227c-.033,0-.028.047,0,.071l.374.213a.128.128,0,0,0,.123,0l.393-.222c.033,0,.028-.052,0-.076l-.374-.213A.128.128,0,0,0,66.1,286.262Z" transform="translate(-57.833 -278.865)" fill="#3a2c6d"/>
            <path id="Path_955" data-name="Path 955" d="M67.267,285.584l-.393.227c-.033,0-.028.052,0,.071l.374.218a.142.142,0,0,0,.123,0l.393-.227c.033,0,.028-.052,0-.071l-.374-.218a.142.142,0,0,0-.123,0Z" transform="translate(-58.45 -278.508)" fill="#3a2c6d"/>
            <path id="Path_956" data-name="Path 956" d="M68.437,284.912l-.393.222c-.033,0-.028.052,0,.076l.374.213a.128.128,0,0,0,.123,0l.393-.222c.033,0,.028-.052,0-.076l-.374-.213a.128.128,0,0,0-.123,0Z" transform="translate(-59.066 -278.153)" fill="#3a2c6d"/>
            <path id="Path_957" data-name="Path 957" d="M69.607,284.234l-.393.227c-.033,0-.028.052,0,.071l.374.218a.142.142,0,0,0,.123,0l.393-.227c.033,0,.028-.052,0-.071l-.374-.218A.142.142,0,0,0,69.607,284.234Z" transform="translate(-59.683 -277.797)" fill="#3a2c6d"/>
            <path id="Path_958" data-name="Path 958" d="M70.777,283.562l-.393.222c-.033,0-.028.052,0,.076l.374.213a.128.128,0,0,0,.123,0l.393-.227c.033,0,.028-.047,0-.071l-.374-.213a.128.128,0,0,0-.123,0Z" transform="translate(-60.299 -277.442)" fill="#3a2c6d"/>
            <path id="Path_959" data-name="Path 959" d="M71.947,282.884l-.393.227c-.033,0-.028.052,0,.071l.374.218a.142.142,0,0,0,.123,0l.393-.227c.033,0,.028-.052,0-.071l-.374-.218A.142.142,0,0,0,71.947,282.884Z" transform="translate(-60.916 -277.085)" fill="#3a2c6d"/>
            <path id="Path_960" data-name="Path 960" d="M57.443,290.985l-.809.473c-.033,0-.028.052,0,.076l.374.213a.128.128,0,0,0,.123,0l.809-.473c.033,0,.028-.047,0-.071l-.374-.213A.128.128,0,0,0,57.443,290.985Z" transform="translate(-53.053 -281.354)" fill="#2a2d79"/>
            <path id="Path_961" data-name="Path 961" d="M57.362,289.984l-.388.227c-.033,0-.028.047,0,.071l.374.218a.151.151,0,0,0,.128,0l.388-.227c.033,0,.028-.052,0-.071l-.374-.218A.151.151,0,0,0,57.362,289.984Z" transform="translate(-53.233 -280.827)" fill="#2a2d79"/>
            <path id="Path_962" data-name="Path 962" d="M58.542,289.317l-.388.227c-.033,0-.028.052,0,.071l.374.218a.137.137,0,0,0,.128,0l.388-.227c.033,0,.028-.047,0-.071l-.374-.213a.151.151,0,0,0-.128,0Z" transform="translate(-53.854 -280.476)" fill="#2a2d79"/>
            <path id="Path_963" data-name="Path 963" d="M59.709,288.642l-.393.227c-.028,0,0,.047,0,.071l.374.213a.152.152,0,0,0,.128,0l.388-.227c.033,0,.028-.052,0-.071l-.369-.218a.151.151,0,0,0-.128,0Z" transform="translate(-54.472 -280.118)" fill="#2a2d79"/>
            <path id="Path_964" data-name="Path 964" d="M60.879,287.986l-.393.227c-.028,0,0,.052,0,.071l.374.218a.151.151,0,0,0,.128,0l.388-.227c.033,0,.028-.047,0-.071l-.369-.218A.171.171,0,0,0,60.879,287.986Z" transform="translate(-55.089 -279.775)" fill="#2a2d79"/>
            <path id="Path_965" data-name="Path 965" d="M62.041,287.29l-.393.227c-.028,0-.024.047,0,.071l.374.213a.151.151,0,0,0,.128,0l.388-.227c.033,0,.028-.052,0-.071l-.374-.218a.128.128,0,0,0-.123,0Z" transform="translate(-55.698 -279.405)" fill="#3a2c6d"/>
            <path id="Path_966" data-name="Path 966" d="M63.209,286.614l-.393.227c-.028,0-.028.052,0,.071l.374.218a.151.151,0,0,0,.128,0l.388-.227c.033,0,.028-.047,0-.071l-.374-.218A.142.142,0,0,0,63.209,286.614Z" transform="translate(-56.312 -279.051)" fill="#3a2c6d"/>
            <path id="Path_967" data-name="Path 967" d="M64.379,285.982l-.393.227c-.028,0-.028.047,0,.071l.374.213a.137.137,0,0,0,.128,0l.388-.222c.033,0,.028-.052,0-.076l-.374-.213a.128.128,0,0,0-.123,0Z" transform="translate(-56.929 -278.717)" fill="#3a2c6d"/>
            <path id="Path_968" data-name="Path 968" d="M65.539,285.264l-.393.227c-.028,0-.028.052,0,.071l.374.218a.142.142,0,0,0,.123,0l.393-.227c.033,0,.028-.052,0-.071l-.374-.218a.142.142,0,0,0-.123,0Z" transform="translate(-57.54 -278.339)" fill="#3a2c6d"/>
            <path id="Path_969" data-name="Path 969" d="M66.719,284.592l-.393.227c-.028,0-.028.047,0,.071l.374.213a.127.127,0,0,0,.123,0l.393-.222c.033,0,.028-.052,0-.076l-.374-.213A.128.128,0,0,0,66.719,284.592Z" transform="translate(-58.162 -277.984)" fill="#3a2c6d"/>
            <path id="Path_970" data-name="Path 970" d="M67.889,283.914l-.393.227c-.028,0-.028.052,0,.071l.374.218a.142.142,0,0,0,.123,0l.393-.227c.033,0,.028-.052,0-.071l-.374-.218A.142.142,0,0,0,67.889,283.914Z" transform="translate(-58.778 -277.628)" fill="#3a2c6d"/>
            <path id="Path_971" data-name="Path 971" d="M69.057,283.242l-.393.222c-.033,0-.028.052,0,.076l.374.213a.128.128,0,0,0,.123,0l.393-.222c.033,0,.028-.052,0-.076l-.374-.213A.128.128,0,0,0,69.057,283.242Z" transform="translate(-59.393 -277.273)" fill="#3a2c6d"/>
            <path id="Path_972" data-name="Path 972" d="M70.913,281.732l-1.078.62c-.033,0-.028.052,0,.071l.374.218a.142.142,0,0,0,.123,0l1.078-.624c.033,0,.028-.047,0-.071l-.374-.213a.128.128,0,0,0-.123,0Z" transform="translate(-60.01 -276.477)" fill="#3a2c6d"/>
            <path id="Path_973" data-name="Path 973" d="M56.033,290.671l-.535.307c-.028,0-.024.047,0,.071l.374.213a.151.151,0,0,0,.128,0l.53-.312c.033,0,.028-.047,0-.071l-.374-.213a.137.137,0,0,0-.123,0Z" transform="translate(-52.457 -281.187)" fill="#2a2d79"/>
            <path id="Path_974" data-name="Path 974" d="M67.941,284.379l-7.857,4.546c-.033,0-.028.052,0,.071l.189.109a.128.128,0,0,0,.123,0l7.857-4.536c.033,0,.028-.052,0-.071l-.189-.109A.142.142,0,0,0,67.941,284.379Z" transform="translate(-54.871 -277.875)" fill="#2a2d79"/>
            <path id="_Контур_18" data-name="&lt;Контур&gt;" d="M57.28,283.234l.052.028,1.358.785,2.412-1.4.052-.028-1.41-.814Z" transform="translate(-53.406 -276.526)" fill="#bfbfbf"/>
            <path id="_Контур_19" data-name="&lt;Контур&gt;" d="M57.39,283.331l1.358.785,2.412-1.4-1.358-.78Z" transform="translate(-53.464 -276.595)" fill="#e5e5e5"/>
            <path id="_Контур_20" data-name="&lt;Контур&gt;" d="M49.09,286.218v.118a.473.473,0,0,0,.251.43l4.782,2.762a.52.52,0,0,0,.251.066.507.507,0,0,0,.246-.066l8.661-5a.5.5,0,0,0,.246-.43V284l-9.153,5.265Z" transform="translate(-49.09 -277.681)" fill="#e5e5e5"/>
            <path id="_Контур_21" data-name="&lt;Контур&gt;" d="M60.55,282.4a.6.6,0,0,0,.506-.038l8.623-4.981a.577.577,0,0,0,.284-.412l.946-5.624a.7.7,0,0,0,0-.1.591.591,0,0,0-.17-.416L61.78,276a.473.473,0,0,0-.208.3Z" transform="translate(-55.129 -270.74)" fill="#f4f4f4"/>
            <path id="_Контур_22" data-name="&lt;Контур&gt;" d="M60.26,282.224l.057.038.08.038,1.022-6.092a.473.473,0,0,1,.208-.3l8.964-5.175a.587.587,0,0,0-.123-.09l-8.987,5.2a.426.426,0,0,0-.208.3Z" transform="translate(-54.976 -270.64)" fill="#e5e5e5"/>
          </g>
        </g>
        <path id="_Контур_23" data-name="&lt;Контур&gt;" d="M45.141,244.21s.109,2.143.061,2.332-.984.818-1.253,1.041,1.481,1.954,2.332,2.365,3.552-.639,3.6-1.968-.473-2.441-.875-2.5S45.141,244.21,45.141,244.21Z" transform="translate(-40.349 -237.496)" fill="#ffcea9"/>
        <path id="_Контур_24" data-name="&lt;Контур&gt;" d="M43.125,247.819s1.556,2.318,3.723,2.535c.686-.676.747-3.075-.2-3.841,0,0,.87-.7,1.466-.563a3.06,3.06,0,0,1,1.339,1.708,14.016,14.016,0,0,1,.766,4.957c-.033,2.27,0,8.018,0,8.018a4.9,4.9,0,0,1-2.289,3.306,7.1,7.1,0,0,1-5.146.71,2.57,2.57,0,0,1-1.892-1.67c.1-1.589.728-4.867.473-6.873s-.686-3.5-.8-5.118.218-1.585,1.026-2.162a12.99,12.99,0,0,1,1.533-1.008Z" transform="translate(-38.57 -238.403)" fill="#f4f4f4"/>
        <path id="_Контур_25" data-name="&lt;Контур&gt;" d="M43.744,269.776a10.723,10.723,0,0,0-1.216-.7,2.521,2.521,0,0,1-1.041-.634,10.729,10.729,0,0,1-1.452-3.16,14.134,14.134,0,0,1-.525-4.782c.189-1.93.885-4.631,1.06-5.742a1.765,1.765,0,0,0-.7-1.963c-.61-.473-1.447-.27-1.892,1.287A29.947,29.947,0,0,0,37,260.68a15.051,15.051,0,0,0,.738,4.867,17.77,17.77,0,0,0,1.859,3.827,15.2,15.2,0,0,1,.605,1.419,4.962,4.962,0,0,0,1.419,1.892c.544.393.8.473.946.374s.128-.27-.1-.473a4.04,4.04,0,0,1-.974-1.088s.473.473.79.738a4.163,4.163,0,0,0,.908.582c.322.142.762-.128.535-.345s-.473-.317-.908-.714a3.865,3.865,0,0,1-.648-.7,7.3,7.3,0,0,0,1,.639,1.7,1.7,0,0,0,.918.251c.17,0,.374-.241.057-.473a6.266,6.266,0,0,1-1.2-.823c-.35-.345-.549-.639-.473-.643a7.087,7.087,0,0,0,.7.336c.407.128.847,0,.9-.208S44.127,269.965,43.744,269.776Z" transform="translate(-36.7 -241.904)" fill="#ffcea9"/>
        <path id="_Контур_26" data-name="&lt;Контур&gt;" d="M49.767,234.294h0a3.077,3.077,0,0,0-3.169-2.838,3.311,3.311,0,0,0-1.679,6.021,3.245,3.245,0,0,0,.265.724,4.769,4.769,0,0,0,2.966,1.074,1.57,1.57,0,0,0,1.367-1.116A7.7,7.7,0,0,0,49.767,234.294Z" transform="translate(-40.127 -230.772)" fill="#ffcea9"/>
        <path id="Path_975" data-name="Path 975" d="M44.212,236.73h0l.156-1.452s-1.183-3.07,1.618-2.479c1.845.388,2.308.558,2.871-.681s-1.419-2.365-3.784-2.048a3.259,3.259,0,0,0-2.914,3.311C42.23,234.289,42.471,236.157,44.212,236.73Z" transform="translate(-39.42 -230.016)" fill="#2a2d79"/>
        <path id="Path_976" data-name="Path 976" d="M36.37,256.723a3.959,3.959,0,0,0,3.335,1.083,22.949,22.949,0,0,0,.88-3.727s0-1.972-1.509-1.92S36.37,256.723,36.37,256.723Z" transform="translate(-36.37 -241.684)" fill="#ededed"/>
        <path id="Path_977" data-name="Path 977" d="M58.536,250.516a1.684,1.684,0,0,0,1.131-.506c-.061-.795-1.078-3.817-3.127-4.04a3.756,3.756,0,0,1,1.277,1.542,19.923,19.923,0,0,1,.719,3Z" transform="translate(-46.999 -238.423)" fill="#ededed"/>
      </g>
    </g>
  </g>
</svg>
