<svg xmlns="http://www.w3.org/2000/svg" xmlns:xlink="http://www.w3.org/1999/xlink" width="162.642" height="90.283" viewBox="0 0 162.642 90.283">
  <defs>
    <clipPath id="clip-path">
      <path id="Path_1697" data-name="Path 1697" d="M27.013,185.632V201.7a1.038,1.038,0,0,1-.059.325,1.417,1.417,0,0,1-.081.192,1.207,1.207,0,0,1-.429.478L4.812,215.181a.384.384,0,0,1-.429.02.306.306,0,0,1-.088-.1.514.514,0,0,1-.055-.247V198.78a.976.976,0,0,1,.055-.325,1.3,1.3,0,0,1,.517-.67L26.437,185.3h0a.387.387,0,0,1,.429-.023.289.289,0,0,1,.088.107A.514.514,0,0,1,27.013,185.632Z" transform="translate(-4.239 -185.223)" fill="none"/>
    </clipPath>
    <clipPath id="clip-path-2">
      <path id="Path_1705" data-name="Path 1705" d="M446.356,62.892V81.706a1.22,1.22,0,0,1-.068.377,2.2,2.2,0,0,1-.094.224,1.454,1.454,0,0,1-.5.559L420.36,97.505a.452.452,0,0,1-.5.023.326.326,0,0,1-.1-.124.625.625,0,0,1-.062-.29V78.284a1.135,1.135,0,0,1,.065-.364,1.323,1.323,0,0,1,.1-.234,1.405,1.405,0,0,1,.507-.563L445.683,62.5h0a.455.455,0,0,1,.507-.026.358.358,0,0,1,.1.124A.651.651,0,0,1,446.356,62.892Z" transform="translate(-419.689 -62.41)" fill="none"/>
    </clipPath>
    <clipPath id="clip-path-3">
      <path id="Path_1714" data-name="Path 1714" d="M216.6,47.616V87.561a2.536,2.536,0,0,1-.143.8,3.376,3.376,0,0,1-.2.475,3,3,0,0,1-1.067,1.191l-53.766,31.045a.95.95,0,0,1-1.07.052.758.758,0,0,1-.218-.263,1.337,1.337,0,0,1-.13-.615V80.3a2.554,2.554,0,0,1,.133-.777,3.459,3.459,0,0,1,.211-.5,2.989,2.989,0,0,1,1.077-1.194L215.173,46.79h0a.976.976,0,0,1,1.073-.052.758.758,0,0,1,.218.263A1.337,1.337,0,0,1,216.6,47.616Z" transform="translate(-159.998 -46.601)" fill="none"/>
    </clipPath>
  </defs>
  <g id="Слой_2" data-name="Слой 2" transform="translate(-1.669)">
    <g id="Слой_1" data-name="Слой 1" transform="translate(1.669)">
      <path id="Path_1690" data-name="Path 1690" d="M24.439,184.185v16.069a.95.95,0,0,1-.059.325,1.1,1.1,0,0,1-.081.192,1.207,1.207,0,0,1-.429.478L2.239,213.74a.384.384,0,0,1-.429.026.289.289,0,0,1-.088-.107.546.546,0,0,1-.052-.247V197.343a1.064,1.064,0,0,1,.052-.325,1.554,1.554,0,0,1,.085-.2,1.239,1.239,0,0,1,.433-.478l21.625-12.5h0a.384.384,0,0,1,.433-.02.348.348,0,0,1,.088.1.556.556,0,0,1,.055.26Z" transform="translate(-1.669 -123.988)" fill="#61c1ef"/>
      <path id="Path_1691" data-name="Path 1691" d="M2.23,273.928l.833.459.052-1.477Z" transform="translate(-2.048 -184.137)" fill="#61c1ef"/>
      <path id="Path_1692" data-name="Path 1692" d="M70.288,183.88l.9.491-1.265,1.516Z" transform="translate(-47.719 -124.067)" fill="#ddb545"/>
      <path id="Path_1693" data-name="Path 1693" d="M27.013,185.632V201.7a1.038,1.038,0,0,1-.059.325,1.417,1.417,0,0,1-.081.192,1.207,1.207,0,0,1-.429.478L4.812,215.181a.384.384,0,0,1-.429.02.306.306,0,0,1-.088-.1.514.514,0,0,1-.055-.247V198.78a.976.976,0,0,1,.055-.325,1.3,1.3,0,0,1,.517-.67L26.437,185.3h0a.387.387,0,0,1,.429-.023.289.289,0,0,1,.088.107A.514.514,0,0,1,27.013,185.632Z" transform="translate(-3.403 -124.973)" fill="#61c1ef"/>
      <g id="Group_38" data-name="Group 38" transform="translate(0.836 60.25)" clip-path="url(#clip-path)">
        <path id="Path_1694" data-name="Path 1694" d="M4.334,246.273,15.625,231.19,26.9,233.181v1.594L4.24,247.854Z" transform="translate(-4.24 -216.238)" opacity="0.12"/>
        <path id="Path_1695" data-name="Path 1695" d="M12.764,226.642,1.5,224.782.459,224.45,0,242.776l1.522-1.109Z" transform="translate(-1.379 -211.69)" opacity="0.05"/>
        <path id="Path_1696" data-name="Path 1696" d="M39.24,197.171,50.511,182.3l1.038-1.526.459,17.793-1.5.6Z" transform="translate(-27.855 -182.219)" opacity="0.05"/>
      </g>
      <path id="Path_1698" data-name="Path 1698" d="M443.336,61.211V80.025a1.22,1.22,0,0,1-.068.377,2.2,2.2,0,0,1-.094.224,1.409,1.409,0,0,1-.5.559L417.34,95.824a.455.455,0,0,1-.5.023.358.358,0,0,1-.1-.124.625.625,0,0,1-.062-.289V76.6a1.136,1.136,0,0,1,.065-.364,1.625,1.625,0,0,1,.1-.234,1.406,1.406,0,0,1,.507-.563l25.323-14.631h0a.449.449,0,0,1,.5-.026.325.325,0,0,1,.1.124A.65.65,0,0,1,443.336,61.211Z" transform="translate(-281.677 -40.969)" fill="#61c1ef"/>
      <path id="Path_1699" data-name="Path 1699" d="M417.33,166.284l.976.537.062-1.731Z" transform="translate(-282.123 -111.389)" fill="#61c1ef"/>
      <path id="Path_1700" data-name="Path 1700" d="M497.029,60.83l1.054.579L496.6,63.182Z" transform="translate(-335.607 -41.043)" fill="#ddb545"/>
      <path id="Path_1701" data-name="Path 1701" d="M446.356,62.892V81.706a1.22,1.22,0,0,1-.068.377,2.2,2.2,0,0,1-.094.224,1.454,1.454,0,0,1-.5.559L420.36,97.505a.452.452,0,0,1-.5.023.326.326,0,0,1-.1-.124.625.625,0,0,1-.062-.29V78.284a1.135,1.135,0,0,1,.065-.364,1.323,1.323,0,0,1,.1-.234,1.405,1.405,0,0,1,.507-.563L445.683,62.5h0a.455.455,0,0,1,.507-.026.358.358,0,0,1,.1.124A.651.651,0,0,1,446.356,62.892Z" transform="translate(-283.714 -42.109)" fill="#61c1ef"/>
      <g id="Group_39" data-name="Group 39" transform="translate(135.975 20.301)" clip-path="url(#clip-path-2)">
        <path id="Path_1702" data-name="Path 1702" d="M419.794,133.893l13.229-17.663,13.2,2.332v1.867l-26.53,15.318Z" transform="translate(-419.69 -98.723)" opacity="0.12"/>
        <path id="Path_1703" data-name="Path 1703" d="M429.67,110.906l-13.2-2.176-1.213-.39-.54,21.462,1.783-1.3Z" transform="translate(-416.336 -93.4)" opacity="0.05"/>
        <path id="Path_1704" data-name="Path 1704" d="M460.68,76.395l13.2-17.416,1.213-1.789.537,20.838-1.75.7Z" transform="translate(-447.346 -58.888)" opacity="0.05"/>
      </g>
      <path id="Path_1706" data-name="Path 1706" d="M211.4,27.568a.527.527,0,0,0-.182-.231,1.714,1.714,0,0,0-.52-.172l-27.47-7.895-27.47,39.616a3.364,3.364,0,0,0-.488.706,3.312,3.312,0,0,0-.211.5,2.554,2.554,0,0,0-.133.777v39.961a1.392,1.392,0,0,0,.13.618.754.754,0,0,0,.221.26.95.95,0,0,0,1.067-.049L210.11,70.613a3.253,3.253,0,0,0,1.272-1.665,2.466,2.466,0,0,0,.143-.8V28.183a1.366,1.366,0,0,0-.13-.615Z" transform="translate(-105.069 -13.002)" fill="#61c1ef"/>
      <path id="Path_1707" data-name="Path 1707" d="M326.36,43.93l1.688,1-2.358,1.731Z" transform="translate(-220.291 -29.64)" fill="#ceb95f"/>
      <path id="Path_1708" data-name="Path 1708" d="M157.727,269.71,156,268.669l2.664-1.919Z" transform="translate(-105.799 -179.981)" fill="#61c1ef"/>
      <path id="Path_1709" data-name="Path 1709" d="M241.93,19.27l1.649.992,27.955,8.028-1.389-.823a10.688,10.688,0,0,0-1.659-.566Z" transform="translate(-163.777 -13.002)" fill="#619fef"/>
      <path id="Path_1710" data-name="Path 1710" d="M216.6,47.816V87.76a2.536,2.536,0,0,1-.143.8,3.375,3.375,0,0,1-.2.475,3,3,0,0,1-1.067,1.191l-53.766,31.045a.95.95,0,0,1-1.07.052.758.758,0,0,1-.218-.263,1.337,1.337,0,0,1-.13-.615V80.5a2.554,2.554,0,0,1,.133-.777,3.459,3.459,0,0,1,.211-.5,2.989,2.989,0,0,1,1.077-1.194l53.753-31.039-.917.631c.429-.244,1.737-.882,2-.686a.758.758,0,0,1,.218.263A1.337,1.337,0,0,1,216.6,47.816Z" transform="translate(-108.497 -31.643)" fill="#61c1ef"/>
      <g id="Group_40" data-name="Group 40" transform="translate(51.502 15.159)" clip-path="url(#clip-path-3)">
        <path id="Path_1711" data-name="Path 1711" d="M160.341,198.209l27.952-37.359,28.02,4.951v3.962L159.99,202.278Z" transform="translate(-159.993 -123.687)" opacity="0.12"/>
        <path id="Path_1712" data-name="Path 1712" d="M181.175,149.549l-28.017-4.622-2.573-.826-1.145,45.559,3.783-2.752Z" transform="translate(-152.874 -112.385)" opacity="0.05"/>
        <path id="Path_1713" data-name="Path 1713" d="M246.82,76.128l28.017-36.972,2.573-3.8L278.555,79.6l-3.718,1.483Z" transform="translate(-218.578 -39.017)" opacity="0.05"/>
      </g>
      <path id="Path_1715" data-name="Path 1715" d="M161.05,62.639,189.008,22.32l27.955,8.031-27.955,37.03Z" transform="translate(-109.206 -15.06)" fill="#61c1ef"/>
      <path id="Path_1716" data-name="Path 1716" d="M216.963,30.351l-6.327,8.383L189.008,67.382l-21.625-3.669-6.333-1.073,6.333-9.134,15.581-22.471,6.044-8.714,6.044,1.737,15.584,4.479Z" transform="translate(-109.206 -15.06)" fill="#61c1ef" opacity="0.3"/>
      <path id="Path_1717" data-name="Path 1717" d="M223.773,0V23.674L202.145,52.322,180.52,48.653V24.972Z" transform="translate(-122.343)" fill="#fafbff"/>
      <path id="Path_1718" data-name="Path 1718" d="M202.6,83.185,191.93,89.346V77.024L202.6,70.86Z" transform="translate(-130.041 -47.81)" fill="#e9eaf2"/>
      <path id="Path_1719" data-name="Path 1719" d="M241.273,60.855,230.6,67.019V54.694l10.673-6.164Z" transform="translate(-156.133 -32.744)" fill="#e9eaf2"/>
      <path id="Path_1720" data-name="Path 1720" d="M279.936,38.535,269.26,44.7V32.374l10.676-6.164Z" transform="translate(-182.217 -17.684)" fill="#e9eaf2"/>
      <path id="Path_1721" data-name="Path 1721" d="M227.76,75.377,191.93,96.062V93.918L227.76,73.23Z" transform="translate(-130.041 -49.41)" fill="#e9eaf2"/>
      <path id="Path_1722" data-name="Path 1722" d="M222.415,96.91v2.147l-27.682,15.981-2.814-.286v-.234Z" transform="translate(-130.035 -65.387)" fill="#e9eaf2"/>
      <path id="Path_1723" data-name="Path 1723" d="M228.419,119.58v2.147l-16.319,9.42-3.37-.2Z" transform="translate(-141.377 -80.683)" fill="#e9eaf2"/>
      <path id="Path_1724" data-name="Path 1724" d="M238.526,138.77v1.311l-1.119,1.48-6.646,3.838-2.892-.475Z" transform="translate(-154.291 -93.63)" fill="#e9eaf2"/>
    </g>
  </g>
</svg>
