<svg xmlns="http://www.w3.org/2000/svg" width="14" height="20" viewBox="0 0 14 20">
  <path id="ic_fluent_call_24_filled" d="M7.772,2.439l1.076-.344a2.064,2.064,0,0,1,2.52,1.217l.859,2.028a2.318,2.318,0,0,1-.514,2.568l-1.894,1.8A8,8,0,0,0,10.9,12.883a8.678,8.678,0,0,0,2.271,2.6l2.275-.76a2.034,2.034,0,0,1,2.33.821l1.233,1.81a2.322,2.322,0,0,1-.258,2.916l-.818.821a3.02,3.02,0,0,1-3.052.778q-3.808-1.188-7-7.053T5.623,4.843a3.26,3.26,0,0,1,2.149-2.4Z" transform="translate(-5.409 -2)" fill="#eae6ff"/>
</svg>
