<svg xmlns="http://www.w3.org/2000/svg" width="20" height="19.99" viewBox="0 0 20 19.99">
  <path id="etap_poprawek_ikonka" data-name="etap poprawek ikonka" d="M10.14,2.006a1.266,1.266,0,0,1,1.11,1.411V7.75h-.9a2,2,0,1,0,0,1.5h.9v10.9a1.588,1.588,0,0,1-.783,1.46A3.4,3.4,0,0,1,8.907,22a4.241,4.241,0,0,1-3.356-1.668,5.171,5.171,0,0,1-1.02-2.137,3.447,3.447,0,0,1-1.269-.69A3.832,3.832,0,0,1,2,14.466,8.387,8.387,0,0,1,2.19,12.5H6.4a1.349,1.349,0,0,1,1.335,1.151,2,2,0,1,0,1.507-.009A2.85,2.85,0,0,0,6.4,11H3.04a2.036,2.036,0,0,1,.5-.3,4.893,4.893,0,0,1-.178-1.127,6.355,6.355,0,0,1,.3-2.181A4.222,4.222,0,0,1,4.69,5.616a2.122,2.122,0,0,1,1.1-.567A3.666,3.666,0,0,1,7.139,3.012a4.942,4.942,0,0,1,3-1.006ZM12.75,17H14.4a2.85,2.85,0,0,0,2.85-2.85v-1.8a2,2,0,1,0-1.5,0v1.8A1.35,1.35,0,0,1,14.4,15.5H12.75V3.417a1.266,1.266,0,0,1,1.11-1.411,4.94,4.94,0,0,1,3,1.006,3.67,3.67,0,0,1,1.353,2.037,2.131,2.131,0,0,1,1.1.567A4.216,4.216,0,0,1,20.348,7.39a6.355,6.355,0,0,1,.3,2.181,4.875,4.875,0,0,1-.178,1.127l.066.03a2.082,2.082,0,0,1,.894.81A5.649,5.649,0,0,1,22,14.466,3.828,3.828,0,0,1,20.738,17.5a3.447,3.447,0,0,1-1.27.69,5.172,5.172,0,0,1-1.019,2.137A4.241,4.241,0,0,1,15.092,22a3.4,3.4,0,0,1-1.56-.387,1.592,1.592,0,0,1-.782-1.461V17ZM8,8.5a.5.5,0,1,1,.5.5A.5.5,0,0,1,8,8.5ZM8.5,15a.5.5,0,1,0,.5.5A.5.5,0,0,0,8.5,15ZM16,10.5a.5.5,0,1,0,.5-.5A.5.5,0,0,0,16,10.5Z" transform="translate(-2 -2.006)" fill="#eae6ff"/>
</svg>
