<svg xmlns="http://www.w3.org/2000/svg" width="14.5" height="19.999" viewBox="0 0 14.5 19.999">
  <path id="etap_kreatywny_ikonka" data-name="etap kreatywny ikonka" d="M15.538,19l-.29,1.259a2.25,2.25,0,0,1-2.02,1.735L13.055,22H10.944A2.25,2.25,0,0,1,8.8,20.423l-.046-.167L8.461,19h7.077ZM12,2a7.25,7.25,0,0,1,7.25,7.25,7.972,7.972,0,0,1-2.765,5.84.25.25,0,0,0-.071.125L15.886,17.5H8.114l-.526-2.283a.25.25,0,0,0-.071-.124A7.975,7.975,0,0,1,4.75,9.25,7.25,7.25,0,0,1,12,2Z" transform="translate(-4.75 -2.001)" fill="#eae6ff"/>
</svg>
