<svg xmlns="http://www.w3.org/2000/svg" width="17.949" height="17.85" viewBox="0 0 17.949 17.85">
  <path id="etap_produkcyjny_ikonka" data-name="etap produkcyjny ikonka" d="M12.3,4.576,16.66,8.939l-.83.83a5.6,5.6,0,0,0-6.05,6.05l-1.69,1.69a1.94,1.94,0,0,1-.862.5l-4.411,1.2a.647.647,0,0,1-.793-.793l1.2-4.412a1.94,1.94,0,0,1,.5-.862Zm6.115-1.75a3.086,3.086,0,0,1,0,4.363l-.836.836L13.21,3.662l.836-.836a3.085,3.085,0,0,1,4.364,0Zm-5.821,9.489a1.725,1.725,0,0,1-1.243,2.153l-.5.124a4.94,4.94,0,0,0,.005,1.558l.466.112a1.725,1.725,0,0,1,1.25,2.164l-.161.545a4.547,4.547,0,0,0,1.28.794l.426-.447a1.725,1.725,0,0,1,2.5,0l.429.453a4.553,4.553,0,0,0,1.279-.787l-.171-.592a1.725,1.725,0,0,1,1.243-2.152l.5-.124a4.94,4.94,0,0,0-.005-1.559l-.466-.112a1.725,1.725,0,0,1-1.25-2.164l.161-.543a4.553,4.553,0,0,0-1.28-.8l-.425.448a1.725,1.725,0,0,1-2.5,0l-.429-.453a4.545,4.545,0,0,0-1.279.786l.171.592Zm2.777,4.334a1.294,1.294,0,1,1,1.25-1.293A1.273,1.273,0,0,1,15.367,16.648Z" transform="translate(-2.002 -1.922)" fill="#eae6ff"/>
</svg>
