<svg xmlns="http://www.w3.org/2000/svg" width="17.16" height="19.5" viewBox="0 0 17.16 19.5">
  <path id="etap_czasowy_ikonka" data-name="etap czasowy ikonka" d="M12,5a8.5,8.5,0,1,1-8.5,8.5A8.5,8.5,0,0,1,12,5Zm0,3a.75.75,0,0,0-.743.648l-.007.1v4.5l.007.1a.75.75,0,0,0,1.486,0l.007-.1V8.75l-.007-.1A.75.75,0,0,0,12,8Zm7.17-2.877.082.061,1.149,1a.75.75,0,0,1-.9,1.193l-.081-.061-1.149-1a.75.75,0,0,1,.9-1.193ZM14.25,2.5a.75.75,0,0,1,.1,1.493L14.25,4H9.75a.75.75,0,0,1-.1-1.493l.1-.007Z" transform="translate(-3.5 -2.5)" fill="#eae6ff"/>
</svg>
