<svg id="Слой_2" data-name="Слой 2" xmlns="http://www.w3.org/2000/svg" xmlns:xlink="http://www.w3.org/1999/xlink" width="295.369" height="328.853" viewBox="0 0 295.369 328.853">
  <defs>
    <linearGradient id="linear-gradient" x1="0.5" x2="0.5" y2="1" gradientUnits="objectBoundingBox">
      <stop offset="0" stop-color="#f8def0"/>
      <stop offset="1" stop-color="#cf83c8"/>
    </linearGradient>
    <linearGradient id="linear-gradient-3" x1="0.497" y1="0.003" x2="0.497" y2="1.01" gradientUnits="objectBoundingBox">
      <stop offset="0.01" stop-color="#fff"/>
      <stop offset="0.88" stop-color="#fff" stop-opacity="0"/>
    </linearGradient>
    <linearGradient id="linear-gradient-4" x1="0.503" y1="-0.005" x2="0.503" y2="0.998" xlink:href="#linear-gradient-3"/>
  </defs>
  <g id="Слой_1" data-name="Слой 1" transform="translate(0)">
    <ellipse id="Ellipse_46" data-name="Ellipse 46" cx="26.183" cy="15.121" rx="26.183" ry="15.121" transform="translate(243.003 129.575)" fill="#d6d8e5" opacity="0.4"/>
    <g id="Girl_8" transform="translate(261.757 7.634)">
      <path id="_Контур_" data-name="&lt;Контур&gt;" d="M410.879,13.351c1.019-1.644,8.826-2.723,11.391,3.887.973,2.512.829,8.918,1.644,12.95s2.729,6.307,3.42,9.576-.434,8.761-8.281,9.76-13.93-1.8-15.785-4.3-1.9-7.846.033-10.714,3.4-5.2,3.354-8.925Z" transform="translate(-399.313 -11.777)" fill="#2a2d79"/>
      <path id="Path_1239" data-name="Path 1239" d="M401.1,55.141S399.248,68.19,402.74,77.5s2.532-2.394,2.532-2.394l-.842-2.769s-.7-10.694-.414-13.325.224-4.867.414-5.077-.7-.625-1.065-.658S401.1,55.141,401.1,55.141Z" transform="translate(-398.882 -25.871)" fill="#ffcea9"/>
      <path id="_Контур_2" data-name="&lt;Контур&gt;" d="M417.028,12.056s-5.88-1.69-9.445,1.486a8.728,8.728,0,0,0-2.512,8.708c.473,1.855,1.427,4.387,2.9,4.525S417.028,12.056,417.028,12.056Z" transform="translate(-400.306 -11.607)" fill="#3a2c6d"/>
      <path id="_Контур_3" data-name="&lt;Контур&gt;" d="M420.525,36.66s-.381,6.577-.263,7.031,2.572.947,3.256,1.519-3.558,7.235-5.722,8.2-8.853-1.532-9.313-4.86c-.434-3.065,1.914-5.446,2.815-6.275a12.385,12.385,0,0,1,1.848-.046l.2-3.177C416.27,38.12,420.525,36.66,420.525,36.66Z" transform="translate(-401.56 -20.182)" fill="#ffcea9"/>
      <path id="_Контур_4" data-name="&lt;Контур&gt;" d="M419.132,47.218c1.842.283,3.946,1.269,4.229,2.276.342,1.177,1.065,6.715-.526,10.931s-2.664,6.9-3.584,8.715c0,0-7.958,3.42-14.377-.566,0,0-.447-4.518-.474-6.939-5.919-5.17-.862-11.543,4.163-16.5a10.4,10.4,0,0,1,1.809,0S405.893,50.4,409,53.446C415.673,51.407,416.995,48.415,419.132,47.218Z" transform="translate(-399.266 -23.071)" fill="#f4f4f4"/>
      <path id="_Контур_5" data-name="&lt;Контур&gt;" d="M408.041,20.6h0c.658-4.209,3.7-7.386,8.037-7.13a8.373,8.373,0,0,1,7.892,8.846,8.287,8.287,0,0,1-3.677,6.4,8.684,8.684,0,0,1-.658,1.842c-1.546,1.789-5.623,2.927-6.972,2.94-1.164,0-2.17-1.072-3.289-2.881C407.1,26.857,407.68,22.68,408.041,20.6Z" transform="translate(-401.31 -12.241)" fill="#ffcea9"/>
      <path id="Path_1240" data-name="Path 1240" d="M417.766,13.482c3.045.6,5.544,1.454,6.373,4.446.566,2.059,1.315,5.979.6,7.636l-.434,1.19-3.69,1.9s-1.717-1.434-1.184-5.637a3.039,3.039,0,0,0-.52-1.592,4.788,4.788,0,0,1-.506-1.269,4.775,4.775,0,0,0-2.387-2.585c-2.749-1.539-6.768-.21-7.327.349a8.011,8.011,0,0,1,9.076-4.44Z" transform="translate(-401.649 -12.178)" fill="#2a2d79"/>
      <path id="_Контур_6" data-name="&lt;Контур&gt;" d="M432.592,79.594c.658-4.262,1.973-7.031,1.368-9.372a85.179,85.179,0,0,0-5.183-13.812c-1.315-2.631-.94-4.5.454-5.544,1.572-1.177,3.071-.658,4.486,2.276,1.776,3.7,3.782,7.491,4.755,13,.48,2.67.73,5.262-.132,10.747-.605,3.834-1.822,5.985-3.289,9.583C434.65,87.447,431.974,83.211,432.592,79.594Z" transform="translate(-408.246 -24.844)" fill="#ffcea9"/>
      <path id="Path_1241" data-name="Path 1241" d="M424.7,215.78c-1.539,1.256-3.946.388-4.052.506a63.352,63.352,0,0,1-5.65,4.308c-.96.756-2.453,1.769-2.184,3.216.487,2.6,4.643,1.8,6.209,1.006s2.848-2.111,4.334-3.032c1.052-.658,2.1-1,2.263-2.335C425.718,218.641,424.968,215.754,424.7,215.78Z" transform="translate(-403.049 -81.494)" fill="#2a2d79"/>
      <path id="Path_1242" data-name="Path 1242" d="M425.626,220.54c-.2,1.315-1.23,1.631-2.282,2.282-1.506.941-2.835,2.289-4.4,3.085-1.454.73-5.064,1.46-6.084-.395.552,2.506,4.637,1.717,6.189.934s2.848-2.111,4.334-3.032c1.052-.658,2.1-1,2.263-2.335A2.634,2.634,0,0,0,425.626,220.54Z" transform="translate(-403.076 -83.123)" fill="#619fef"/>
      <path id="Path_1243" data-name="Path 1243" d="M408.821,212.5c-1.407,1.151-3.538.506-3.644.612a60.7,60.7,0,0,1-5.156,3.946c-.881.7-2.256,1.618-2.006,2.953.447,2.374,4.249,1.644,5.689.914a47.53,47.53,0,0,0,3.946-2.776c.967-.6,1.921-.914,2.072-2.138C409.833,215.256,409.07,212.474,408.821,212.5Z" transform="translate(-397.985 -80.371)" fill="#2a2d79"/>
      <path id="Path_1244" data-name="Path 1244" d="M409.754,217.06c-.191,1.171-1.131,1.493-2.091,2.091-1.381.862-2.631,2.1-4.032,2.822-1.315.658-4.6,1.315-5.571-.355.506,2.289,4.249,1.572,5.669.848s2.631-1.934,3.946-2.776c.967-.6,1.921-.914,2.072-2.138a2.15,2.15,0,0,0,.007-.493Z" transform="translate(-398.01 -81.932)" fill="#619fef"/>
      <path id="Path_1245" data-name="Path 1245" d="M401.5,96.749A132.075,132.075,0,0,1,404.13,83.72a15.746,15.746,0,0,0,5.919,1.467,48.378,48.378,0,0,0,8.912-.868,52.213,52.213,0,0,0,3.131,4.847c1.532,2.124,4.505,6.788,3.788,14.923-.474,5.321-3.453,27.906-3.453,27.906a42.448,42.448,0,0,1,1.835,11.76,96.538,96.538,0,0,1-1.868,14.029L420.619,170.6s-2.368,1.71-4.051.506l.21-12.549c-.2-3.071-.513-7.6-.7-10.523-.322-4.709-1.164-12.194-1.407-14.062s-.842-5.13-1.131-8.794-1.664-22.25-1.664-22.25l-.191,3.486s-.178,5.65-.993,12.628-1.1,10.069-1.1,10.069a14.908,14.908,0,0,1,1.592,4.505c.145,1.506,1.868,13.43.835,19.494L409.9,168.538a4.051,4.051,0,0,1-3.65.48l-1.243-15.542c-.835-5.919-2.631-18.455-2.874-20.086a66.248,66.248,0,0,1-1.052-9.945C400.69,116.7,400.822,102.063,401.5,96.749Z" transform="translate(-398.97 -36.291)" fill="#ffcea9"/>
      <path id="Path_1246" data-name="Path 1246" d="M418.4,81.284l4.6,9.208s6.978,10.221-.25,36.483l1.322,8.083s-13.693,8.787-22.855,0c0,0-3.177-24.269-1.486-35.463A128.138,128.138,0,0,1,404,80.58s2.243,2.48,13.812.842" transform="translate(-398.413 -35.216)" fill="#61c1ef"/>
      <path id="Path_1247" data-name="Path 1247" d="M436.164,58.131s-3.177,3.164-6.945,2.769l-1.809-6.156s-1.177-3.223,1.572-4.6S434.585,51.824,436.164,58.131Z" transform="translate(-407.971 -24.685)" fill="#ededed"/>
      <path id="Path_1248" data-name="Path 1248" d="M408.218,45.133s-3.637-1.1-7.5,6.945l1.44.875S405.962,47.205,408.218,45.133Z" transform="translate(-398.921 -23.065)" fill="#ededed"/>
    </g>
    <ellipse id="Ellipse_47" data-name="Ellipse 47" cx="26.183" cy="15.121" rx="26.183" ry="15.121" transform="translate(0 191.07)" fill="#d6d8e5" opacity="0.4"/>
    <g id="Men_13" transform="translate(8.077 58.226)">
      <path id="Path_1249" data-name="Path 1249" d="M18.739,306.44c1.874,1.526,4.637.132,4.775.27a84.071,84.071,0,0,0,6.919,5.762c1.164.921,2.986,2.144,2.631,3.913-.592,3.157-5.643,2.184-7.55,1.217s-3.466-2.565-5.262-3.683c-1.315-.8-2.558-1.217-2.756-2.841C17.391,310.1,18.4,306.4,18.739,306.44Z" transform="translate(-14.063 -163.119)" fill="#2a2d79"/>
      <path id="Path_1250" data-name="Path 1250" d="M17.555,312.49c.243,1.559,1.493,1.973,2.776,2.782,1.828,1.138,3.446,2.782,5.354,3.749,1.763.888,6.156,1.776,7.393-.48-.658,3.045-5.637,2.091-7.524,1.131s-3.466-2.565-5.262-3.683c-1.315-.8-2.558-1.217-2.756-2.841a2.96,2.96,0,0,1,.02-.658Z" transform="translate(-14.076 -165.19)" fill="#619fef"/>
      <path id="Path_1251" data-name="Path 1251" d="M43.341,297.245c1.868,1.526,5.15-.145,5.262,0a73.955,73.955,0,0,0,6.176,5.577c1.171.921,2.993,2.144,2.631,3.913-.592,3.157-5.643,2.184-7.55,1.217s-3.466-2.565-5.262-3.683c-1.315-.8-2.552-1.217-2.749-2.841C41.769,300.448,43.006,297.206,43.341,297.245Z" transform="translate(-22.4 -159.968)" fill="#2a2d79"/>
      <path id="Path_1252" data-name="Path 1252" d="M41.987,303c.25,1.559,1.5,1.973,2.776,2.782,1.835,1.138,3.453,2.782,5.354,3.749,1.763.888,6.163,1.776,7.4-.48-.658,3.045-5.643,2.091-7.531,1.131s-3.46-2.565-5.262-3.683c-1.283-.8-2.552-1.217-2.749-2.841a2.894,2.894,0,0,1,.013-.658Z" transform="translate(-22.44 -161.941)" fill="#619fef"/>
      <path id="_Контур_7" data-name="&lt;Контур&gt;" d="M19.051,197.775c.092,2.835.973,15.127,1.368,21.658s.487,14.47.487,14.47-1.125,4.749-1.855,10.326,0,23.184,0,23.184a4.446,4.446,0,0,0,4.8,0s3-14.088,4.387-20.435,1.631-10.01,2.355-13.943c.868-4.762,2.749-26.966,2.749-26.966l.75.046,1.973,25.078a28.15,28.15,0,0,0-1.263,5.689c-.546,4.084.572,24.638.572,24.638a4.985,4.985,0,0,0,5.189-.21s5.012-27.222,5.012-31.366c0-2.736-.467-38.864-.467-38.864Z" transform="translate(-14.487 -123.632)" fill="#61c1ef"/>
      <path id="_Контур_8" data-name="&lt;Контур&gt;" d="M27.717,118s.322,6.176.184,6.722-2.841,2.361-3.624,3.012,4.275,5.637,6.728,6.761,10.254-1.842,10.392-5.669-1.315-7.044-2.532-7.235S27.717,118,27.717,118Z" transform="translate(-16.359 -98.617)" fill="#ffcea9"/>
      <path id="Path_1253" data-name="Path 1253" d="M55.038,131.525c.362-2.723-1.434-5.314.309-7.485,6.1,5.979,5.321,21.8,6.709,31.925,4.525,4.735,13.628,9.4,16.193,10.523.467.21.868.434.776.941-.368,1.973-.941,2.723-2.118,4.6-6.025-2.6-10.365-4.091-17.89-11.24a16.525,16.525,0,0,1-1.907-2.5C54.959,151.9,54.42,136.227,55.038,131.525Z" transform="translate(-26.757 -100.684)" fill="#ffcea9"/>
      <path id="_Контур_9" data-name="&lt;Контур&gt;" d="M24.623,127.02s4.486,6.682,10.74,7.34c1.973-1.973,2.151-8.866-.579-11.076,0,0,2.512-2.026,4.229-1.631a8.859,8.859,0,0,1,3.861,4.926,40.317,40.317,0,0,1,2.2,14.305c-.105,6.577,0,26.584,0,26.584s-.875,4.236-6.531,7.386-9.866,3.46-13.7,2.565c-3.17-.737-5.788-1.855-6.873-4.15.283-4.6,2.335-16.587,1.565-22.362s-1.973-10.1-2.3-14.765.618-4.6,2.96-6.242a37.1,37.1,0,0,1,4.426-2.881Z" transform="translate(-13.955 -99.85)" fill="#f4f4f4"/>
      <path id="_Контур_10" data-name="&lt;Контур&gt;" d="M41.365,99.748h0c-.737-4.795-4.19-8.432-9.136-8.156a9.543,9.543,0,0,0-9,10.056,9.445,9.445,0,0,0,4.15,7.307,9.5,9.5,0,0,0,.77,2.1c1.743,2.045,7.037,3.289,8.55,3.091,1.973-.276,3.012-1.092,3.946-3.223C42.286,107.141,41.773,102.109,41.365,99.748Z" transform="translate(-16.024 -89.573)" fill="#ffcea9"/>
      <path id="Path_1254" data-name="Path 1254" d="M26.482,107.912h0l.454-4.183s-3.446-8.866,4.663-7.162c5.327,1.118,6.669,1.6,8.294-1.973s-4.1-6.794-10.9-5.919a9.392,9.392,0,0,0-8.405,9.53C20.767,100.855,21.47,106.183,26.482,107.912Z" transform="translate(-15.124 -88.529)" fill="#2a2d79"/>
      <path id="Path_1255" data-name="Path 1255" d="M15.117,139.128c2.341-.658.559-.112,2.341-.658,6.1,5.985,5.341,16.232,6.722,26.361,3.367,5.564,15.864,13.108,15.864,13.108.158,1.079-.224,1.394-1.572,3.571-6.018-2.6-11.063-4.841-18.587-11.983-.3-.283-.73-.355-.855-.743C16.88,162.318,14.493,143.837,15.117,139.128Z" transform="translate(-13.217 -105.624)" fill="#ffcea9"/>
      <path id="Path_1256" data-name="Path 1256" d="M84.611,158.44,75.528,189.5,55.6,197.462l7.268-30.254Z" transform="translate(-27.108 -112.459)" fill="#f4f4f4"/>
      <path id="Path_1257" data-name="Path 1257" d="M48.187,197.715c.3-1.059,1.065-.8,1.927-.533a5.038,5.038,0,0,0,2.947.256,8.9,8.9,0,0,0,2.111-1.427,2.716,2.716,0,0,1,1.315-.381c-.039.27-.454,1.848-.454,1.848s4.367.046,4.814-.046a.737.737,0,0,1,.658,1.21l.3-.046c.894-.2,1.276,1.171.375,1.375-.237.053-.48.079-.73.112.585.224.73,1.19,0,1.315l-.224.039a.743.743,0,0,1-.322.046h-.138a.783.783,0,0,1-.658.927c-2.131.283-5.262,1.131-7.2-.625a12.141,12.141,0,0,1-3.867-1.046C47.865,200.181,47.832,198.984,48.187,197.715Z" transform="translate(-24.503 -125.189)" fill="#ffcea9"/>
      <path id="Path_1258" data-name="Path 1258" d="M81.057,192.8h.3a.737.737,0,0,1,.414-1.315c.46,0,4.953-.941,4.953-.941l.539-1.848c0-.105.783.368.809.388a3.025,3.025,0,0,1,1.355,2.249,4.8,4.8,0,0,1-1.315,3.466,4.446,4.446,0,0,1-3.045,1.315c-.546.033-1.072.059-1.539.1a.783.783,0,0,1-.783-.789H82.6a.7.7,0,0,1-.322,0h-.23c-.763,0-.822-.947-.3-1.315-.243,0-.493.046-.737.046C80.057,194.21,80.11,192.79,81.057,192.8Z" transform="translate(-35.57 -122.809)" fill="#ffcea9"/>
      <path id="Path_1259" data-name="Path 1259" d="M56.148,134.751s2.3-.118,3.256-1.46c-.178-2.3-3.118-11.01-9.024-11.661a10.951,10.951,0,0,1,3.7,4.459A57.862,57.862,0,0,1,56.148,134.751Z" transform="translate(-25.322 -99.859)" fill="#ededed"/>
      <path id="Path_1260" data-name="Path 1260" d="M13.115,150.9s5.88,2.026,10.023-1.381c.454-.783-2.4-10.786-2.4-10.786s-2.466-5.117-6.327-3.085S13.115,150.9,13.115,150.9Z" transform="translate(-12.28 -104.496)" fill="#ededed"/>
    </g>
    <ellipse id="Ellipse_48" data-name="Ellipse 48" cx="3.394" cy="1.96" rx="3.394" ry="1.96" transform="translate(65.468 261.931)" fill="#d6d8e5" opacity="0.4"/>
    <ellipse id="Ellipse_49" data-name="Ellipse 49" cx="3.394" cy="1.96" rx="3.394" ry="1.96" transform="translate(129.029 298.178)" fill="#d6d8e5" opacity="0.4"/>
    <ellipse id="Ellipse_50" data-name="Ellipse 50" cx="3.394" cy="1.96" rx="3.394" ry="1.96" transform="translate(239.201 230.986)" fill="#d6d8e5" opacity="0.4"/>
    <path id="Path_1261" data-name="Path 1261" d="M101.34,300.31v65.981a1.157,1.157,0,0,0,.658.96,3.676,3.676,0,0,0,3.335,0,1.164,1.164,0,0,0,.658-.96h0V300.31Z" transform="translate(-34.688 -102.794)" fill="#c1c4d3"/>
    <path id="Path_1262" data-name="Path 1262" d="M198.21,339.35v76.577a1.19,1.19,0,0,0,.6.967,2.868,2.868,0,0,0,2.92,0,1.2,1.2,0,0,0,.605-.967h0V339.35Z" transform="translate(-67.846 -116.157)" fill="#c1c4d3"/>
    <path id="Path_1263" data-name="Path 1263" d="M365.71,258.48v62.443a1.177,1.177,0,0,0,.605.96,2.854,2.854,0,0,0,2.914,0,1.177,1.177,0,0,0,.605-.96h0V258.48Z" transform="translate(-125.18 -88.476)" fill="#c1c4d3"/>
    <path id="Path_1264" data-name="Path 1264" d="M164.968,345.776,95.08,305.426V300.71l69.888,40.357Z" transform="translate(-32.545 -102.931)" fill="url(#linear-gradient)"/>
    <path id="Path_1265" data-name="Path 1265" d="M282.792,237.84,164.944,305.88,95.05,265.53,212.9,197.49Z" transform="translate(-32.535 -67.6)" fill="#fff"/>
    <path id="Path_1266" data-name="Path 1266" d="M319.188,263.329,201.34,331.369V326.66l117.848-68.04Z" transform="translate(-68.917 -88.524)" fill="url(#linear-gradient)"/>
    <path id="Path_1267" data-name="Path 1267" d="M310.667,234.644l-18.791,15.739-17.166-6.834L293.5,227.81Z" transform="translate(-94.032 -77.978)" fill="#f4f4f4"/>
    <path id="Path_1268" data-name="Path 1268" d="M302.9,234.881,279.489,248.4l-14.739-8.511,23.408-13.516Z" transform="translate(-90.622 -77.485)" fill="#f4f4f4"/>
    <path id="Path_1269" data-name="Path 1269" d="M283.735,251.39l-1.434.829-9.721-5.61,1.434-.829Z" transform="translate(-93.303 -84.129)" fill="#d6d8e5"/>
    <path id="Path_1270" data-name="Path 1270" d="M288.638,248.56l-1.434.829-9.714-5.61,1.434-.829Z" transform="translate(-94.983 -83.16)" fill="#d6d8e5"/>
    <path id="Path_1271" data-name="Path 1271" d="M293.358,245.84l-1.434.822-9.714-5.6,1.434-.829Z" transform="translate(-96.599 -82.229)" fill="#d6d8e5"/>
    <path id="Path_1272" data-name="Path 1272" d="M306.55,240.662l-1.434.829-5.656-3.262,1.434-.829Z" transform="translate(-102.503 -81.261)" fill="#d6d8e5"/>
    <path id="Path_1273" data-name="Path 1273" d="M311.27,237.939l-1.434.822L304.18,235.5l1.434-.829Z" transform="translate(-104.119 -80.326)" fill="#d6d8e5"/>
    <path id="Path_1274" data-name="Path 1274" d="M290.92,251.8c.388-.164,20.757-12.5,20.757-12.5L290.4,251.6Z" transform="translate(-99.402 -81.911)" fill="#d6d6d6"/>
    <ellipse id="Ellipse_51" data-name="Ellipse 51" cx="5.104" cy="2.947" rx="5.104" ry="2.947" transform="translate(189.742 183.033)" opacity="0.2"/>
    <path id="Path_1275" data-name="Path 1275" d="M299.447,278.04v-7.86l-10.188.257v7.235a2.346,2.346,0,0,0,1.453,2.453,7.971,7.971,0,0,0,7.235,0A2.532,2.532,0,0,0,299.447,278.04Z" transform="translate(-98.998 -92.481)" fill="#619fef"/>
    <ellipse id="Ellipse_52" data-name="Ellipse 52" cx="5.104" cy="2.947" rx="5.104" ry="2.947" transform="translate(190.241 174.752)" fill="#61c1ef"/>
    <path id="Path_1276" data-name="Path 1276" d="M299.066,269.063c0,.48-.395.987-1.092,1.381a6.373,6.373,0,0,1-2.874.75h-.335a6.577,6.577,0,0,1-3.2-.756c-.691-.395-1.092-.9-1.092-1.381s.4-.98,1.092-1.381a6.577,6.577,0,0,1,3.2-.756h.329a6.373,6.373,0,0,1,2.874.75C298.672,268.083,299.066,268.583,299.066,269.063Z" transform="translate(-99.426 -91.364)" fill="#28221c"/>
    <path id="Path_1277" data-name="Path 1277" d="M299.409,269.073c0,.48-.395.987-1.092,1.381a5.919,5.919,0,0,1-5.755,0c-.691-.395-1.092-.9-1.092-1.381s.4-.98,1.092-1.381a5.919,5.919,0,0,1,5.755,0C299.014,268.093,299.409,268.593,299.409,269.073Z" transform="translate(-99.768 -91.374)" fill="#fff" opacity="0.07"/>
    <path id="Path_1278" data-name="Path 1278" d="M302.8,275.385l-1.085-.625-.526.309.526.3v.2l1.013.585v.191a9.368,9.368,0,0,1,.658,1.092l.039-.033v2.532c0,.658-.388.441-.559.342l-1.138-.658-.526.309.526.3v.2l1.138.658a1.764,1.764,0,0,0,.375.164l-.072.322.592-.335h0a.993.993,0,0,0,.342-.881v-2.631a3.059,3.059,0,0,0-1.3-2.341Z" transform="translate(-103.096 -94.049)" fill="#619fef"/>
    <path id="Path_1279" data-name="Path 1279" d="M302.328,281.564l-1.138-.658V280.1l1.138.658c.164.092.559.316.559-.349v-2.631a1.506,1.506,0,0,0-.658-1.118l-1.033-.6v-.809l1.085.625a3.058,3.058,0,0,1,1.315,2.309v2.631C303.584,281.525,303.255,282.1,302.328,281.564Z" transform="translate(-103.096 -94.216)" fill="#61c1ef"/>
    <ellipse id="Ellipse_53" data-name="Ellipse 53" cx="5.104" cy="2.947" rx="5.104" ry="2.947" transform="translate(89.053 193.635)" opacity="0.2"/>
    <path id="Path_1280" data-name="Path 1280" d="M146.357,294.16V286.3l-10.188.257v7.235a2.346,2.346,0,0,0,1.454,2.453,7.971,7.971,0,0,0,7.235,0,2.525,2.525,0,0,0,1.5-2.085Z" transform="translate(-46.596 -97.999)" fill="#f7b03e"/>
    <ellipse id="Ellipse_54" data-name="Ellipse 54" cx="5.104" cy="2.947" rx="5.104" ry="2.947" transform="translate(89.553 185.355)" fill="#fcc068"/>
    <path id="Path_1281" data-name="Path 1281" d="M145.98,285.183c0,.48-.4.98-1.092,1.381a6.478,6.478,0,0,1-2.874.75h-.329a6.577,6.577,0,0,1-3.2-.756c-.7-.4-1.092-.9-1.092-1.381s.395-.987,1.092-1.388a6.577,6.577,0,0,1,3.2-.75h.329a6.393,6.393,0,0,1,2.874.743C145.578,284.2,145.98,284.7,145.98,285.183Z" transform="translate(-47.028 -96.882)" fill="#28221c"/>
    <path id="Path_1282" data-name="Path 1282" d="M146.318,285.189c0,.48-.4.98-1.092,1.381a5.919,5.919,0,0,1-5.755,0c-.658-.4-1.092-.9-1.092-1.381s.4-.987,1.092-1.388a5.919,5.919,0,0,1,5.755,0C145.917,284.2,146.318,284.709,146.318,285.189Z" transform="translate(-47.367 -96.888)" fill="#fff" opacity="0.07"/>
    <path id="Path_1283" data-name="Path 1283" d="M149.691,291.5l-1.079-.625-.533.3.533.309v.2l1.013.585-.033.191a8.7,8.7,0,0,1,.658,1.092l.033-.033v2.532c0,.658-.388.441-.552.342l-1.138-.658-.533.3.533.309v.2l1.138.658a1.731,1.731,0,0,0,.368.164l-.066.322.592-.335h0a.987.987,0,0,0,.349-.888V293.84A3.058,3.058,0,0,0,149.691,291.5Z" transform="translate(-50.68 -99.566)" fill="#c9883a"/>
    <path id="Path_1284" data-name="Path 1284" d="M149.234,297.711l-1.144-.658v-.816l1.144.658c.164.1.552.322.552-.342v-2.631a1.559,1.559,0,0,0-.658-1.125l-1.039-.592v-.816l1.085.658a3.052,3.052,0,0,1,1.315,2.309v2.631C150.491,297.651,150.162,298.224,149.234,297.711Z" transform="translate(-50.69 -99.741)" fill="#e09c3b"/>
    <g id="_Группа_" data-name="&lt;Группа&gt;" transform="translate(116.756 156.817)">
      <g id="_Группа_2" data-name="&lt;Группа&gt;">
        <path id="_Контур_11" data-name="&lt;Контур&gt;" d="M220.074,264.679l-15.127-8.741a.855.855,0,0,0-.868,0L177.52,271.276l15.555,9Z" transform="translate(-177.52 -244.382)" opacity="0.2"/>
        <path id="_Контур_12" data-name="&lt;Контур&gt;" d="M221.164,262.069l-15.127-8.741a.855.855,0,0,0-.868,0L178.61,268.666l15.574,8.991Z" transform="translate(-177.893 -243.489)" fill="#f4f4f4"/>
        <path id="Path_1285" data-name="Path 1285" d="M200.564,285.47l-1.158.658c-.092.059-.079.151,0,.217l1.1.658a.408.408,0,0,0,.368,0l1.151-.658c.092-.053.086-.145,0-.21l-1.1-.658a.427.427,0,0,0-.368-.007Z" transform="translate(-184.99 -254.518)" fill="#2b303f"/>
        <path id="Path_1286" data-name="Path 1286" d="M203.045,284.036l-1.151.658c-.1.053-.086.151,0,.21l1.1.658a.427.427,0,0,0,.368,0l1.151-.658c.1-.053.085-.151,0-.21l-1.1-.658A.388.388,0,0,0,203.045,284.036Z" transform="translate(-185.839 -254.025)" fill="#2b303f"/>
        <path id="Path_1287" data-name="Path 1287" d="M205.556,282.586l-1.151.658a.116.116,0,0,0,0,.21l1.1.658a.427.427,0,0,0,.368,0l1.158-.658c.092-.053.079-.151,0-.21l-1.1-.658A.388.388,0,0,0,205.556,282.586Z" transform="translate(-186.7 -253.528)" fill="#2b303f"/>
        <path id="Path_1288" data-name="Path 1288" d="M208.014,281.168l-1.158.658c-.092.053-.079.151,0,.21l1.1.658a.388.388,0,0,0,.368,0l1.151-.658c.1-.053.086-.151,0-.21l-1.1-.658A.427.427,0,0,0,208.014,281.168Z" transform="translate(-187.54 -253.045)" fill="#2b303f"/>
        <path id="Path_1289" data-name="Path 1289" d="M210.5,279.725l-1.151.658c-.092.053-.086.145,0,.21l1.1.658a.427.427,0,0,0,.368,0l1.158-.658c.092-.059.079-.151,0-.217l-1.1-.658A.408.408,0,0,0,210.5,279.725Z" transform="translate(-188.391 -252.549)" fill="#2b303f"/>
        <path id="Path_1290" data-name="Path 1290" d="M212.984,278.3l-1.158.658c-.092.059-.079.151,0,.217l1.1.658a.388.388,0,0,0,.368,0l1.151-.658a.116.116,0,0,0,0-.21l-1.1-.658a.428.428,0,0,0-.368-.007Z" transform="translate(-189.241 -252.064)" fill="#2b303f"/>
        <path id="Path_1291" data-name="Path 1291" d="M215.465,276.866l-1.151.658c-.1.053-.086.151,0,.21l1.1.658a.428.428,0,0,0,.368,0l1.151-.658c.1-.053.085-.151,0-.21l-1.1-.658A.388.388,0,0,0,215.465,276.866Z" transform="translate(-190.091 -251.57)" fill="#2b303f"/>
        <path id="Path_1292" data-name="Path 1292" d="M217.946,275.43l-1.151.658c-.092.059-.085.151,0,.217l1.1.658a.408.408,0,0,0,.368,0l1.158-.658c.092-.053.079-.145,0-.21l-1.1-.658a.428.428,0,0,0-.368-.007Z" transform="translate(-190.941 -251.082)" fill="#2b303f"/>
        <path id="Path_1293" data-name="Path 1293" d="M220.434,273.976l-1.158.658c-.092.053-.079.151,0,.211l1.1.658a.408.408,0,0,0,.368,0l1.151-.658c.1-.053.086-.151,0-.211l-1.1-.658A.388.388,0,0,0,220.434,273.976Z" transform="translate(-191.791 -250.581)" fill="#2b303f"/>
        <path id="Path_1294" data-name="Path 1294" d="M222.916,272.555l-1.151.658c-.092.053-.086.145,0,.211l1.1.658a.428.428,0,0,0,.368,0l1.158-.658c.092-.059.079-.151,0-.217l-1.1-.658a.408.408,0,0,0-.368.007Z" transform="translate(-192.642 -250.095)" fill="#2b303f"/>
        <path id="Path_1295" data-name="Path 1295" d="M225.364,271.128l-1.158.658c-.092.053-.079.151,0,.21l1.1.658a.388.388,0,0,0,.368,0l1.151-.658a.116.116,0,0,0,0-.21l-1.1-.658A.428.428,0,0,0,225.364,271.128Z" transform="translate(-193.479 -249.608)" fill="#2b303f"/>
        <path id="Path_1296" data-name="Path 1296" d="M227.885,269.685l-1.151.658c-.1.053-.085.145,0,.21l1.1.658a.428.428,0,0,0,.368,0l1.151-.658c.1-.059.086-.151,0-.217l-1.1-.658A.408.408,0,0,0,227.885,269.685Z" transform="translate(-194.342 -249.112)" fill="#2b303f"/>
        <path id="Path_1297" data-name="Path 1297" d="M230.366,268.26l-1.151.658c-.092.059-.086.151,0,.217l1.1.658a.408.408,0,0,0,.368,0l1.158-.658c.092-.053.079-.145,0-.211l-1.1-.658a.428.428,0,0,0-.368-.007Z" transform="translate(-195.192 -248.627)" fill="#2b303f"/>
        <path id="Path_1298" data-name="Path 1298" d="M233.63,266.135l-1.973,1.118c-.092.053-.079.151,0,.21l1.1.658a.427.427,0,0,0,.368,0L235.1,267c.092-.053.079-.151,0-.21l-1.1-.658A.375.375,0,0,0,233.63,266.135Z" transform="translate(-196.029 -247.897)" fill="#2b303f"/>
        <path id="Path_1299" data-name="Path 1299" d="M201.836,281.98l-1.151.658c-.092.053-.086.145,0,.21l1.1.658a.427.427,0,0,0,.368,0l1.158-.658c.092-.059.079-.151,0-.217l-1.125-.651A.408.408,0,0,0,201.836,281.98Z" transform="translate(-185.427 -253.323)" fill="#2b303f"/>
        <path id="Path_1300" data-name="Path 1300" d="M204.365,280.516l-1.151.658c-.1.053-.085.151,0,.211l1.1.658a.427.427,0,0,0,.368,0l1.158-.658c.092-.053.079-.151,0-.211l-1.1-.658A.388.388,0,0,0,204.365,280.516Z" transform="translate(-186.291 -252.82)" fill="#2b303f"/>
        <path id="Path_1301" data-name="Path 1301" d="M206.815,279.08l-1.151.658c-.1.059-.086.151,0,.217l1.1.658a.408.408,0,0,0,.368,0l1.151-.658c.1-.053.085-.151,0-.21l-1.1-.658A.428.428,0,0,0,206.815,279.08Z" transform="translate(-187.13 -252.331)" fill="#2b303f"/>
        <path id="Path_1302" data-name="Path 1302" d="M209.3,277.635l-1.158.658c-.092.053-.079.145,0,.21l1.1.658a.427.427,0,0,0,.368,0l1.151-.658c.092-.059.085-.151,0-.217l-1.1-.658a.408.408,0,0,0-.368.007Z" transform="translate(-187.981 -251.834)" fill="#2b303f"/>
        <path id="Path_1303" data-name="Path 1303" d="M211.774,276.218l-1.158.658c-.092.053-.079.151,0,.21l1.1.658a.388.388,0,0,0,.368,0l1.151-.658a.116.116,0,0,0,0-.21l-1.1-.658A.428.428,0,0,0,211.774,276.218Z" transform="translate(-188.827 -251.35)" fill="#2b303f"/>
        <path id="Path_1304" data-name="Path 1304" d="M214.264,274.78l-1.158.658c-.092.059-.079.151,0,.217l1.1.658a.4.4,0,0,0,.362,0l1.158-.658c.092-.053.079-.145,0-.21l-1.1-.658a.414.414,0,0,0-.362-.007Z" transform="translate(-189.679 -250.859)" fill="#2b303f"/>
        <path id="Path_1305" data-name="Path 1305" d="M216.746,273.335l-1.151.658c-.092.053-.086.145,0,.21l1.1.658a.427.427,0,0,0,.368,0l1.158-.658c.092-.059.079-.151,0-.217l-1.1-.658A.408.408,0,0,0,216.746,273.335Z" transform="translate(-190.53 -250.362)" fill="#2b303f"/>
        <path id="Path_1306" data-name="Path 1306" d="M219.235,271.908l-1.151.658c-.1.053-.085.151,0,.21l1.1.658a.388.388,0,0,0,.368,0l1.151-.658c.1-.053.085-.151,0-.21l-1.1-.658a.428.428,0,0,0-.368,0Z" transform="translate(-191.381 -249.875)" fill="#2b303f"/>
        <path id="Path_1307" data-name="Path 1307" d="M221.725,270.47l-1.151.658c-.1.059-.085.151,0,.217l1.1.658a.408.408,0,0,0,.368,0l1.151-.658c.1-.053.085-.145,0-.21l-1.1-.658a.428.428,0,0,0-.368-.007Z" transform="translate(-192.233 -249.384)" fill="#2b303f"/>
        <path id="Path_1308" data-name="Path 1308" d="M224.214,269.025l-1.158.658c-.092.053-.079.145,0,.21l1.1.658a.427.427,0,0,0,.368,0l1.151-.658c.092-.059.085-.151,0-.217l-1.1-.658A.408.408,0,0,0,224.214,269.025Z" transform="translate(-193.085 -248.886)" fill="#2b303f"/>
        <path id="Path_1309" data-name="Path 1309" d="M226.7,267.6l-1.158.658c-.092.053-.079.151,0,.21l1.1.658a.388.388,0,0,0,.368,0l1.151-.658a.116.116,0,0,0,0-.21l-1.1-.658A.428.428,0,0,0,226.7,267.6Z" transform="translate(-193.937 -248.4)" fill="#2b303f"/>
        <path id="Path_1310" data-name="Path 1310" d="M229.194,266.16l-1.158.658c-.092.059-.079.151,0,.217l1.1.658a.408.408,0,0,0,.368,0l1.158-.658c.092-.053.079-.145,0-.211l-1.1-.658A.414.414,0,0,0,229.194,266.16Z" transform="translate(-194.79 -247.909)" fill="#2b303f"/>
        <path id="Path_1311" data-name="Path 1311" d="M198.94,283.392l-1.973,1.118c-.092.059-.079.151,0,.217l1.1.658a.408.408,0,0,0,.368,0l1.94-1.125c.092-.053.079-.151,0-.21l-1.1-.658A.414.414,0,0,0,198.94,283.392Z" transform="translate(-184.154 -253.808)" fill="#2b303f"/>
        <path id="Path_1312" data-name="Path 1312" d="M232.553,265.122l-1.158.658a.388.388,0,0,1-.342,0l-1.164-.658c-.092-.053-.092-.138,0-.2l.092-.053c.085-.046.085-.132,0-.184l-1.23-.7c-.1-.059-.1-.145,0-.2l.737-.421a.388.388,0,0,1,.342,0l1.151.658.237.138.171.1.178.1.987.572C232.645,264.984,232.645,265.083,232.553,265.122Z" transform="translate(-195.031 -246.95)" fill="#2b303f"/>
        <path id="Path_1313" data-name="Path 1313" d="M190.944,279.9l-1.158.658c-.092.053-.079.145,0,.21l1.1.658a.414.414,0,0,0,.362,0l1.158-.658c.092-.059.079-.151,0-.217l-1.1-.658A.4.4,0,0,0,190.944,279.9Z" transform="translate(-181.697 -252.607)" fill="#2b303f"/>
        <path id="Path_1314" data-name="Path 1314" d="M193.416,278.465l-1.151.658c-.092.053-.085.145,0,.21l1.1.658a.428.428,0,0,0,.368,0l1.158-.658c.092-.059.079-.151,0-.217l-1.1-.658a.408.408,0,0,0-.368.007Z" transform="translate(-182.544 -252.118)" fill="#2b303f"/>
        <path id="Path_1315" data-name="Path 1315" d="M195.9,277.035l-1.151.658c-.1.053-.085.145,0,.21l1.1.658a.427.427,0,0,0,.368,0l1.151-.658c.1-.059.086-.151,0-.217l-1.1-.658a.408.408,0,0,0-.368.007Z" transform="translate(-183.392 -251.628)" fill="#2b303f"/>
        <path id="Path_1316" data-name="Path 1316" d="M216.986,264.866l-1.151.658a.116.116,0,0,0,0,.21l1.1.658a.427.427,0,0,0,.368,0l1.158-.658c.092-.053.079-.151,0-.21l-1.1-.658a.388.388,0,0,0-.368,0Z" transform="translate(-190.612 -247.463)" fill="#2b303f"/>
        <path id="Path_1317" data-name="Path 1317" d="M219.465,263.436l-1.151.658c-.1.053-.086.151,0,.211l1.1.658a.427.427,0,0,0,.368,0l1.151-.658c.1-.053.086-.151,0-.211l-1.1-.658A.388.388,0,0,0,219.465,263.436Z" transform="translate(-191.46 -246.973)" fill="#2b303f"/>
        <path id="Path_1318" data-name="Path 1318" d="M221.944,261.976l-1.158.658c-.092.053-.079.151,0,.211l1.1.658a.427.427,0,0,0,.368,0l1.151-.658a.116.116,0,0,0,0-.211l-1.1-.658A.388.388,0,0,0,221.944,261.976Z" transform="translate(-192.308 -246.474)" fill="#2b303f"/>
        <path id="Path_1319" data-name="Path 1319" d="M224.416,260.576l-1.151.658a.116.116,0,0,0,0,.21l1.1.658a.427.427,0,0,0,.368,0l1.158-.658c.092-.053.079-.151,0-.21l-1.1-.658A.388.388,0,0,0,224.416,260.576Z" transform="translate(-193.156 -245.994)" fill="#2b303f"/>
        <path id="Path_1320" data-name="Path 1320" d="M198.8,275.246l-1.578.908c-.092.053-.079.145,0,.21l1.1.658a.427.427,0,0,0,.368,0l1.572-.908c.092-.053.079-.151,0-.21l-1.1-.658A.375.375,0,0,0,198.8,275.246Z" transform="translate(-184.24 -251.016)" fill="#2b303f"/>
        <path id="Path_1321" data-name="Path 1321" d="M214.3,266.3l-1.579.908c-.092.053-.079.145,0,.21l1.1.658a.427.427,0,0,0,.368,0l1.572-.908a.116.116,0,0,0,0-.211l-1.1-.658A.388.388,0,0,0,214.3,266.3Z" transform="translate(-189.546 -247.952)" fill="#2b303f"/>
        <path id="Path_1322" data-name="Path 1322" d="M207.973,268.09l-7.669,4.433c-.1.053-.085.151,0,.211l1.1.658a.428.428,0,0,0,.368,0l7.675-4.426c.092-.059.079-.151-.033-.217l-1.1-.658A.408.408,0,0,0,207.973,268.09Z" transform="translate(-185.295 -248.57)" fill="#2b303f"/>
        <path id="Path_1323" data-name="Path 1323" d="M200.1,280.167l-1.151.658c-.1.053-.085.145,0,.21l1.1.658a.408.408,0,0,0,.368,0l1.158-.658c.092-.053.079-.145,0-.21l-1.1-.658a.408.408,0,0,0-.368,0Z" transform="translate(-184.833 -252.701)" fill="#2b303f"/>
        <path id="Path_1324" data-name="Path 1324" d="M202.586,278.74l-1.151.658c-.092.059-.085.151,0,.217l1.1.658a.408.408,0,0,0,.368,0l1.158-.658c.092-.053.079-.145,0-.21l-1.1-.658A.428.428,0,0,0,202.586,278.74Z" transform="translate(-185.683 -252.215)" fill="#2b303f"/>
        <path id="Path_1325" data-name="Path 1325" d="M205.066,277.307l-1.151.658a.116.116,0,0,0,0,.21l1.1.658a.388.388,0,0,0,.368,0l1.158-.658c.092-.053.079-.151,0-.21l-1.1-.658A.408.408,0,0,0,205.066,277.307Z" transform="translate(-186.532 -251.722)" fill="#2b303f"/>
        <path id="Path_1326" data-name="Path 1326" d="M207.554,275.874l-1.158.658c-.092.053-.079.151,0,.21l1.1.658a.414.414,0,0,0,.362,0l1.158-.658c.092-.059.079-.151,0-.217l-1.1-.658A.375.375,0,0,0,207.554,275.874Z" transform="translate(-187.382 -251.23)" fill="#2b303f"/>
        <path id="Path_1327" data-name="Path 1327" d="M210.034,274.437l-1.158.658c-.092.053-.079.145,0,.21l1.1.658a.408.408,0,0,0,.368,0l1.151-.658c.092-.053.086-.145,0-.21l-1.1-.658A.407.407,0,0,0,210.034,274.437Z" transform="translate(-188.231 -250.74)" fill="#2b303f"/>
        <path id="Path_1328" data-name="Path 1328" d="M212.514,272.98l-1.158.658c-.092.059-.079.151,0,.217l1.1.658a.408.408,0,0,0,.368,0l1.151-.658c.092-.053.085-.145,0-.21l-1.1-.658a.428.428,0,0,0-.368-.007Z" transform="translate(-189.08 -250.243)" fill="#2b303f"/>
        <path id="Path_1329" data-name="Path 1329" d="M214.994,271.577l-1.158.658c-.092.053-.079.151,0,.21l1.1.658a.388.388,0,0,0,.368,0l1.151-.658c.1-.053.085-.151,0-.21l-1.1-.658A.408.408,0,0,0,214.994,271.577Z" transform="translate(-189.929 -249.761)" fill="#2b303f"/>
        <path id="Path_1330" data-name="Path 1330" d="M217.475,270.135l-1.151.658c-.1.053-.086.145,0,.21l1.1.658a.427.427,0,0,0,.368,0l1.151-.658c.1-.059.086-.151,0-.217l-1.1-.658A.408.408,0,0,0,217.475,270.135Z" transform="translate(-190.779 -249.266)" fill="#2b303f"/>
        <path id="Path_1331" data-name="Path 1331" d="M219.955,268.707l-1.151.658c-.1.053-.086.145,0,.21l1.1.658a.408.408,0,0,0,.368,0l1.151-.658c.1-.053.085-.145,0-.21l-1.1-.658A.408.408,0,0,0,219.955,268.707Z" transform="translate(-191.628 -248.779)" fill="#2b303f"/>
        <path id="Path_1332" data-name="Path 1332" d="M222.436,267.28l-1.151.658c-.092.059-.085.151,0,.217l1.1.658a.408.408,0,0,0,.368,0l1.158-.658c.092-.053.079-.145,0-.21l-1.1-.658A.428.428,0,0,0,222.436,267.28Z" transform="translate(-192.478 -248.292)" fill="#2b303f"/>
        <path id="Path_1333" data-name="Path 1333" d="M224.916,265.846l-1.151.658a.116.116,0,0,0,0,.211l1.1.658a.408.408,0,0,0,.368,0l1.158-.658c.092-.053.079-.151,0-.211l-1.1-.658A.388.388,0,0,0,224.916,265.846Z" transform="translate(-193.327 -247.798)" fill="#2b303f"/>
        <path id="Path_1334" data-name="Path 1334" d="M227.364,264.405l-1.158.658c-.092.053-.079.145,0,.21l1.1.658a.414.414,0,0,0,.362,0l1.158-.658c.092-.059.079-.151,0-.217l-1.1-.658A.4.4,0,0,0,227.364,264.405Z" transform="translate(-194.163 -247.305)" fill="#2b303f"/>
        <path id="Path_1335" data-name="Path 1335" d="M196.984,281.606,194.6,282.98c-.092.053-.079.151,0,.21l1.1.658a.394.394,0,0,0,.362,0l2.387-1.375c.1-.059.085-.151,0-.21l-1.1-.658A.388.388,0,0,0,196.984,281.606Z" transform="translate(-183.343 -253.193)" fill="#2b303f"/>
        <path id="Path_1336" data-name="Path 1336" d="M196.465,279.485l-1.151.658c-.1.053-.085.145,0,.21l1.1.658a.427.427,0,0,0,.368,0l1.158-.658c.092-.059.079-.151,0-.217l-1.1-.658a.408.408,0,0,0-.368.007Z" transform="translate(-183.587 -252.467)" fill="#2b303f"/>
        <path id="Path_1337" data-name="Path 1337" d="M198.946,278.06l-1.151.658c-.092.059-.085.151,0,.217l1.1.658a.407.407,0,0,0,.368,0l1.158-.658c.092-.053.079-.145,0-.21l-1.1-.658a.428.428,0,0,0-.368-.007Z" transform="translate(-184.437 -251.982)" fill="#2b303f"/>
        <path id="Path_1338" data-name="Path 1338" d="M201.426,276.628l-1.151.658a.116.116,0,0,0,0,.21l1.1.658a.388.388,0,0,0,.368,0l1.158-.658c.092-.053.079-.151,0-.21l-1.1-.658A.428.428,0,0,0,201.426,276.628Z" transform="translate(-185.286 -251.491)" fill="#2b303f"/>
        <path id="Path_1339" data-name="Path 1339" d="M203.914,275.2l-1.158.658c-.092.053-.079.151,0,.21l1.1.658a.414.414,0,0,0,.362,0l1.158-.658c.092-.053.079-.151,0-.21l-1.1-.658A.375.375,0,0,0,203.914,275.2Z" transform="translate(-186.136 -250.999)" fill="#2b303f"/>
        <path id="Path_1340" data-name="Path 1340" d="M206.364,273.755l-1.158.658c-.092.053-.079.145,0,.21l1.1.658a.414.414,0,0,0,.362,0l1.158-.658c.092-.059.079-.151,0-.217l-1.1-.658a.4.4,0,0,0-.362.007Z" transform="translate(-186.975 -250.506)" fill="#2b303f"/>
        <path id="Path_1341" data-name="Path 1341" d="M208.874,272.327l-1.158.658c-.092.053-.079.145,0,.21l1.1.658a.408.408,0,0,0,.368,0l1.151-.658c.092-.053.086-.145,0-.21l-1.1-.658A.408.408,0,0,0,208.874,272.327Z" transform="translate(-187.834 -250.018)" fill="#2b303f"/>
        <path id="Path_1342" data-name="Path 1342" d="M211.364,270.9l-1.158.658c-.092.059-.079.151,0,.217l1.1.658a.408.408,0,0,0,.368,0l1.151-.658c.092-.053.085-.145,0-.21l-1.1-.658A.428.428,0,0,0,211.364,270.9Z" transform="translate(-188.686 -249.531)" fill="#2b303f"/>
        <path id="Path_1343" data-name="Path 1343" d="M213.834,269.467l-1.158.658c-.092.053-.079.151,0,.211l1.1.658a.388.388,0,0,0,.368,0l1.151-.658a.116.116,0,0,0,0-.211l-1.1-.658a.408.408,0,0,0-.368,0Z" transform="translate(-189.532 -249.039)" fill="#2b303f"/>
        <path id="Path_1344" data-name="Path 1344" d="M216.364,268.036l-1.158.658c-.092.053-.079.151,0,.21l1.1.658a.428.428,0,0,0,.368,0l1.151-.658c.1-.053.085-.151,0-.21l-1.1-.658a.388.388,0,0,0-.368,0Z" transform="translate(-190.398 -248.548)" fill="#2b303f"/>
        <path id="Path_1345" data-name="Path 1345" d="M218.795,266.6l-1.151.658c-.1.053-.085.145,0,.21l1.1.658a.428.428,0,0,0,.368,0l1.151-.658c.1-.059.086-.151,0-.217l-1.1-.658A.408.408,0,0,0,218.795,266.6Z" transform="translate(-191.231 -248.055)" fill="#2b303f"/>
        <path id="Path_1346" data-name="Path 1346" d="M221.275,265.17l-1.151.658c-.1.059-.085.151,0,.217l1.1.658a.408.408,0,0,0,.368,0l1.151-.658c.1-.053.085-.145,0-.21l-1.1-.658a.428.428,0,0,0-.368-.007Z" transform="translate(-192.079 -247.57)" fill="#2b303f"/>
        <path id="Path_1347" data-name="Path 1347" d="M225.774,261.978l-3.17,1.828c-.1.053-.086.151,0,.21l1.1.658a.388.388,0,0,0,.368,0l3.177-1.828c.092-.053.079-.151,0-.21l-1.118-.658A.388.388,0,0,0,225.774,261.978Z" transform="translate(-192.928 -246.475)" fill="#2b303f"/>
        <path id="Path_1348" data-name="Path 1348" d="M193.767,280.979l-1.572.908c-.092.053-.086.145,0,.21l1.1.658a.427.427,0,0,0,.368,0l1.578-.908c.092-.053.079-.151-.033-.21l-1.1-.658A.388.388,0,0,0,193.767,280.979Z" transform="translate(-182.52 -252.981)" fill="#2b303f"/>
        <path id="Path_1349" data-name="Path 1349" d="M225.084,267.567l-23.178,13.384c-.092.053-.079.145,0,.211l.552.316a.408.408,0,0,0,.368,0L226,268.093c.1-.053.086-.145,0-.211l-.546-.316A.407.407,0,0,0,225.084,267.567Z" transform="translate(-185.845 -248.388)" fill="#2b303f"/>
        <path id="_Контур_13" data-name="&lt;Контур&gt;" d="M195.95,266.32l.151.086,4.005,2.315,7.116-4.111.151-.086-4.157-2.394Z" transform="translate(-183.828 -246.542)" fill="#bfbfbf"/>
        <path id="_Контур_14" data-name="&lt;Контур&gt;" d="M196.18,266.494l4.005,2.315L207.3,264.7,203.3,262.39Z" transform="translate(-183.907 -246.631)" fill="#e5e5e5"/>
        <path id="_Контур_15" data-name="&lt;Контур&gt;" d="M178.59,273.277v.355a1.46,1.46,0,0,0,.73,1.263l14.114,8.149a1.434,1.434,0,0,0,.73.2,1.467,1.467,0,0,0,.73-.2L220.427,268.3a1.454,1.454,0,0,0,.73-1.263v-.355l-26.966,15.588Z" transform="translate(-177.886 -248.1)" fill="#e5e5e5"/>
        <path id="_Контур_16" data-name="&lt;Контур&gt;" d="M202.89,272.955a1.73,1.73,0,0,0,1.493-.118l25.427-14.68a1.736,1.736,0,0,0,.842-1.21l2.782-16.594a2.117,2.117,0,0,0,0-.283,1.736,1.736,0,0,0-.506-1.23l-26.407,15.232a1.316,1.316,0,0,0-.618.894Z" transform="translate(-186.204 -238.57)" fill="#f4f4f4"/>
        <path id="_Контур_17" data-name="&lt;Контур&gt;" d="M202.27,272.6l.171.1a1.977,1.977,0,0,0,.237.118l3.012-17.969a1.315,1.315,0,0,1,.618-.894L232.735,238.7a1.8,1.8,0,0,0-.355-.27L205.9,253.715a1.316,1.316,0,0,0-.618.894Z" transform="translate(-185.992 -238.43)" fill="#e5e5e5"/>
      </g>
    </g>
    <ellipse id="Ellipse_55" data-name="Ellipse 55" cx="26.183" cy="15.121" rx="26.183" ry="15.121" transform="translate(239.839 298.612)" fill="#d6d8e5" opacity="0.4"/>
    <g id="Men_1" transform="translate(221.185 162.159)">
      <path id="_Контур_18" data-name="&lt;Контур&gt;" d="M431.517,302.29c.3,2.631,3.414,13.871,2.743,17.725s-11.306,10.313-11.306,10.313l-1.473-6.577,5.919-5.775-1.631-10.964Z" transform="translate(-365.455 -265.631)" fill="#ffcea9"/>
      <path id="_Контур_19" data-name="&lt;Контур&gt;" d="M424.23,285.194a4.643,4.643,0,0,1,5.919,1.789c1.565,2.591,3.19,11.484,3.341,13,0,0-2.2,3.032-5.492,2.526Z" transform="translate(-366.397 -259.631)" fill="#ededed"/>
      <path id="Path_1350" data-name="Path 1350" d="M395.886,474.917a9.1,9.1,0,0,1-6.886-.835c-1.657.053-10.661-3.8-11.885-.566-1.072,2.835,2.828,5.459,4.913,5.965,4.545,1.1,7.892,3.367,9.734,3.749,1.361.289,3.124.48,4.209-.592C397.273,481.356,397.162,476.607,395.886,474.917Z" transform="translate(-350.207 -323.797)" fill="#2a2d79"/>
      <path id="Path_1351" data-name="Path 1351" d="M391.765,483.419c-1.822-.381-5.189-2.631-9.734-3.755-1.749-.421-4.755-2.335-5.058-4.6-.408,2.631,3.111,4.926,5.058,5.4,4.545,1.1,7.892,3.367,9.734,3.749,1.361.289,3.124.48,4.209-.592a2.744,2.744,0,0,0,.6-1.085A5.446,5.446,0,0,1,391.765,483.419Z" transform="translate(-350.21 -324.769)" fill="#619fef"/>
      <path id="Path_1352" data-name="Path 1352" d="M418.136,464.947a9.129,9.129,0,0,1-6.886-.829c-1.657.046-10.661-3.808-11.885-.572-1.072,2.835,2.828,5.459,4.913,5.965,4.545,1.1,7.892,3.367,9.734,3.755,1.368.283,3.124.474,4.209-.6C419.491,471.386,419.379,466.637,418.136,464.947Z" transform="translate(-357.823 -320.385)" fill="#2a2d79"/>
      <path id="Path_1353" data-name="Path 1353" d="M413.965,473.449c-1.822-.381-5.189-2.631-9.734-3.756-1.749-.421-4.755-2.328-5.058-4.6-.408,2.631,3.111,4.92,5.058,5.393,4.545,1.1,7.892,3.367,9.734,3.755,1.368.283,3.124.474,4.209-.6a2.743,2.743,0,0,0,.6-1.085,5.446,5.446,0,0,1-4.808.895Z" transform="translate(-357.809 -321.357)" fill="#619fef"/>
      <path id="_Контур_20" data-name="&lt;Контур&gt;" d="M413.453,402.636a54.225,54.225,0,0,0-2.078-9.866s.625-8.511.934-16.581c.355-9.155,3.525-17.212,1.019-24.519l-28.248,6.281s1.71,36.5,2.092,40.922a82.56,82.56,0,0,0,1.263,10.234c1.315,7.083,3.387,23.94,3.387,23.94,2.986,1.736,6.906.776,6.906.776s-.21-21.316-.408-26.42c-.23-6.235-.421-5.762-.421-5.762l.941-15.509.612-7.721s.783,5.669,1.315,10.734c.441,4.413,1.506,8.405,2.7,16.627,1.033,7.13,2.71,21.454,2.71,21.454,2.986,1.743,7.044.3,7.044.3S414.262,408.818,413.453,402.636Z" transform="translate(-352.996 -282.534)" fill="#61c1ef"/>
      <path id="_Контур_21" data-name="&lt;Контур&gt;" d="M411.594,273.042c-2.151.105-3.749.658-4.019,0a27.825,27.825,0,0,1-.493-3.361c.25-.625.46-1.315.46-1.315,2.7-1.664,3.558-4.6,3.913-7.985.605-5.814-2.539-10.9-8.346-11.51-5.466-.566-9.484,3.289-10.556,8.55-.579,2.631-1.73,7.524-.171,11.839.868,2.394,1.973,4.295,3.1,4.663a26.406,26.406,0,0,0,3.236-.283h0s.289,1.618.493,2.631.118,1.585-1.94,2.854,3.118,3.887,6.5,3.624,7.156-2.243,8.195-4.459C413.139,275.85,413.041,272.97,411.594,273.042Z" transform="translate(-355.227 -247.327)" fill="#ffcea9"/>
      <path id="_Контур_22" data-name="&lt;Контур&gt;" d="M406.107,285.878c.592,1.48-.921,3.289-4.959,4.571s-4.407-.362-4.407-.362a79.837,79.837,0,0,0-7.853,4.045c-2.42,1.7-3.5,6.577-3.828,14.884-.375,9.583-.408,23.8-.092,26.249,0,0,4.532,4.518,10.333,4.045s15.561-5.61,17.929-9.576c-.066-8.4-1.052-9.767.309-14.608,3.118-11.082,4.755-15.621,3.242-22.987-1.25-6.071-3-6.82-5.393-6.761A49.7,49.7,0,0,0,406.107,285.878Z" transform="translate(-352.884 -259.841)" fill="#f4f4f4"/>
      <path id="_Контур_23" data-name="&lt;Контур&gt;" d="M359.359,320.44c4.762,1.2,5.88-1.8,6.5-4.282,1.513-6.018,2.328-11.451,3.46-14.871,1.315-4.025,2.723-4.663,4.676-5.452,2.3-.921,4.275,1.019,3.512,6.149a102.829,102.829,0,0,1-4.361,17.5c-.592,1.874-1.92,5.2-3.907,6.814-2.46,1.973-6.156,1.9-11.753.506-2.387-.592-5.005-2.019-9.517-4.124-1.21-.566-2.157-.941-4.479-2.026a15.923,15.923,0,0,1-5.965-4.657c-1.217-1.763-1.381-2.631-1.131-3,.309-.506.862-.395,1.513.349a12.838,12.838,0,0,0,3.427,3.17s-1.506-1.552-2.322-2.559a12.97,12.97,0,0,1-1.8-2.947c-.427-1.026.46-2.42,1.131-1.69s1,1.48,2.23,2.953a12.5,12.5,0,0,0,2.2,2.1,24.338,24.338,0,0,1-2.032-3.289,5.387,5.387,0,0,1-.743-2.953c.033-.539.8-1.177,1.506-.158a20.556,20.556,0,0,0,2.558,3.907c1.085,1.125,2.013,1.776,2.039,1.46s-.658-.927-1.046-2.243,0-2.7.73-2.854.585-.112,1.164,1.118a36.023,36.023,0,0,1,2.164,3.946,8.091,8.091,0,0,0,1.973,3.367C352.249,317.927,354.834,319.3,359.359,320.44Z" transform="translate(-336.298 -263.346)" fill="#ffcea9"/>
      <path id="_Контур_24" data-name="&lt;Контур&gt;" d="M391.508,294.656c-3.177-.467-5.419.96-6.827,5.781S382.3,309.2,382.3,309.2a8.616,8.616,0,0,0,5.321,3.532c3.8.921,5.17-.894,5.17-.894s1.059-5.045,1.717-8.478S395.441,295.235,391.508,294.656Z" transform="translate(-352.044 -262.99)" fill="#ededed"/>
      <path id="Path_1354" data-name="Path 1354" d="M392.677,255.917s-5.025-7.629,5.86-9.208c7.846-1.118,12.891,3.946,13.47,9.392.559,5.229-2.664,10.655-4.985,12.812-1.131.4-3.578.658-6.781-.822a38.341,38.341,0,0,1-.151-4.282S403.918,255.778,392.677,255.917Z" transform="translate(-355.2 -246.552)" fill="#2a2d79"/>
    </g>
    <circle id="Ellipse_56" data-name="Ellipse 56" cx="11.562" cy="11.562" r="11.562" transform="translate(145.524 121.906)" fill="#2a2d79"/>
    <path id="Path_1355" data-name="Path 1355" d="M230.721,203.158a24,24,0,0,1-11.655-2.749c-2.519-1.454-3.946-3.289-3.946-5.025s1.447-3.571,3.946-5.025a26.078,26.078,0,0,1,23.309,0c2.519,1.454,3.946,3.289,3.946,5.025s-1.44,3.571-3.946,5.025A23.961,23.961,0,0,1,230.721,203.158Z" transform="translate(-73.634 -64.218)" fill="#2a2d79"/>
    <path id="Path_1356" data-name="Path 1356" d="M230.721,200.132a24.072,24.072,0,0,1-11.655-2.743c-2.519-1.454-3.946-3.289-3.946-5.025s1.447-3.571,3.946-5.031a26.134,26.134,0,0,1,23.309,0c2.519,1.46,3.946,3.289,3.946,5.031s-1.44,3.571-3.946,5.025A24.035,24.035,0,0,1,230.721,200.132Z" transform="translate(-73.634 -63.184)" fill="#2a2d79"/>
    <path id="Path_1357" data-name="Path 1357" d="M228.294,195.006a31.578,31.578,0,0,1-15.127-3.558c-3.289-1.888-5.137-4.262-5.137-6.518s1.868-4.6,5.137-6.511c3.913-2.263,9.418-3.558,15.127-3.558a31.5,31.5,0,0,1,15.127,3.558c3.289,1.881,5.143,4.255,5.143,6.511s-1.874,4.6-5.143,6.518A31.334,31.334,0,0,1,228.294,195.006Z" transform="translate(-71.207 -59.854)" fill="#b7c0ee"/>
    <path id="Path_1358" data-name="Path 1358" d="M228.294,191.086a31.578,31.578,0,0,1-15.127-3.558c-3.289-1.881-5.137-4.262-5.137-6.511s1.868-4.6,5.137-6.518c3.913-2.263,9.418-3.558,15.127-3.558a31.5,31.5,0,0,1,15.127,3.558c3.289,1.888,5.143,4.262,5.143,6.518s-1.874,4.6-5.143,6.511A31.334,31.334,0,0,1,228.294,191.086Z" transform="translate(-71.207 -58.512)" fill="#3d348b"/>
    <path id="Path_1359" data-name="Path 1359" d="M226,185.139c-6.932,0-13.641-1.578-18.416-4.334-3.979-2.3-6.261-5.2-6.261-7.945s2.282-5.643,6.261-7.939c4.775-2.756,11.484-4.341,18.416-4.341s13.634,1.585,18.416,4.341c3.979,2.3,6.261,5.189,6.261,7.939s-2.282,5.643-6.261,7.945C239.638,183.56,232.923,185.139,226,185.139Z" transform="translate(-68.911 -54.966)" fill="#b7c0ee"/>
    <path id="Path_1360" data-name="Path 1360" d="M226,180.362c-6.932,0-13.641-1.579-18.416-4.334-3.979-2.3-6.261-5.2-6.261-7.945s2.282-5.643,6.261-7.939c4.775-2.756,11.484-4.334,18.416-4.334s13.634,1.578,18.416,4.334c3.979,2.3,6.261,5.2,6.261,7.945s-2.282,5.643-6.261,7.938C239.638,178.784,232.923,180.362,226,180.362Z" transform="translate(-68.911 -53.333)" fill="#2a2d79"/>
    <path id="Path_1361" data-name="Path 1361" d="M224.094,173.539c-7.958,0-15.66-1.809-21.145-4.979-4.571-2.631-7.189-5.959-7.189-9.116s2.631-6.478,7.189-9.122c5.479-3.164,13.187-4.972,21.139-4.972s15.667,1.809,21.145,4.979c4.571,2.631,7.189,5.959,7.189,9.116s-2.631,6.478-7.189,9.116C239.754,171.731,232.046,173.539,224.094,173.539Z" transform="translate(-67.007 -49.752)" fill="#b7c0ee"/>
    <path id="Path_1362" data-name="Path 1362" d="M224.094,168.056c-7.958,0-15.66-1.815-21.145-4.979-4.571-2.631-7.189-5.959-7.189-9.116s2.631-6.485,7.189-9.122c5.479-3.164,13.187-4.979,21.139-4.979s15.667,1.815,21.145,4.979c4.571,2.631,7.189,5.965,7.189,9.122s-2.631,6.478-7.189,9.116C239.754,166.26,232.046,168.056,224.094,168.056Z" transform="translate(-67.007 -47.873)" fill="#3d348b"/>
    <path id="Path_1651" data-name="Path 1651" d="M31.859,0c17.6,0,31.859,8.236,31.859,18.4s-14.264,18.4-31.859,18.4S0,28.556,0,18.4,14.264,0,31.859,0Z" transform="translate(125.227 80.707)" fill="#fff"/>
    <rect id="Rectangle_60" data-name="Rectangle 60" width="2.822" height="43.862" transform="translate(146.136 53.774)" fill="#619fef"/>
    <rect id="Rectangle_61" data-name="Rectangle 61" width="2.822" height="43.862" transform="translate(165.452 53.774)" fill="#619fef"/>
    <path id="Path_1363" data-name="Path 1363" d="M233.062,82.191,228.925,78.4l-5.077,3.4-1.657-2.46,7.011-4.6,4.019,3.677,4.814-3.736,6.294,4.663L242.362,81.6l-4.334-3.256Z" transform="translate(-76.054 -25.563)" fill="#619fef"/>
    <path id="Path_1364" data-name="Path 1364" d="M246.415,100.063c.053-4.13.763-16.324,10.464-33.129C268.356,47.052,256.393,0,214.517,0s-53.84,47.052-42.363,66.935a78.094,78.094,0,0,1,10.6,33.313" transform="translate(-57.516)" fill="#fff" opacity="0.69"/>
    <g id="Glasses" transform="translate(122.557 210.912)">
      <path id="Path_1365" data-name="Path 1365" d="M198.754,330.57l-1.828-1.71a4.269,4.269,0,0,0-.829-.894,3.566,3.566,0,0,0-.441-.316l-2.368-1.578-2.585-1.144a4.388,4.388,0,0,0-.487-.191,4.489,4.489,0,0,0-1.177-.224l-2.46-.8c-.138,0-.059.25,0,.355l.237.1c.3.112.046.072.355.289l1.414.362a4.65,4.65,0,0,1,2.565.658l1.874.941,1.8,1.085a4.229,4.229,0,0,1,1.8,1.934l.954.769c.3.276.125.158.566.224l.243.21C198.57,330.682,198.833,330.688,198.754,330.57Z" transform="translate(-186.396 -321.716)" opacity="0.2"/>
      <path id="Path_1366" data-name="Path 1366" d="M194.186,326.5a1.769,1.769,0,0,1,.572-.552,1.8,1.8,0,0,1,1.118-.257,3.492,3.492,0,0,1,1.315.408h.046l.658.355c.171.092.329.2.487.3l.3.224c.454.362.322,1.072-.079,1.638a5.373,5.373,0,0,1-.763.868,1.973,1.973,0,0,1-1.855.4,4.414,4.414,0,0,1-.848-.368,4.858,4.858,0,0,1-.7-.5A1.809,1.809,0,0,1,194,327,2.436,2.436,0,0,1,194.186,326.5Zm-5.426-3.289c.355-.546.96-.96,1.473-.789l.329.125a4.623,4.623,0,0,1,.487.224l.6.309h.039a2.809,2.809,0,0,1,.954.822,1.315,1.315,0,0,1,.243.98,1.617,1.617,0,0,1-.289.7,2.629,2.629,0,0,1-.414.4,2.2,2.2,0,0,1-2.124.546,4.174,4.174,0,0,1-.763-.329,4.246,4.246,0,0,1-.658-.5,1.421,1.421,0,0,1-.349-1.572,4.6,4.6,0,0,1,.474-.914Z" transform="translate(-186.97 -321.261)" opacity="0.1"/>
      <path id="Path_1367" data-name="Path 1367" d="M187.432,324.451l1.407-.132a4.518,4.518,0,0,1,2.578.513l7.768,3.9.454-.658-8.695-3.834a4.459,4.459,0,0,0-1.664-.414l-2.762-.158a.151.151,0,0,0-.145.243l.072.1a1.118,1.118,0,0,0,.987.441Z" transform="translate(-186.34 -321.701)" fill="#2b303f"/>
      <path id="Path_1368" data-name="Path 1368" d="M198.348,329.2l-.585-1.315a4.262,4.262,0,0,0-1.8-1.94l-7.1-4.249.4-.612,7.5,4.992a4.374,4.374,0,0,1,1.263,1.217l1.611,2.355c.079.118-.039.27-.2.243h-.138A1.236,1.236,0,0,1,198.348,329.2Z" transform="translate(-187.206 -320.816)" fill="#2b303f"/>
      <path id="Path_1369" data-name="Path 1369" d="M199.027,326.994a3.487,3.487,0,0,1,1.315.4h.039l.658.349c.171.1.329.2.487.3a3.188,3.188,0,0,1,.3.23c.447.355.316,1.072-.079,1.631a4.828,4.828,0,0,1-.77.868,1.934,1.934,0,0,1-1.848.408,4.9,4.9,0,0,1-.848-.375,4.021,4.021,0,0,1-.7-.5,1.789,1.789,0,0,1-.434-2.013,2.177,2.177,0,0,1,.217-.526,1.842,1.842,0,0,1,.572-.552A1.769,1.769,0,0,1,199.027,326.994Z" transform="translate(-189.99 -322.836)" opacity="0.3" fill="url(#linear-gradient-3)"/>
      <path id="Path_1370" data-name="Path 1370" d="M188.636,320.8l-.342.539a.171.171,0,0,0,0,.23.355.355,0,0,1,.079.427l-.566,1.184a1.73,1.73,0,0,0,.382,2.039h0a4.394,4.394,0,0,0,1.657.927h0a2.631,2.631,0,0,0,2.631-.658l.526-.533a.658.658,0,0,0,.2-.427.46.46,0,0,1,.658-.349l.132.066.132.079a.388.388,0,0,1-.046.658.763.763,0,0,0-.335.355l-.3.658a2.124,2.124,0,0,0,.559,2.48h0a4.833,4.833,0,0,0,1.73.98h0a2.309,2.309,0,0,0,2.361-.585l.987-1.039a.52.52,0,0,1,.513-.132.243.243,0,0,0,.27-.079l.4-.552a.276.276,0,0,0,0-.355,8.287,8.287,0,0,0-2.144-1.539l-.658-.355a4.176,4.176,0,0,0-1.572-.487l-.487-.053a.415.415,0,0,1-.3-.105.553.553,0,0,0-.184-.164l-.539-.289-.539-.3a.611.611,0,0,0-.25-.066.421.421,0,0,1-.322-.164l-.263-.355a3.289,3.289,0,0,0-1.151-.967l-.6-.316a7.235,7.235,0,0,0-2.289-.875.342.342,0,0,0-.335.118Zm5.492,4.847a1.841,1.841,0,0,1,.572-.552,1.769,1.769,0,0,1,1.118-.25,3.485,3.485,0,0,1,1.315.4h.039l.658.349c.171.1.329.2.487.3a3.2,3.2,0,0,1,.3.23c.447.355.316,1.072-.079,1.631a4.826,4.826,0,0,1-.77.868,1.933,1.933,0,0,1-1.848.408,4.888,4.888,0,0,1-.848-.375,4.019,4.019,0,0,1-.7-.5,1.789,1.789,0,0,1-.434-2.013A2.177,2.177,0,0,1,194.128,325.652Zm-5.433-3.289c.362-.539.96-.954,1.48-.783a3.289,3.289,0,0,1,.329.118c.164.066.329.145.487.224l.6.316h.039a2.953,2.953,0,0,1,.954.822,1.315,1.315,0,0,1,.237.987,1.552,1.552,0,0,1-.289.7,2.415,2.415,0,0,1-.414.408,2.21,2.21,0,0,1-2.124.546,3.893,3.893,0,0,1-.756-.335,3.7,3.7,0,0,1-.658-.493,1.434,1.434,0,0,1-.349-1.578,5.1,5.1,0,0,1,.467-.921Z" transform="translate(-186.781 -320.679)" fill="#2b303f"/>
      <path id="Path_1371" data-name="Path 1371" d="M192.3,326.2a2.19,2.19,0,0,1-2.124.546,3.891,3.891,0,0,1-.75-.309,3.421,3.421,0,0,1-.658-.493,1.421,1.421,0,0,1-.349-1.572,4.9,4.9,0,0,1,.493-.947h0a4.708,4.708,0,0,0-.454.881,1.434,1.434,0,0,0,.349,1.578,3.7,3.7,0,0,0,.658.493,3.9,3.9,0,0,0,.756.335,2.21,2.21,0,0,0,2.124-.546,2.632,2.632,0,0,0,.414-.4l-.046.013A2.367,2.367,0,0,1,192.3,326.2Z" transform="translate(-187.015 -321.617)" fill="#1f232d"/>
      <path id="Path_1372" data-name="Path 1372" d="M200.852,331.338a1.934,1.934,0,0,1-1.848.4,4.415,4.415,0,0,1-.848-.368,4.868,4.868,0,0,1-.7-.5,1.809,1.809,0,0,1-.434-2.019,2.434,2.434,0,0,1,.217-.52l.053-.072a2.348,2.348,0,0,0-.21.513,1.789,1.789,0,0,0,.434,2.013,4.017,4.017,0,0,0,.7.5,4.894,4.894,0,0,0,.848.375,1.934,1.934,0,0,0,1.848-.408,4.946,4.946,0,0,0,.717-.8h0A4.835,4.835,0,0,1,200.852,331.338Z" transform="translate(-189.947 -323.274)" fill="#1f232d"/>
      <path id="Path_1373" data-name="Path 1373" d="M192.827,323.55a2.954,2.954,0,0,0-.954-.822h-.039l-.6-.316c-.158-.079-.322-.158-.487-.224a3.29,3.29,0,0,0-.329-.118c-.52-.171-1.118.243-1.48.783a5.1,5.1,0,0,0-.493.947,1.434,1.434,0,0,0,.349,1.579,3.706,3.706,0,0,0,.658.493,3.9,3.9,0,0,0,.756.336,2.21,2.21,0,0,0,2.124-.546,2.412,2.412,0,0,0,.414-.408,1.552,1.552,0,0,0,.289-.7A1.315,1.315,0,0,0,192.827,323.55Z" transform="translate(-187.025 -321.142)" opacity="0.3" fill="url(#linear-gradient-4)"/>
    </g>
  </g>
</svg>
